<svg width="270" height="387" viewBox="0 0 270 387" fill="none" xmlns="http://www.w3.org/2000/svg">
<path d="M259.471 0H10.8574C5.04219 0 0.328003 4.71419 0.328003 10.5294V376.471C0.328003 382.286 5.04219 387 10.8574 387H259.471C265.286 387 270 382.286 270 376.471V10.5294C270 4.71419 265.286 0 259.471 0Z" fill="#263238"/>
<path d="M260.984 27.6136H8.32312V350.808H260.984V27.6136Z" fill="white"/>
<path d="M146.4 368.439C146.31 367.519 146.16 366.605 145.954 365.704C145.564 364.208 144.867 362.809 143.906 361.598C142.944 360.387 141.74 359.39 140.371 358.672C139.002 357.953 137.498 357.529 135.955 357.426C134.413 357.323 132.865 357.544 131.413 358.074C130.416 358.433 129.479 358.94 128.632 359.578C127.737 360.229 126.952 361.02 126.308 361.921C124.918 363.803 124.167 366.081 124.167 368.421C124.167 370.76 124.918 373.039 126.308 374.921C126.954 375.817 127.739 376.604 128.632 377.254C129.477 377.896 130.414 378.403 131.413 378.759C133.264 379.435 135.263 379.605 137.202 379.251C138.894 378.948 140.491 378.248 141.86 377.209C143.87 375.704 145.312 373.565 145.954 371.137C146.16 370.236 146.31 369.323 146.4 368.402C146.422 368.642 146.422 368.883 146.4 369.123C146.402 369.413 146.381 369.702 146.336 369.989C146.294 370.385 146.224 370.778 146.127 371.165C145.614 373.275 144.506 375.193 142.936 376.693C141.365 378.192 139.397 379.21 137.266 379.625C135.257 380.007 133.182 379.844 131.258 379.151C129.128 378.378 127.274 376.996 125.925 375.176C124.475 373.214 123.692 370.838 123.692 368.398C123.692 365.958 124.475 363.582 125.925 361.62C127.274 359.8 129.128 358.417 131.258 357.645C133.183 356.956 135.257 356.793 137.266 357.171C139.397 357.586 141.365 358.603 142.936 360.103C144.506 361.602 145.614 363.521 146.127 365.631C146.223 366.018 146.293 366.411 146.336 366.807C146.383 367.109 146.404 367.414 146.4 367.719C146.422 367.958 146.422 368.199 146.4 368.439Z" fill="#455A64"/>
<path d="M174.661 11.1494H95.6673C95.053 11.1494 94.5551 11.6473 94.5551 12.2616V14.3128C94.5551 14.927 95.053 15.425 95.6673 15.425H174.661C175.275 15.425 175.773 14.927 175.773 14.3128V12.2616C175.773 11.6473 175.275 11.1494 174.661 11.1494Z" fill="#455A64"/>
<path d="M177.514 76.4135H115.568V151.35H177.514V76.4135Z" fill="#FAFAFA"/>
<path d="M177.514 151.35C177.514 151.35 177.514 151.223 177.514 150.986C177.514 150.749 177.514 150.393 177.514 149.937C177.514 149.026 177.514 147.64 177.514 145.871C177.514 142.316 177.514 137.129 177.459 130.547C177.459 117.392 177.396 98.6849 177.35 76.4136L177.56 76.6233H115.623L115.796 76.3771C115.796 104.082 115.796 129.854 115.796 151.314L115.596 151.122L160.512 151.223L173.074 151.268H176.393H177.541C177.541 151.268 177.177 151.268 176.438 151.268H173.156L160.64 151.323L115.596 151.423H115.395V151.223C115.395 129.763 115.395 103.991 115.395 76.2859V76.0489H115.641H177.578H177.788V76.3771C177.788 98.7032 177.715 117.456 177.687 130.647C177.687 137.202 177.642 142.38 177.633 145.926C177.633 147.676 177.633 149.026 177.633 149.946C177.633 150.393 177.633 150.73 177.633 150.977C177.633 151.223 177.514 151.35 177.514 151.35Z" fill="#EBEBEB"/>
<path d="M260.984 27.6136H8.32312V51.4621H260.984V27.6136Z" fill="#E0E0E0"/>
<path d="M24.1855 39.9572C24.1534 40.5301 23.9541 41.081 23.6123 41.5419C23.2705 42.0027 22.8011 42.3533 22.2621 42.5503C21.7232 42.7472 21.1384 42.7819 20.58 42.65C20.0215 42.5182 19.514 42.2255 19.1201 41.8083C18.7262 41.3911 18.4632 40.8676 18.3636 40.3025C18.2641 39.7374 18.3323 39.1555 18.5599 38.6288C18.7874 38.1021 19.1644 37.6536 19.6441 37.3388C20.1238 37.024 20.6853 36.8568 21.2591 36.8576C21.655 36.8683 22.0449 36.9569 22.4065 37.1186C22.768 37.2803 23.0941 37.5117 23.366 37.7997C23.6379 38.0877 23.8502 38.4265 23.9908 38.7967C24.1315 39.167 24.1976 39.5614 24.1855 39.9572Z" fill="#263238"/>
<path d="M35.0705 39.9572C35.0384 40.5301 34.8391 41.081 34.4973 41.5419C34.1555 42.0027 33.6861 42.3533 33.1472 42.5503C32.6082 42.7472 32.0234 42.7819 31.465 42.65C30.9065 42.5182 30.399 42.2255 30.0051 41.8083C29.6112 41.3911 29.3482 40.8676 29.2486 40.3025C29.1491 39.7374 29.2173 39.1555 29.4449 38.6288C29.6725 38.1021 30.0494 37.6536 30.5291 37.3388C31.0089 37.024 31.5703 36.8568 32.1441 36.8576C32.9429 36.8815 33.6996 37.2212 34.2482 37.8023C34.7968 38.3834 35.0925 39.1584 35.0705 39.9572Z" fill="#263238"/>
<path d="M45.9557 39.9572C45.9236 40.5301 45.7244 41.081 45.3826 41.5419C45.0407 42.0027 44.5713 42.3533 44.0324 42.5503C43.4935 42.7472 42.9087 42.7819 42.3502 42.65C41.7918 42.5182 41.2843 42.2255 40.8903 41.8083C40.4964 41.3911 40.2335 40.8676 40.1339 40.3025C40.0343 39.7374 40.1025 39.1555 40.3301 38.6288C40.5577 38.1021 40.9347 37.6536 41.4144 37.3388C41.8941 37.024 42.4556 36.8568 43.0294 36.8576C43.8281 36.8815 44.5849 37.2212 45.1335 37.8023C45.6821 38.3834 45.9778 39.1584 45.9557 39.9572Z" fill="#263238"/>
<path d="M175.335 59.9768H117.747C116.543 59.9768 115.568 60.9523 115.568 62.1557V75.1009C115.568 76.3043 116.543 77.2798 117.747 77.2798H175.335C176.538 77.2798 177.514 76.3043 177.514 75.1009V62.1557C177.514 60.9523 176.538 59.9768 175.335 59.9768Z" fill="#FD391E"/>
<path d="M175.345 77.2887C175.863 77.2497 176.355 77.0452 176.749 76.7052C176.977 76.495 177.157 76.2379 177.277 75.9515C177.396 75.6651 177.452 75.3562 177.441 75.046C177.441 74.2894 177.441 73.4233 177.441 72.4479C177.441 70.4787 177.441 68.0811 177.441 65.3097C177.441 64.6169 177.441 63.8967 177.441 63.1491C177.441 62.7845 177.441 62.3925 177.441 62.0278C177.417 61.666 177.297 61.317 177.095 61.0159C176.877 60.6988 176.577 60.4466 176.227 60.2861C175.877 60.1256 175.49 60.0628 175.108 60.1043H172.546L117.848 60.1772C117.55 60.1775 117.257 60.2458 116.99 60.377C116.723 60.5081 116.489 60.6986 116.307 60.9339C116.131 61.1731 116.007 61.4463 115.942 61.7361C115.92 62.0396 115.92 62.3443 115.942 62.6477V74.262C115.859 74.8481 115.944 75.4457 116.188 75.985C116.324 76.2275 116.509 76.4383 116.732 76.6034C116.956 76.7685 117.211 76.884 117.483 76.9422C117.786 76.9779 118.092 76.9779 118.395 76.9422H128.258L152.873 76.9878L169.455 77.0699H173.959H175.135C175.268 77.0581 175.403 77.0581 175.536 77.0699H175.135H173.959L169.455 77.1155L152.873 77.1884L128.258 77.2431H118.221C117.898 77.2552 117.575 77.2369 117.255 77.1884C116.918 77.1181 116.6 76.9769 116.322 76.7742C116.043 76.5714 115.811 76.3117 115.641 76.0124C115.477 75.7078 115.378 75.3726 115.35 75.0278C115.35 74.6723 115.35 74.3897 115.35 74.0615C115.35 71.5453 115.35 68.9836 115.35 66.3763V62.7024C115.319 62.3597 115.319 62.015 115.35 61.6723C115.422 61.31 115.578 60.9696 115.805 60.6786C116.034 60.3911 116.326 60.1595 116.657 60.0015C116.989 59.8435 117.353 59.7633 117.72 59.767L172.418 59.8308H175.053C175.483 59.7887 175.917 59.8619 176.309 60.043C176.702 60.224 177.039 60.5064 177.286 60.8609C177.524 61.2028 177.663 61.6033 177.688 62.0187C177.688 62.4198 177.688 62.7845 177.688 63.1583C177.688 63.9058 177.688 64.626 177.688 65.3189C177.688 68.0538 177.688 70.4878 177.642 72.457C177.642 73.4324 177.642 74.2803 177.642 75.0552C177.645 75.3827 177.578 75.7071 177.444 76.0061C177.31 76.3051 177.114 76.5716 176.867 76.7873C176.563 77.0455 176.194 77.2158 175.8 77.2796C175.65 77.3112 175.496 77.3143 175.345 77.2887Z" fill="#F5F5F5"/>
<path d="M247.3 59.9768H189.712C188.509 59.9768 187.533 60.9523 187.533 62.1557V75.1009C187.533 76.3043 188.509 77.2798 189.712 77.2798H247.3C248.504 77.2798 249.479 76.3043 249.479 75.1009V62.1557C249.479 60.9523 248.504 59.9768 247.3 59.9768Z" fill="#F5F5F5"/>
<path d="M247.309 77.2887C247.828 77.2497 248.32 77.0452 248.713 76.7052C248.943 76.4955 249.124 76.2386 249.246 75.9523C249.367 75.6659 249.425 75.3568 249.415 75.046C249.415 74.2863 249.415 73.4203 249.415 72.4479C249.415 70.4787 249.415 68.0811 249.415 65.3097C249.415 64.6169 249.415 63.8967 249.415 63.1491C249.415 62.7845 249.415 62.3925 249.415 62.0278C249.395 61.6652 249.275 61.3152 249.069 61.0159C248.851 60.6988 248.551 60.4466 248.201 60.2861C247.851 60.1256 247.464 60.0628 247.082 60.1043H244.429L189.73 60.1772C189.433 60.1775 189.139 60.2458 188.872 60.377C188.605 60.5081 188.372 60.6986 188.19 60.9339C188.014 61.1731 187.89 61.4463 187.825 61.7361C187.802 62.0396 187.802 62.3443 187.825 62.6477V74.262C187.742 74.8481 187.827 75.4457 188.071 75.985C188.207 76.2268 188.393 76.437 188.616 76.602C188.839 76.7669 189.095 76.8829 189.366 76.9422C189.668 76.9779 189.974 76.9779 190.277 76.9422H200.141L224.755 76.9878L241.338 77.0699H245.842H247.018C247.151 77.0581 247.285 77.0581 247.419 77.0699H247.018H245.842L241.338 77.1155L224.755 77.1884L200.141 77.2431H190.186C189.863 77.2552 189.539 77.2369 189.22 77.1884C188.883 77.1181 188.565 76.9769 188.286 76.7742C188.008 76.5714 187.776 76.3117 187.606 76.0124C187.442 75.7078 187.343 75.3726 187.314 75.0278C187.314 74.6723 187.314 74.3897 187.314 74.0615C187.314 71.5453 187.314 68.9836 187.314 66.3763V62.7024C187.299 62.3584 187.314 62.0136 187.36 61.6723C187.436 61.3112 187.592 60.9716 187.816 60.6786C188.045 60.3911 188.336 60.1595 188.668 60.0015C188.999 59.8435 189.363 59.7633 189.73 59.767L244.429 59.8308H246.99C247.421 59.7887 247.854 59.8619 248.247 60.043C248.639 60.224 248.977 60.5064 249.224 60.8609C249.461 61.2028 249.6 61.6033 249.625 62.0187C249.625 62.4198 249.625 62.7845 249.625 63.1583C249.625 63.9058 249.625 64.626 249.625 65.3189C249.625 68.0538 249.625 70.4878 249.579 72.457C249.579 73.4324 249.579 74.2803 249.579 75.0552C249.583 75.3827 249.515 75.7071 249.382 76.0061C249.248 76.3051 249.051 76.5716 248.805 76.7873C248.501 77.0455 248.132 77.2158 247.738 77.2796C247.597 77.3078 247.452 77.3109 247.309 77.2887Z" fill="#263238"/>
<path d="M57.3467 123.232C68.6277 119.851 75.0326 107.966 71.6524 96.6852C68.2723 85.4042 56.3871 78.9994 45.1061 82.3795C33.8251 85.7597 27.4202 97.6449 30.8004 108.926C34.1805 120.207 46.0657 126.612 57.3467 123.232Z" fill="#E0E0E0"/>
<path d="M79.4492 151.131C79.4492 151.259 66.8139 151.368 51.1884 151.368C35.5629 151.368 22.9276 151.259 22.9276 151.131C22.9276 151.004 35.5629 150.894 51.1884 150.894C66.8139 150.894 79.4492 150.995 79.4492 151.131Z" fill="#263238"/>
<path d="M79.4492 165.627C79.4492 165.763 66.8139 165.864 51.1884 165.864C35.5629 165.864 22.9276 165.763 22.9276 165.627C22.9276 165.49 35.5629 165.39 51.1884 165.39C66.8139 165.39 79.4492 165.499 79.4492 165.627Z" fill="#263238"/>
<path d="M79.4492 180.131C79.4492 180.268 66.8139 180.368 51.1884 180.368C35.5629 180.368 22.9276 180.268 22.9276 180.131C22.9276 179.994 35.5629 179.894 51.1884 179.894C66.8139 179.894 79.4492 180.003 79.4492 180.131Z" fill="#263238"/>
<path d="M79.4492 194.635C79.4492 194.763 66.8139 194.872 51.1884 194.872C35.5629 194.872 22.9276 194.763 22.9276 194.635C22.9276 194.507 35.5629 194.398 51.1884 194.398C66.8139 194.398 79.4492 194.507 79.4492 194.635Z" fill="#263238"/>
<path d="M35.7245 229.682C39.5355 228.094 41.3377 223.717 39.7497 219.907C38.1618 216.096 33.7851 214.293 29.9741 215.881C26.1631 217.469 24.361 221.846 25.9489 225.657C27.5368 229.468 31.9135 231.27 35.7245 229.682Z" fill="#E0E0E0"/>
<path d="M35.72 261.054C39.531 259.466 41.3331 255.09 39.7452 251.279C38.1573 247.468 33.7806 245.665 29.9696 247.253C26.1586 248.841 24.3565 253.218 25.9444 257.029C27.5323 260.84 31.909 262.642 35.72 261.054Z" fill="#E0E0E0"/>
<path d="M32.846 293.001C36.9746 293.001 40.3215 289.654 40.3215 285.525C40.3215 281.397 36.9746 278.05 32.846 278.05C28.7175 278.05 25.3706 281.397 25.3706 285.525C25.3706 289.654 28.7175 293.001 32.846 293.001Z" fill="#E0E0E0"/>
<path d="M32.846 324.379C36.9746 324.379 40.3215 321.033 40.3215 316.904C40.3215 312.775 36.9746 309.429 32.846 309.429C28.7175 309.429 25.3706 312.775 25.3706 316.904C25.3706 321.033 28.7175 324.379 32.846 324.379Z" fill="#E0E0E0"/>
<path d="M76.8236 222.786C76.8236 222.914 69.7038 223.023 60.9338 223.023C52.1638 223.023 45.0348 222.914 45.0348 222.786C45.0348 222.659 52.1456 222.549 60.9338 222.549C69.722 222.549 76.8236 222.659 76.8236 222.786Z" fill="#263238"/>
<path d="M76.8236 254.147C76.8236 254.284 69.7038 254.384 60.9338 254.384C52.1638 254.384 45.0348 254.284 45.0348 254.147C45.0348 254.01 52.1456 253.91 60.9338 253.91C69.722 253.91 76.8236 254.028 76.8236 254.147Z" fill="#263238"/>
<path d="M76.8236 285.525C76.8236 285.662 69.7038 285.772 60.9338 285.772C52.1638 285.772 45.0348 285.662 45.0348 285.525C45.0348 285.389 52.1456 285.288 60.9338 285.288C69.722 285.288 76.8236 285.398 76.8236 285.525Z" fill="#263238"/>
<path d="M76.8236 316.904C76.8236 317.032 69.7038 317.141 60.9338 317.141C52.1638 317.141 45.0348 317.032 45.0348 316.904C45.0348 316.776 52.1456 316.667 60.9338 316.667C69.722 316.667 76.8236 316.767 76.8236 316.904Z" fill="#263238"/>
<path d="M158.115 68.6284C158.115 68.756 150.366 68.8654 140.794 68.8654C131.221 68.8654 123.472 68.756 123.472 68.6284C123.472 68.5008 131.221 68.3914 140.794 68.3914C150.366 68.3914 158.115 68.4916 158.115 68.6284Z" fill="white"/>
<path d="M164.569 67.8077L165.9 69.631C165.941 69.6989 166 69.755 166.069 69.7939C166.138 69.8328 166.217 69.8533 166.296 69.8533C166.376 69.8533 166.454 69.8328 166.524 69.7939C166.593 69.755 166.651 69.6989 166.693 69.631L167.796 67.8077C167.839 67.7348 167.862 67.6517 167.863 67.5669C167.864 67.4821 167.843 67.3986 167.801 67.3247C167.76 67.2508 167.699 67.1891 167.626 67.1459C167.554 67.1027 167.47 67.0794 167.386 67.0784H164.961C164.877 67.0825 164.797 67.108 164.726 67.1524C164.656 67.1969 164.598 67.2589 164.559 67.3323C164.519 67.4057 164.499 67.488 164.501 67.5713C164.503 67.6547 164.526 67.7361 164.569 67.8077Z" fill="white"/>
<path d="M238.612 67.7073L239.934 69.5306C239.977 69.5984 240.036 69.6543 240.106 69.693C240.176 69.7317 240.255 69.752 240.335 69.752C240.415 69.752 240.494 69.7317 240.564 69.693C240.634 69.6543 240.694 69.5984 240.736 69.5306L241.83 67.7073C241.877 67.6349 241.902 67.5513 241.905 67.4654C241.907 67.3794 241.886 67.2945 241.844 67.2195C241.802 67.1446 241.74 67.0826 241.666 67.04C241.591 66.9975 241.506 66.9761 241.42 66.978H239.004C238.921 66.9821 238.84 67.0076 238.77 67.052C238.699 67.0965 238.641 67.1585 238.602 67.2319C238.563 67.3053 238.543 67.3876 238.545 67.4709C238.546 67.5543 238.57 67.6357 238.612 67.7073Z" fill="#263238"/>
<path d="M177.514 91.9388C177.514 92.0664 163.767 92.1758 146.801 92.1758C129.835 92.1758 116.088 92.0664 116.088 91.9388C116.088 91.8112 129.835 91.7018 146.801 91.7018C163.767 91.7018 177.514 91.8021 177.514 91.9388Z" fill="#EBEBEB"/>
<path d="M177.514 111.484C177.514 111.612 163.767 111.722 146.801 111.722C129.835 111.722 116.088 111.612 116.088 111.484C116.088 111.357 129.835 111.247 146.801 111.247C163.767 111.247 177.514 111.357 177.514 111.484Z" fill="#EBEBEB"/>
<path d="M177.514 131.075C177.514 131.212 163.767 131.312 146.801 131.312C129.835 131.312 116.088 131.212 116.088 131.075C116.088 130.939 129.835 130.838 146.801 130.838C163.767 130.838 177.514 130.902 177.514 131.075Z" fill="#EBEBEB"/>
<path d="M177.514 91.9389H115.331V111.484H177.514V91.9389Z" fill="#FD391E"/>
<path d="M168.316 85.7851C168.316 85.9128 158.88 86.0222 147.248 86.0222C135.615 86.0222 126.171 85.9128 126.171 85.7851C126.171 85.6575 135.606 85.5481 147.248 85.5481C158.889 85.5481 168.316 85.6484 168.316 85.7851Z" fill="#263238"/>
<path d="M161.588 102.641C161.588 102.769 153.657 102.878 143.884 102.878C134.111 102.878 126.171 102.769 126.171 102.641C126.171 102.514 134.102 102.404 143.884 102.404C153.666 102.404 161.588 102.514 161.588 102.641Z" fill="white"/>
<path d="M168.316 121.257C168.316 121.394 158.88 121.494 147.248 121.494C135.615 121.494 126.171 121.394 126.171 121.257C126.171 121.12 135.606 121.02 147.248 121.02C158.889 121.02 168.316 121.129 168.316 121.257Z" fill="#263238"/>
<path d="M168.316 141.158C168.316 141.286 158.88 141.395 147.248 141.395C135.615 141.395 126.171 141.286 126.171 141.158C126.171 141.031 135.606 140.921 147.248 140.921C158.889 140.921 168.316 141.022 168.316 141.158Z" fill="#263238"/>
<path d="M166.985 104.246L168.808 102.915C168.874 102.872 168.928 102.813 168.966 102.744C169.003 102.675 169.023 102.597 169.023 102.518C169.023 102.44 169.003 102.362 168.966 102.293C168.928 102.224 168.874 102.165 168.808 102.122L166.985 101.019C166.912 100.976 166.829 100.952 166.744 100.951C166.659 100.95 166.576 100.972 166.502 101.013C166.428 101.055 166.366 101.115 166.323 101.188C166.28 101.261 166.257 101.344 166.256 101.429V103.854C166.26 103.937 166.285 104.018 166.33 104.088C166.374 104.159 166.436 104.217 166.51 104.256C166.583 104.296 166.665 104.315 166.749 104.314C166.832 104.312 166.913 104.288 166.985 104.246Z" fill="white"/>
<path d="M239.515 91.9389H177.569V169.939H239.515V91.9389Z" fill="#FAFAFA"/>
<path d="M239.524 169.929C239.524 169.929 239.524 169.802 239.524 169.556C239.524 169.31 239.524 168.936 239.524 168.462C239.524 167.486 239.524 166.064 239.524 164.223C239.524 160.503 239.524 155.106 239.469 148.242C239.469 134.567 239.405 115.076 239.36 91.9387L239.578 92.1484H177.587L177.824 91.9114C177.824 120.792 177.824 147.631 177.824 169.902L177.624 169.711L222.558 169.811L235.111 169.866H238.421H239.578H238.466H235.194L222.677 169.92L177.624 170.021H177.432V169.82C177.432 147.549 177.432 120.71 177.386 91.8293V91.5923H177.633H239.624H239.779V91.8111C239.733 115.003 239.697 134.521 239.67 148.26C239.67 155.088 239.624 160.485 239.615 164.177C239.615 166 239.615 167.413 239.615 168.38C239.615 168.845 239.615 169.2 239.615 169.446C239.615 169.692 239.524 169.929 239.524 169.929Z" fill="#EBEBEB"/>
<path d="M239.524 131.075C239.524 131.212 225.767 131.312 208.802 131.312C191.836 131.312 178.088 131.212 178.088 131.075C178.088 130.939 191.836 130.838 208.802 130.838C225.767 130.838 239.524 130.902 239.524 131.075Z" fill="#EBEBEB"/>
<path d="M239.524 151.35C239.524 151.487 225.767 151.587 208.802 151.587C191.836 151.587 178.088 151.487 178.088 151.35C178.088 151.214 191.836 151.132 208.783 151.132C225.731 151.132 239.524 151.223 239.524 151.35Z" fill="#EBEBEB"/>
<path d="M239.524 111.484C239.524 111.612 225.767 111.722 208.802 111.722C191.836 111.722 178.088 111.612 178.088 111.484C178.088 111.357 191.836 111.247 208.802 111.247C225.767 111.247 239.524 111.357 239.524 111.484Z" fill="#EBEBEB"/>
<path d="M230.316 102.641C230.316 102.769 220.881 102.878 209.248 102.878C197.616 102.878 188.18 102.769 188.18 102.641C188.18 102.514 197.607 102.404 209.248 102.404C220.89 102.404 230.316 102.514 230.316 102.641Z" fill="#263238"/>
<path d="M230.316 121.257C230.316 121.394 220.881 121.494 209.248 121.494C197.616 121.494 188.18 121.394 188.18 121.257C188.18 121.12 197.607 121.02 209.248 121.02C220.89 121.02 230.316 121.129 230.316 121.257Z" fill="#263238"/>
<path d="M239.633 150.147H177.45V170.467H239.633V150.147Z" fill="#FD391E"/>
<path d="M226.825 161.36C226.825 161.488 218.173 161.597 207.498 161.597C196.823 161.597 188.18 161.488 188.18 161.36C188.18 161.233 196.832 161.123 207.498 161.123C218.164 161.123 226.825 161.223 226.825 161.36Z" fill="white"/>
<path d="M230.316 141.158C230.316 141.286 220.881 141.395 209.248 141.395C197.616 141.395 188.18 141.286 188.18 141.158C188.18 141.031 197.607 140.921 209.248 140.921C220.89 140.921 230.316 141.022 230.316 141.158Z" fill="#263238"/>
<path d="M235.868 166.538L237.199 178.508L239.834 176.685L242.769 180.441L245.914 178.189L243.198 174.743L246.069 172.856L235.868 166.538Z" fill="#263238"/>
<path d="M236.589 164.633C236.656 163.922 236.877 163.235 237.236 162.618C237.719 161.561 238.202 160.795 238.321 160.795C238.254 161.506 238.033 162.193 237.673 162.81C237.19 163.895 236.707 164.688 236.589 164.633Z" fill="#263238"/>
<path d="M234.592 165.627C233.723 164.62 232.979 163.512 232.377 162.326C231.634 161.219 231.023 160.029 230.553 158.78C232.151 160.899 233.497 163.197 234.565 165.627H234.592Z" fill="#263238"/>
<path d="M233.115 167.277C232.461 167.376 231.794 167.358 231.146 167.222C230.482 167.24 229.82 167.135 229.195 166.912C229.83 166.662 230.524 166.605 231.191 166.748C231.87 166.737 232.537 166.921 233.115 167.277Z" fill="#263238"/>
<path d="M95.6855 353.561C95.5488 353.561 95.4485 285.927 95.4485 202.512C95.4485 119.097 95.5488 51.4438 95.6855 51.4438C95.8223 51.4438 95.9225 119.069 95.9225 202.512C95.9225 285.954 95.8132 353.561 95.6855 353.561Z" fill="#263238"/>
<path d="M243.216 221.802C243.216 221.939 215.202 222.039 180.66 222.039C146.118 222.039 118.094 221.939 118.094 221.802C118.094 221.665 146.099 221.565 180.66 221.565C215.22 221.565 243.216 221.674 243.216 221.802Z" fill="#E0E0E0"/>
<path d="M243.216 193.505C243.216 193.632 215.202 193.742 180.66 193.742C146.118 193.742 118.094 193.632 118.094 193.505C118.094 193.377 146.099 193.268 180.66 193.268C215.22 193.268 243.216 193.368 243.216 193.505Z" fill="#E0E0E0"/>
<path d="M243.216 246.689C243.216 246.817 215.202 246.926 180.66 246.926C146.118 246.926 118.094 246.817 118.094 246.689C118.094 246.562 146.099 246.452 180.66 246.452C215.22 246.452 243.216 246.553 243.216 246.689Z" fill="#E0E0E0"/>
<path d="M243.216 273.492C243.216 273.629 215.202 273.729 180.66 273.729C146.118 273.729 118.094 273.629 118.094 273.492C118.094 273.355 146.099 273.255 180.66 273.255C215.22 273.255 243.216 273.364 243.216 273.492Z" fill="#E0E0E0"/>
<path d="M243.216 300.303C243.216 300.431 215.202 300.54 180.66 300.54C146.118 300.54 118.094 300.431 118.094 300.303C118.094 300.176 146.099 300.066 180.66 300.066C215.22 300.066 243.216 300.176 243.216 300.303Z" fill="#E0E0E0"/>
<path d="M234.2 68.3364C234.2 68.4641 225.831 68.5735 215.521 68.5735C205.21 68.5735 196.832 68.4641 196.832 68.3364C196.832 68.2088 205.192 68.0994 215.521 68.0994C225.85 68.0994 234.2 68.1723 234.2 68.3364Z" fill="#263238"/>
</svg>
