<svg width="207" height="424" viewBox="0 0 207 424" fill="none" xmlns="http://www.w3.org/2000/svg">
<path d="M175.009 423.633L31.2936 423.552C22.9922 423.546 15.0326 420.245 9.16445 414.373C3.29634 408.501 -1.73437e-06 400.539 0 392.238L0.0708378 31.9365C0.0895996 23.6278 3.4034 15.6657 9.28524 9.79715C15.1671 3.92859 23.1366 0.632791 31.4454 0.632813L175.161 0.7239C183.463 0.729266 191.422 4.03076 197.29 9.90266C203.158 15.7746 206.455 23.7363 206.455 32.0377L206.384 392.339C206.384 396.455 205.572 400.531 203.994 404.333C202.416 408.135 200.104 411.589 197.19 414.496C194.275 417.403 190.816 419.706 187.01 421.274C183.204 422.842 179.126 423.643 175.009 423.633Z" fill="#263238"/>
<path d="M174.959 13.4252H147.097C145.26 13.4676 143.515 14.2377 142.245 15.5661C140.976 16.8945 140.285 18.6727 140.326 20.5098V25.5702C140.367 27.4073 139.676 29.1854 138.407 30.5138C137.137 31.8422 135.392 32.6123 133.555 32.6547H79.2367C77.4015 32.6096 75.659 31.8384 74.3916 30.5103C73.1242 29.1822 72.4353 27.4055 72.476 25.5702V20.5098C72.5168 18.6727 71.8265 16.8945 70.5569 15.5661C69.2873 14.2377 67.5423 13.4676 65.7052 13.4252H31.5171C25.7136 13.4198 20.1447 15.7159 16.0316 19.8101C11.9184 23.9043 9.59654 29.4625 9.57511 35.2659L9.50427 386.985C9.51499 392.793 11.829 398.359 15.9387 402.463C20.0483 406.567 25.6181 408.873 31.426 408.876L174.868 408.957C177.749 408.958 180.601 408.392 183.262 407.292C185.924 406.191 188.342 404.576 190.38 402.541C192.417 400.505 194.034 398.088 195.137 395.428C196.24 392.767 196.809 389.916 196.81 387.035L196.871 35.3165C196.863 29.5095 194.551 23.943 190.443 19.8387C186.335 15.7345 180.766 13.4279 174.959 13.4252Z" fill="white"/>
<path d="M196.859 87.3477V34.9522C196.756 29.2104 194.404 23.7384 190.308 19.7128C186.212 15.6872 180.701 13.4296 174.958 13.4252H147.095C146.185 13.4449 145.288 13.6439 144.455 14.0107C143.622 14.3776 142.87 14.9052 142.241 15.5632C141.612 16.2213 141.119 16.9969 140.79 17.8457C140.461 18.6945 140.303 19.5998 140.325 20.5098V25.5702C140.365 27.4073 139.675 29.1854 138.405 30.5138C137.136 31.8422 135.391 32.6123 133.554 32.6547H79.2352C77.3999 32.6096 75.6575 31.8384 74.3901 30.5103C73.1226 29.1822 72.4338 27.4055 72.4745 25.5702V20.5098C72.5153 18.6727 71.825 16.8945 70.5554 15.5661C69.2858 14.2377 67.5407 13.4676 65.7037 13.4252H31.5156C25.7121 13.4198 20.1432 15.7159 16.0301 19.8101C11.9169 23.9043 9.59504 29.4625 9.57361 35.2659V87.5096H196.859V87.3477Z" fill="#EBEBEB"/>
<path d="M47.7703 158.417C60.3077 158.417 70.4713 148.276 70.4713 135.766C70.4713 123.257 60.3077 113.116 47.7703 113.116C35.2329 113.116 25.0693 123.257 25.0693 135.766C25.0693 148.276 35.2329 158.417 47.7703 158.417Z" fill="#E0E0E0"/>
<path d="M37.1628 141.434L43.1139 140.928L57.6272 143.377L59.3376 154.297L59.0947 155.572C55.8254 157.418 52.1515 158.428 48.3984 158.515C44.6453 158.601 40.9287 157.761 37.5778 156.068L37.1628 141.434Z" fill="#263238"/>
<path d="M54.5208 143.205C55.9599 142.995 57.4293 143.194 58.7608 143.779C60.0923 144.364 61.2323 145.312 62.0506 146.514C63.034 147.888 63.9364 149.317 64.7529 150.796C62.3846 153.366 60.4617 155.32 57.1825 156.463L54.5208 143.205Z" fill="#263238"/>
<path d="M37.1636 141.433C37.1636 141.433 33.2368 141.919 31.7186 145.269C30.2005 148.619 29.8463 149.662 29.8463 149.662C31.8705 152.111 34.4614 155.005 37.6292 156.088C37.6292 156.088 38.3478 147.648 38.4389 145.269C38.5502 142.698 38.6514 141.362 37.1636 141.433Z" fill="#263238"/>
<path d="M40.7461 119.978C41.7353 118.71 42.9964 117.682 44.4363 116.967C45.8761 116.252 47.4581 115.87 49.0655 115.848C50.4475 115.848 51.8185 116.095 53.1138 116.577C54.4775 116.9 55.6825 117.696 56.5144 118.824C57.5463 120.15 58.2222 121.718 58.4778 123.378C58.7154 125.078 58.7967 126.795 58.7207 128.509C58.6378 130.236 58.081 131.906 57.1115 133.337L52.7494 134.086C50.3443 134.278 47.9244 134.149 45.5535 133.701C43.1565 133.241 41.039 131.851 39.6632 129.835C37.9123 126.991 38.641 122.568 40.7461 119.978Z" fill="#263238"/>
<path d="M36.5357 132.578C36.5802 132.084 36.7364 131.607 36.9924 131.183C37.2484 130.759 37.5975 130.398 38.0133 130.129C38.4389 129.873 38.9347 129.759 39.4293 129.802C39.9239 129.846 40.392 130.045 40.7662 130.372L41.4545 131.181C41.9855 131.427 42.4268 131.832 42.717 132.339C43.0073 132.847 43.1319 133.433 43.0738 134.015C42.9983 134.598 42.7554 135.146 42.3745 135.593C41.9937 136.041 41.4913 136.368 40.9282 136.535C40.3653 136.695 39.7708 136.707 39.2018 136.571C38.6329 136.434 38.1086 136.154 37.6794 135.756C37.2582 135.349 36.9361 134.851 36.7378 134.3C36.5396 133.749 36.4704 133.16 36.5357 132.578Z" fill="#263238"/>
<path d="M37.3971 135.554C37.2335 135.297 37.1522 134.997 37.1644 134.693C37.3101 133.957 37.6609 133.276 38.1764 132.73C38.665 132.156 39.2595 131.682 39.9274 131.333C40.4334 131.06 40.7876 130.959 40.7775 130.928C40.4544 130.952 40.1402 131.045 39.8565 131.202C39.143 131.519 38.5125 131.997 38.0145 132.598C37.7352 132.903 37.497 133.244 37.3061 133.61C37.1404 133.924 37.0437 134.269 37.0227 134.622C37.0181 134.866 37.085 135.105 37.215 135.311C37.3061 135.513 37.3971 135.614 37.3971 135.554Z" fill="#263238"/>
<path d="M52.7091 142.425V138.377C52.7091 138.377 56.2615 137.982 57.2534 133.428C57.7196 130.415 57.9026 127.366 57.7999 124.319C57.7999 121.556 55.4215 117.791 52.0007 117.781L50.4825 117.599L44.6631 119.907C44.2588 119.929 43.8774 120.101 43.593 120.389C43.3086 120.677 43.1417 121.061 43.1247 121.465L42.9526 140.907L45.6144 144.642C46.1017 145.301 46.7833 145.792 47.5635 146.045C48.3437 146.297 49.1834 146.299 49.9648 146.05C50.7462 145.801 51.4301 145.314 51.9204 144.657C52.4108 143.999 52.683 143.205 52.699 142.385L52.7091 142.425Z" fill="#FFBE9D"/>
<path d="M50.3924 132.376C50.424 132.141 50.5433 131.928 50.7264 131.778C50.893 131.639 51.1 131.557 51.3169 131.544C51.5338 131.531 51.7491 131.589 51.9308 131.708C52.1168 131.853 52.2615 132.044 52.3503 132.262C52.4392 132.481 52.469 132.719 52.4369 132.953C52.3355 133.093 52.2056 133.211 52.0556 133.298C51.9056 133.385 51.739 133.44 51.5665 133.459H51.4045C51.2704 133.462 51.1368 133.439 51.0117 133.39C50.8866 133.341 50.7724 133.268 50.6758 133.175C50.5736 133.07 50.4953 132.945 50.4463 132.807C50.3974 132.668 50.379 132.521 50.3924 132.376Z" fill="#EB996E"/>
<path d="M55.685 127.518C55.6797 127.672 55.6142 127.817 55.5025 127.923C55.3908 128.029 55.2419 128.087 55.0879 128.084C55.0121 128.086 54.9368 128.072 54.8663 128.044C54.7958 128.017 54.7315 127.975 54.677 127.923C54.6225 127.87 54.5789 127.807 54.5486 127.738C54.5184 127.668 54.5022 127.593 54.5009 127.518C54.5087 127.363 54.5765 127.217 54.6898 127.111C54.8031 127.006 54.9531 126.948 55.1081 126.951C55.1834 126.95 55.2582 126.963 55.3281 126.991C55.3981 127.019 55.4618 127.061 55.5155 127.113C55.5692 127.166 55.6118 127.229 55.6409 127.298C55.67 127.368 55.685 127.442 55.685 127.518Z" fill="#263238"/>
<path d="M56.6568 126.06C56.5759 126.131 56.1406 125.777 55.5131 125.747C54.8856 125.716 54.3897 126.01 54.329 125.929C54.2683 125.848 54.3796 125.757 54.5921 125.615C54.8788 125.444 55.2102 125.363 55.5435 125.382C55.8733 125.395 56.1898 125.516 56.4443 125.726C56.6265 125.888 56.6872 126.03 56.6568 126.06Z" fill="#263238"/>
<path d="M52.6593 130.857C52.9911 130.779 53.3305 130.739 53.6713 130.736C53.8333 130.736 53.9952 130.736 54.0255 130.594C54.0483 130.428 54.0201 130.258 53.9446 130.108L53.5297 128.853C53.143 127.782 52.8418 126.683 52.6289 125.564C53.102 126.601 53.4912 127.674 53.7928 128.772C53.9345 129.208 54.0559 129.633 54.1875 130.037C54.2728 130.239 54.2906 130.463 54.2381 130.675C54.1765 130.784 54.0747 130.864 53.9547 130.898C53.8639 130.907 53.7723 130.907 53.6815 130.898C53.3405 130.931 52.9966 130.917 52.6593 130.857Z" fill="#263238"/>
<path d="M52.6885 138.387C50.5156 138.289 48.4129 137.589 46.616 136.363C46.616 136.363 48.0835 139.632 52.6885 139.46V138.387Z" fill="#EB996E"/>
<path d="M50.7658 131.201C50.8771 131.201 50.8366 131.89 51.4034 132.406C51.9702 132.922 52.6989 132.892 52.6989 132.983C52.6989 133.074 52.5268 133.114 52.2232 133.104C51.8184 133.086 51.4324 132.929 51.1301 132.659C50.8448 132.396 50.671 132.034 50.6443 131.647C50.6342 131.353 50.7253 131.191 50.7658 131.201Z" fill="#263238"/>
<path d="M56.5248 123.672C56.4135 123.823 55.9277 123.672 55.3609 123.672C54.7941 123.672 54.3488 123.813 54.197 123.672C54.0451 123.53 54.197 123.449 54.4196 123.307C54.6987 123.132 55.0211 123.037 55.3507 123.034C55.6824 123.025 56.0094 123.113 56.292 123.287C56.5045 123.469 56.5754 123.601 56.5248 123.672Z" fill="#263238"/>
<path d="M48.7212 127.518C48.7183 127.673 48.7759 127.823 48.8816 127.936C48.9874 128.05 49.1331 128.117 49.2879 128.125C49.3632 128.132 49.4391 128.124 49.5111 128.101C49.5832 128.078 49.6499 128.041 49.7075 127.992C49.765 127.943 49.8121 127.883 49.8461 127.815C49.8801 127.748 49.9002 127.674 49.9052 127.599C49.9054 127.446 49.8467 127.298 49.7412 127.187C49.6358 127.076 49.4915 127.01 49.3385 127.002C49.2638 126.993 49.1881 127 49.1161 127.022C49.0441 127.044 48.9772 127.08 48.9195 127.128C48.8618 127.176 48.8145 127.236 48.7804 127.303C48.7463 127.37 48.7262 127.443 48.7212 127.518Z" fill="#263238"/>
<path d="M47.9521 125.838C48.0229 125.919 48.4784 125.595 49.116 125.605C49.7536 125.615 50.2091 125.939 50.2799 125.868C50.3508 125.797 50.2799 125.696 50.037 125.544C49.767 125.346 49.4407 125.24 49.1059 125.24C48.7775 125.23 48.4545 125.326 48.1849 125.514C47.9825 125.666 47.9116 125.797 47.9521 125.838Z" fill="#263238"/>
<path d="M47.5877 124.481C47.7091 124.633 48.205 124.481 48.792 124.481C49.3791 124.481 49.875 124.603 49.9964 124.481C50.1179 124.36 49.9964 124.259 49.7535 124.117C49.4588 123.944 49.1234 123.853 48.7819 123.853C48.4404 123.853 48.105 123.944 47.8103 124.117C47.5978 124.259 47.5269 124.4 47.5877 124.481Z" fill="#263238"/>
<path d="M43.8949 129.228C43.8949 128.884 43.571 128.054 43.2269 127.983C42.3362 127.791 40.7067 127.781 40.565 130.068C40.3727 133.195 43.6014 132.74 43.6014 132.649C43.6014 132.558 43.8341 130.402 43.8949 129.228Z" fill="#FFBE9D"/>
<path d="M42.7704 131.455C42.7704 131.455 42.7198 131.455 42.6186 131.525C42.5546 131.553 42.4857 131.567 42.4162 131.567C42.3466 131.567 42.2778 131.553 42.2138 131.525C42.0177 131.385 41.8628 131.194 41.7649 130.973C41.6671 130.753 41.6299 130.51 41.6571 130.27C41.669 130.002 41.7381 129.74 41.8596 129.501C41.8958 129.406 41.9542 129.32 42.0298 129.252C42.1055 129.183 42.1962 129.133 42.2947 129.106C42.359 129.093 42.4261 129.102 42.4837 129.134C42.5413 129.166 42.5856 129.217 42.6085 129.279C42.6157 129.329 42.6157 129.38 42.6085 129.43C42.6085 129.43 42.6793 129.43 42.6591 129.258C42.6464 129.18 42.6071 129.108 42.5478 129.056C42.5093 129.018 42.4631 128.99 42.4123 128.972C42.3616 128.955 42.3076 128.949 42.2542 128.955C42.1248 128.971 42.0019 129.021 41.8973 129.099C41.7927 129.177 41.71 129.281 41.6571 129.4C41.5071 129.663 41.4238 129.958 41.4142 130.26C41.3799 130.539 41.4289 130.821 41.555 131.071C41.6811 131.322 41.8786 131.529 42.1227 131.667C42.2058 131.695 42.2939 131.705 42.3812 131.696C42.4684 131.688 42.5528 131.66 42.6287 131.616C42.7704 131.566 42.7704 131.465 42.7704 131.455Z" fill="#EB996E"/>
<path d="M43.1048 127.994L43.8942 128.813C47.3353 125.534 54.0656 117.306 53.6912 117.792C52.1204 117.212 50.4303 117.031 48.7724 117.265C46.2119 117.701 41.364 118.976 41.4349 121.982C41.5855 124.077 42.1533 126.121 43.1048 127.994Z" fill="#263238"/>
<path d="M38.55 127.305C38.55 127.305 38.55 127.234 38.55 127.123C38.6096 126.953 38.6806 126.787 38.7626 126.627C39.0877 126.047 39.537 125.545 40.0783 125.159C40.8801 124.587 41.7734 124.156 42.7199 123.884C43.7319 123.55 44.9464 123.287 46.1103 122.791C48.1016 121.95 49.8996 120.71 51.3934 119.147C51.8431 118.672 52.2655 118.172 52.6585 117.65L52.9722 117.214C53.0064 117.162 53.0472 117.114 53.0937 117.073L53.0026 117.235C52.9317 117.336 52.8407 117.498 52.7091 117.69C52.3317 118.229 51.9193 118.743 51.4744 119.228C50.809 119.944 50.077 120.595 49.2883 121.172C48.3232 121.881 47.2766 122.472 46.171 122.933C45.0554 123.36 43.9167 123.725 42.7603 124.026C41.8279 124.286 40.9454 124.7 40.1492 125.25C39.6125 125.62 39.1605 126.099 38.8233 126.657C38.7164 126.866 38.625 127.082 38.55 127.305Z" fill="#263238"/>
<path d="M39.4614 127.791C39.4537 127.559 39.495 127.328 39.5828 127.113C39.8166 126.513 40.2258 125.998 40.7568 125.635C41.5542 125.126 42.4455 124.782 43.3781 124.623C44.4959 124.41 45.5858 124.07 46.6269 123.611C47.6623 123.14 48.6347 122.542 49.5215 121.83C50.2571 121.245 50.9349 120.591 51.5456 119.876C51.9477 119.396 52.3163 118.889 52.6488 118.358C52.7601 118.186 52.8512 118.034 52.9119 117.923C52.9433 117.868 52.9807 117.817 53.0233 117.771C53.0017 117.828 52.9745 117.882 52.9423 117.933L52.6994 118.388C52.3886 118.939 52.0296 119.46 51.6266 119.947C51.0285 120.694 50.3497 121.373 49.6024 121.971C48.7073 122.698 47.7247 123.31 46.6775 123.793C45.6238 124.256 44.5201 124.596 43.3882 124.805C42.4719 124.977 41.5962 125.32 40.8074 125.817C40.2827 126.159 39.8707 126.649 39.6233 127.224C39.5528 127.408 39.4986 127.597 39.4614 127.791Z" fill="#263238"/>
<path d="M37.6296 156.069C37.4811 154.074 37.4811 152.071 37.6296 150.077C37.7646 152.072 37.7646 154.074 37.6296 156.069Z" fill="#263238"/>
<path d="M59.1063 155.643C59.0799 155.306 59.0799 154.968 59.1063 154.631C59.1671 153.787 59.1365 152.939 59.0152 152.101C58.8577 151.265 58.6135 150.447 58.2865 149.662C58.1333 149.337 58.0113 148.998 57.9221 148.65C58.12 148.945 58.2863 149.261 58.418 149.591C58.7929 150.372 59.0618 151.199 59.2176 152.05C59.3382 152.906 59.3382 153.775 59.2176 154.631C59.2233 154.972 59.1859 155.312 59.1063 155.643Z" fill="#263238"/>
<path d="M168.349 164.529H90.9755C89.1323 164.527 87.3653 163.793 86.0619 162.49C84.7585 161.187 84.0252 159.42 84.0225 157.576V125.089L75.4906 117.518H168.349C169.267 117.511 170.178 117.687 171.028 118.034C171.878 118.381 172.651 118.893 173.302 119.54C173.953 120.188 174.47 120.958 174.822 121.806C175.174 122.654 175.354 123.563 175.353 124.481V157.576C175.351 158.493 175.169 159.401 174.816 160.247C174.463 161.094 173.946 161.862 173.295 162.508C172.645 163.154 171.873 163.665 171.024 164.012C170.175 164.359 169.266 164.535 168.349 164.529Z" fill="#EBEBEB"/>
<path d="M163.047 169.793C160.302 170.053 157.544 170.141 154.788 170.056C152.036 170.141 149.281 170.053 146.54 169.793C149.281 169.532 152.036 169.444 154.788 169.529C157.544 169.444 160.302 169.532 163.047 169.793Z" fill="#E0E0E0"/>
<path d="M166.457 170.44C166.422 170.44 166.389 170.432 166.357 170.418C166.326 170.404 166.298 170.384 166.275 170.359L164.675 168.689C164.629 168.642 164.603 168.578 164.603 168.512C164.603 168.446 164.629 168.382 164.675 168.335C164.698 168.311 164.726 168.291 164.756 168.278C164.787 168.265 164.819 168.258 164.853 168.258C164.886 168.258 164.919 168.265 164.949 168.278C164.98 168.291 165.007 168.311 165.03 168.335L166.447 169.813L169.554 166.655C169.576 166.631 169.604 166.611 169.634 166.598C169.665 166.585 169.698 166.578 169.731 166.578C169.764 166.578 169.797 166.585 169.827 166.598C169.858 166.611 169.885 166.631 169.908 166.655C169.954 166.702 169.98 166.766 169.98 166.832C169.98 166.898 169.954 166.962 169.908 167.009L166.619 170.359C166.575 170.402 166.518 170.431 166.457 170.44Z" fill="#FD391E"/>
<path d="M168.734 170.39H168.44C168.373 170.39 168.309 170.363 168.261 170.316C168.214 170.268 168.187 170.204 168.187 170.137C168.194 170.07 168.224 170.008 168.273 169.962C168.321 169.916 168.384 169.888 168.45 169.884H168.632L171.841 166.615C171.864 166.59 171.893 166.571 171.924 166.557C171.955 166.544 171.989 166.537 172.023 166.537C172.057 166.537 172.091 166.544 172.122 166.557C172.153 166.571 172.182 166.59 172.205 166.615C172.251 166.662 172.277 166.726 172.277 166.792C172.277 166.858 172.251 166.922 172.205 166.969L168.916 170.309C168.893 170.335 168.865 170.356 168.834 170.37C168.802 170.384 168.768 170.391 168.734 170.39Z" fill="#FD391E"/>
<path d="M163.047 296.981C160.302 297.242 157.544 297.33 154.788 297.244C152.036 297.329 149.281 297.241 146.54 296.981C149.281 296.72 152.036 296.633 154.788 296.718C157.544 296.632 160.302 296.72 163.047 296.981Z" fill="#E0E0E0"/>
<path d="M166.457 297.628C166.418 297.632 166.378 297.627 166.341 297.613C166.304 297.599 166.271 297.577 166.244 297.547L164.645 295.878C164.617 295.855 164.594 295.827 164.578 295.794C164.561 295.762 164.552 295.727 164.551 295.69C164.549 295.654 164.555 295.618 164.569 295.585C164.583 295.551 164.603 295.521 164.63 295.496C164.656 295.471 164.687 295.452 164.721 295.441C164.756 295.429 164.792 295.425 164.828 295.428C164.864 295.432 164.899 295.443 164.93 295.461C164.962 295.479 164.989 295.504 165.01 295.533L166.426 297.011L169.534 293.853C169.556 293.829 169.584 293.81 169.614 293.797C169.645 293.784 169.677 293.777 169.711 293.777C169.744 293.777 169.777 293.784 169.807 293.797C169.838 293.81 169.865 293.829 169.888 293.853C169.934 293.901 169.96 293.964 169.96 294.031C169.96 294.097 169.934 294.16 169.888 294.208L166.639 297.547C166.59 297.595 166.525 297.624 166.457 297.628Z" fill="#FD391E"/>
<path d="M168.734 297.548H168.44C168.372 297.545 168.308 297.516 168.261 297.467C168.213 297.418 168.187 297.352 168.187 297.284C168.187 297.251 168.194 297.217 168.207 297.187C168.221 297.156 168.241 297.128 168.265 297.105C168.29 297.082 168.319 297.065 168.351 297.054C168.383 297.043 168.417 297.039 168.45 297.042H168.632L171.841 293.773C171.864 293.748 171.893 293.729 171.924 293.715C171.955 293.702 171.989 293.695 172.023 293.695C172.057 293.695 172.091 293.702 172.122 293.715C172.153 293.729 172.182 293.748 172.205 293.773C172.251 293.82 172.277 293.883 172.277 293.95C172.277 294.016 172.251 294.079 172.205 294.127L168.916 297.467C168.893 297.493 168.865 297.514 168.834 297.528C168.802 297.542 168.768 297.548 168.734 297.548Z" fill="#FD391E"/>
<path d="M167.357 126.819C167.357 126.961 150.466 127.082 129.627 127.082C108.788 127.082 91.9066 126.961 91.9066 126.819C91.9066 126.677 108.788 126.556 129.627 126.556C150.466 126.556 167.357 126.667 167.357 126.819Z" fill="white"/>
<path d="M167.357 132.355C167.357 132.507 150.466 132.618 129.627 132.618C108.788 132.618 91.9066 132.507 91.9066 132.355C91.9066 132.203 108.788 132.092 129.627 132.092C150.466 132.092 167.357 132.213 167.357 132.355Z" fill="white"/>
<path d="M167.357 137.901C167.357 138.043 150.466 138.164 129.627 138.164C108.788 138.164 91.9066 138.043 91.9066 137.901C91.9066 137.76 108.788 137.638 129.627 137.638C150.466 137.638 167.357 137.76 167.357 137.901Z" fill="white"/>
<path d="M47.7703 299.673C60.3077 299.673 70.4713 289.532 70.4713 277.022C70.4713 264.513 60.3077 254.372 47.7703 254.372C35.2329 254.372 25.0693 264.513 25.0693 277.022C25.0693 289.532 35.2329 299.673 47.7703 299.673Z" fill="#E0E0E0"/>
<path d="M37.1628 282.69L43.1139 282.184L57.6272 284.633L59.3376 295.523L59.0947 296.788C55.8262 298.636 52.1521 299.648 48.3985 299.735C44.6448 299.821 40.9279 298.979 37.5778 297.284L37.1628 282.66" fill="#263238"/>
<path d="M54.5208 284.451C55.9598 284.243 57.4283 284.443 58.7593 285.028C60.0904 285.613 61.2307 286.56 62.0506 287.761C63.0358 289.136 63.9382 290.569 64.7529 292.052C62.3846 294.623 60.4617 296.576 57.1825 297.709L54.5208 284.451Z" fill="#263238"/>
<path d="M37.1636 282.69C37.1636 282.69 33.2368 283.166 31.7186 286.516C30.2005 289.866 29.8463 290.918 29.8463 290.918C31.8705 293.358 34.4614 296.252 37.6292 297.335C37.6292 297.335 38.3478 288.904 38.4389 286.516C38.5502 283.905 38.6514 282.609 37.1636 282.69Z" fill="#263238"/>
<path d="M40.7461 261.234C41.7338 259.965 42.9946 258.935 44.4348 258.221C45.875 257.506 47.4577 257.124 49.0654 257.105C50.4473 257.097 51.8191 257.34 53.1137 257.824C54.4743 258.154 55.677 258.948 56.5143 260.07C57.5443 261.397 58.22 262.965 58.4778 264.625C58.7151 266.328 58.7964 268.048 58.7207 269.766C58.6395 271.49 58.0825 273.157 57.1115 274.584L52.7494 275.343C50.3442 275.53 47.925 275.4 45.5535 274.958C43.1565 274.498 41.0389 273.108 39.6632 271.092C37.9123 268.197 38.641 263.815 40.7461 261.234Z" fill="#263238"/>
<path d="M36.5357 273.875C36.5787 273.381 36.7343 272.904 36.9904 272.479C37.2465 272.055 37.5964 271.694 38.0133 271.426C38.4373 271.167 38.9328 271.05 39.4278 271.092C39.9227 271.134 40.3915 271.333 40.7661 271.659L41.4544 272.479C41.9863 272.723 42.4285 273.127 42.7189 273.636C43.0093 274.144 43.1334 274.73 43.0737 275.312C42.991 275.892 42.7455 276.437 42.3657 276.883C41.986 277.329 41.4874 277.658 40.9281 277.833C40.3642 277.99 39.7695 278 39.2007 277.862C38.6319 277.724 38.108 277.442 37.6793 277.043C37.2584 276.638 36.9363 276.142 36.738 275.593C36.5396 275.043 36.4704 274.456 36.5357 273.875Z" fill="#263238"/>
<path d="M37.397 276.81C37.2349 276.549 37.1539 276.246 37.1643 275.939C37.3102 275.206 37.6611 274.528 38.1763 273.986C38.662 273.409 39.2571 272.935 39.9273 272.589C40.4333 272.316 40.7875 272.215 40.7774 272.174C40.4554 272.204 40.1425 272.297 39.8564 272.448C39.1467 272.771 38.5175 273.248 38.0144 273.844C37.7336 274.17 37.4955 274.531 37.306 274.917C37.1391 275.23 37.0424 275.575 37.0226 275.929C37.0192 276.172 37.086 276.411 37.2149 276.617C37.306 276.769 37.397 276.82 37.397 276.81Z" fill="#263238"/>
<path d="M52.729 284.046V279.998C52.729 279.998 56.2815 279.603 57.2733 275.059C57.7389 272.047 57.9219 268.997 57.8198 265.95C57.8198 263.187 55.4415 259.423 52.0206 259.412L50.5025 259.24L44.683 261.548C44.278 261.568 43.8952 261.739 43.6103 262.028C43.3255 262.316 43.1593 262.701 43.1446 263.107L42.9725 282.538L45.6343 286.273C46.1216 286.933 46.8032 287.423 47.5834 287.676C48.3636 287.928 49.2034 287.93 49.9847 287.681C50.7661 287.432 51.45 286.945 51.9404 286.288C52.4307 285.63 52.7029 284.836 52.7189 284.016L52.729 284.046Z" fill="#FFBE9D"/>
<path d="M50.392 273.632C50.4235 273.398 50.5429 273.184 50.726 273.035C50.8926 272.895 51.0996 272.813 51.3165 272.8C51.5334 272.788 51.7486 272.845 51.9304 272.964C52.1164 273.109 52.2611 273.3 52.3499 273.519C52.4387 273.737 52.4685 273.975 52.4364 274.209C52.3345 274.348 52.2043 274.464 52.0543 274.55C51.9043 274.635 51.7379 274.688 51.5661 274.705H51.4041C51.1336 274.699 50.8746 274.594 50.6754 274.411C50.5718 274.312 50.4924 274.19 50.4433 274.054C50.3941 273.919 50.3766 273.775 50.392 273.632Z" fill="#EB996E"/>
<path d="M55.685 269.209C55.6662 269.353 55.5957 269.485 55.4868 269.58C55.3779 269.676 55.2379 269.729 55.0929 269.729C54.948 269.729 54.808 269.676 54.6991 269.58C54.5901 269.485 54.5197 269.353 54.5009 269.209C54.5087 269.054 54.5765 268.909 54.6898 268.803C54.8031 268.697 54.9531 268.639 55.1081 268.642C55.1834 268.641 55.2582 268.655 55.3281 268.683C55.3981 268.71 55.4618 268.752 55.5155 268.805C55.5692 268.857 55.6118 268.92 55.6409 268.99C55.67 269.059 55.685 269.134 55.685 269.209Z" fill="#263238"/>
<path d="M56.6568 267.701C56.5759 267.772 56.1406 267.418 55.5131 267.388C54.8856 267.357 54.3897 267.641 54.329 267.56C54.2683 267.479 54.3796 267.388 54.5921 267.256C54.8751 267.076 55.2094 266.994 55.5435 267.023C55.8733 267.036 56.1898 267.157 56.4443 267.367C56.6265 267.529 56.6872 267.671 56.6568 267.701Z" fill="#263238"/>
<path d="M52.6593 272.498C52.9911 272.419 53.3303 272.375 53.6713 272.367C53.8333 272.367 53.9952 272.367 54.0255 272.225C54.0477 272.059 54.0195 271.889 53.9446 271.739C53.813 271.344 53.6713 270.929 53.5297 270.484C53.1451 269.416 52.8439 268.32 52.6289 267.205C53.1031 268.238 53.4924 269.307 53.7928 270.403C53.9345 270.848 54.0559 271.263 54.1875 271.668C54.2728 271.87 54.2906 272.093 54.2381 272.306C54.2106 272.362 54.1709 272.411 54.1218 272.45C54.0728 272.488 54.0156 272.515 53.9547 272.529C53.8641 272.542 53.772 272.542 53.6815 272.529C53.3409 272.565 52.9971 272.554 52.6593 272.498Z" fill="#263238"/>
<path d="M52.6885 280.018C50.521 279.934 48.4192 279.251 46.616 278.045C46.616 278.045 48.0835 281.314 52.6885 281.142V280.018Z" fill="#EB996E"/>
<path d="M50.7658 272.833C50.8771 272.833 50.8366 273.521 51.4034 274.047C51.9702 274.573 52.6989 274.533 52.6989 274.624C52.6989 274.715 52.5268 274.745 52.2232 274.745C51.8164 274.728 51.4291 274.566 51.1301 274.29C50.8414 274.03 50.6668 273.666 50.6443 273.278C50.6342 272.994 50.7253 272.833 50.7658 272.833Z" fill="#263238"/>
<path d="M56.5248 265.313C56.4135 265.464 55.9277 265.313 55.3609 265.313C54.7941 265.313 54.3488 265.454 54.197 265.313C54.0451 265.171 54.197 265.09 54.4196 264.948C54.6966 264.768 55.0203 264.673 55.3507 264.675C55.683 264.661 56.0114 264.75 56.292 264.928C56.5045 265.09 56.5754 265.242 56.5248 265.313Z" fill="#263238"/>
<path d="M48.7212 269.128C48.7184 269.282 48.7763 269.431 48.8823 269.543C48.9883 269.655 49.134 269.72 49.2879 269.725C49.3626 269.734 49.4383 269.727 49.5103 269.705C49.5823 269.684 49.6492 269.648 49.7069 269.599C49.7646 269.551 49.8119 269.492 49.846 269.425C49.8801 269.358 49.9002 269.284 49.9052 269.209C49.9081 269.054 49.8505 268.904 49.7448 268.791C49.639 268.678 49.4933 268.61 49.3385 268.602C49.2632 268.595 49.1873 268.603 49.1153 268.626C49.0432 268.649 48.9765 268.686 48.919 268.735C48.8614 268.784 48.8143 268.844 48.7803 268.912C48.7464 268.979 48.7262 269.053 48.7212 269.128Z" fill="#263238"/>
<path d="M47.9521 267.468C48.0229 267.549 48.4784 267.225 49.116 267.246C49.7536 267.266 50.2091 267.58 50.2799 267.499C50.3508 267.418 50.2799 267.327 50.037 267.175C49.7648 266.981 49.44 266.875 49.1059 266.871C48.7771 266.869 48.4554 266.968 48.1849 267.155C47.9825 267.296 47.9116 267.438 47.9521 267.468Z" fill="#263238"/>
<path d="M47.5877 266.112C47.7091 266.254 48.205 266.112 48.792 266.112C49.3791 266.112 49.875 266.223 49.9964 266.112C50.1179 266.001 49.9964 265.9 49.7535 265.758C49.4588 265.585 49.1234 265.494 48.7819 265.494C48.4404 265.494 48.105 265.585 47.8103 265.758C47.5978 265.889 47.5269 266.041 47.5877 266.112Z" fill="#263238"/>
<path d="M43.8949 270.474C43.8949 270.13 43.571 269.31 43.2269 269.24C42.3362 269.047 40.7067 269.027 40.565 271.314C40.3727 274.442 43.6014 273.996 43.6014 273.905C43.6014 273.814 43.8341 271.658 43.8949 270.474Z" fill="#FFBE9D"/>
<path d="M42.7709 272.711C42.7709 272.711 42.7203 272.711 42.6191 272.782C42.4887 272.832 42.3446 272.832 42.2142 272.782C42.019 272.643 41.8645 272.454 41.7666 272.235C41.6687 272.016 41.6311 271.775 41.6576 271.537C41.6682 271.269 41.7373 271.006 41.86 270.768C41.8963 270.672 41.9547 270.587 42.0303 270.518C42.1059 270.45 42.1967 270.4 42.2952 270.373C42.3581 270.36 42.4234 270.37 42.4804 270.399C42.5374 270.429 42.5827 270.476 42.609 270.535C42.6175 270.589 42.6175 270.643 42.609 270.697C42.609 270.697 42.6798 270.646 42.6596 270.515C42.6447 270.437 42.6057 270.366 42.5482 270.312C42.5079 270.278 42.4611 270.253 42.4107 270.237C42.3603 270.221 42.3072 270.216 42.2547 270.221C42.1247 270.236 42.0009 270.285 41.8959 270.363C41.791 270.441 41.7087 270.546 41.6576 270.666C41.5064 270.929 41.4229 271.224 41.4147 271.527C41.3811 271.804 41.4305 272.084 41.5566 272.333C41.6828 272.581 41.8799 272.787 42.1231 272.923C42.2019 272.962 42.2885 272.982 42.3762 272.982C42.4638 272.982 42.5504 272.962 42.6292 272.923C42.7709 272.782 42.7709 272.711 42.7709 272.711Z" fill="#EB996E"/>
<path d="M43.1048 269.209L43.8942 270.039C47.3353 266.75 54.0656 258.522 53.6912 259.018C52.1222 258.43 50.4311 258.246 48.7724 258.481C46.2119 258.916 41.364 260.192 41.4349 263.208C41.5866 265.299 42.1543 267.34 43.1048 269.209Z" fill="#263238"/>
<path d="M38.55 268.551C38.55 268.551 38.55 268.491 38.55 268.369C38.6119 268.203 38.6828 268.041 38.7626 267.883C39.0895 267.302 39.5383 266.798 40.0783 266.406C40.8976 265.839 41.8082 265.418 42.7704 265.161C43.7825 264.817 44.997 264.554 46.1609 264.058C47.2568 263.603 48.2961 263.022 49.2579 262.327C50.0429 261.761 50.7747 261.124 51.444 260.424C52.0108 259.817 52.4561 259.291 52.7091 258.926C52.8306 258.744 52.9419 258.603 53.0228 258.491C53.1038 258.38 53.1342 258.339 53.1443 258.35L53.0532 258.511L52.7597 258.957C52.3874 259.5 51.9747 260.014 51.525 260.495C50.8601 261.214 50.128 261.868 49.3389 262.448C48.3675 263.137 47.3177 263.708 46.2115 264.149C45.0375 264.645 43.8433 264.908 42.8008 265.242C41.869 265.499 40.9866 265.909 40.1896 266.456C39.6523 266.829 39.2004 267.312 38.8638 267.873C38.7454 268.093 38.6406 268.319 38.55 268.551Z" fill="#263238"/>
<path d="M39.4613 269.047C39.4537 268.812 39.4951 268.577 39.5828 268.359C39.8144 267.761 40.2243 267.249 40.7568 266.891C41.5542 266.382 42.4455 266.038 43.3781 265.879C44.4947 265.661 45.5841 265.322 46.6269 264.867C47.6622 264.397 48.6347 263.798 49.5214 263.086C50.7404 262.11 51.7872 260.937 52.6184 259.615C52.7297 259.432 52.8208 259.291 52.8815 259.169C52.9143 259.119 52.9516 259.071 52.9929 259.028C52.9712 259.084 52.9441 259.138 52.9119 259.19L52.669 259.645C52.3582 260.195 51.9992 260.717 51.5962 261.204C50.9981 261.951 50.3193 262.63 49.572 263.228C48.679 263.955 47.6959 264.564 46.6471 265.039C45.5916 265.498 44.4884 265.837 43.3578 266.051C42.4388 266.214 41.5614 266.558 40.777 267.064C40.2464 267.399 39.8327 267.89 39.5929 268.47C39.5311 268.658 39.487 268.851 39.4613 269.047Z" fill="#263238"/>
<path d="M37.6296 297.315C37.4811 295.324 37.4811 293.324 37.6296 291.333C37.7646 293.325 37.7646 295.323 37.6296 297.315Z" fill="#263238"/>
<path d="M59.1063 296.9C59.0772 296.546 59.0772 296.191 59.1063 295.837C59.1671 294.99 59.1365 294.138 59.0152 293.297C58.8564 292.464 58.6122 291.65 58.2865 290.868C58.1353 290.542 58.0134 290.203 57.9221 289.856C58.12 290.151 58.2863 290.467 58.418 290.797C58.7943 291.577 59.0633 292.404 59.2176 293.256C59.3382 294.112 59.3382 294.981 59.2176 295.837C59.2262 296.195 59.1888 296.552 59.1063 296.9Z" fill="#263238"/>
<path d="M168.349 290.342H90.9755C89.1305 290.339 87.362 289.604 86.0584 288.298C84.7547 286.993 84.0225 285.223 84.0225 283.378V266.335L75.4906 258.765H168.349C170.192 258.767 171.959 259.501 173.263 260.804C174.566 262.107 175.3 263.874 175.302 265.718V283.378C175.302 285.223 174.57 286.993 173.266 288.298C171.963 289.604 170.194 290.339 168.349 290.342Z" fill="#EBEBEB"/>
<path d="M167.357 268.066C167.357 268.217 150.466 268.329 129.627 268.329C108.788 268.329 91.9066 268.217 91.9066 268.066C91.9066 267.914 108.788 267.802 129.627 267.802C150.466 267.802 167.357 267.924 167.357 268.066Z" fill="white"/>
<path d="M167.357 273.612C167.357 273.753 150.466 273.875 129.627 273.875C108.788 273.875 91.9066 273.753 91.9066 273.612C91.9066 273.47 108.788 273.348 129.627 273.348C150.466 273.348 167.357 273.47 167.357 273.612Z" fill="white"/>
<path d="M167.357 279.158C167.357 279.3 150.466 279.421 129.627 279.421C108.788 279.421 91.9066 279.3 91.9066 279.158C91.9066 279.016 108.788 278.895 129.627 278.895C150.466 278.895 167.357 279.006 167.357 279.158Z" fill="white"/>
<path d="M167.357 143.448C167.357 143.589 150.466 143.711 129.627 143.711C108.788 143.711 91.9066 143.589 91.9066 143.448C91.9066 143.306 108.788 143.185 129.627 143.185C150.466 143.185 167.357 143.296 167.357 143.448Z" fill="white"/>
<path d="M167.357 148.984C167.357 149.136 150.466 149.247 129.627 149.247C108.788 149.247 91.9066 149.136 91.9066 148.984C91.9066 148.832 108.788 148.721 129.627 148.721C150.466 148.721 167.357 148.842 167.357 148.984Z" fill="white"/>
<path d="M167.357 155.643C167.357 155.795 150.466 155.906 129.627 155.906C108.788 155.906 91.9066 155.795 91.9066 155.643C91.9066 155.491 108.788 155.38 129.627 155.38C150.466 155.38 167.357 155.502 167.357 155.643Z" fill="white"/>
<path d="M92.3628 59.3336C92.4169 58.5472 92.6994 57.7936 93.1756 57.1655C93.6519 56.5373 94.3012 56.0618 95.0438 55.7975C95.7864 55.5331 96.5901 55.4913 97.3562 55.6772C98.1223 55.863 98.8174 56.2685 99.3563 56.8439L98.2733 57.856C98.0494 57.5848 97.768 57.3669 97.4493 57.2181C97.1307 57.0693 96.783 56.9933 96.4313 56.9957C95.8086 56.9957 95.2114 57.2431 94.771 57.6834C94.3307 58.1238 94.0833 58.721 94.0833 59.3437C94.0833 59.9665 94.3307 60.5637 94.771 61.004C95.2114 61.4444 95.8086 61.6918 96.4313 61.6918C96.784 61.6943 97.1328 61.6174 97.4517 61.4667C97.7705 61.3161 98.0514 61.0955 98.2733 60.8214L99.3563 61.8334C98.818 62.4084 98.1237 62.8138 97.3585 63.0001C96.5933 63.1864 95.7904 63.1455 95.0481 62.8823C94.3058 62.6191 93.6563 62.1451 93.1794 61.5184C92.7024 60.8917 92.4187 60.1394 92.3628 59.3538V59.3336Z" fill="#263238"/>
<path d="M106.086 59.7686V62.9972H104.507V60.0216C104.507 59.1108 104.082 58.6958 103.364 58.6958C102.645 58.6958 102.018 59.1816 102.018 60.2139V62.9972H100.378V55.2345H102.018V57.957C102.255 57.7289 102.536 57.5513 102.844 57.4347C103.152 57.3182 103.48 57.2652 103.809 57.2789C104.13 57.2659 104.45 57.3232 104.747 57.4467C105.044 57.5703 105.31 57.7572 105.527 57.9943C105.743 58.2315 105.906 58.5131 106.003 58.8196C106.099 59.1261 106.128 59.45 106.086 59.7686Z" fill="#263238"/>
<path d="M112.543 59.7891V62.9974H111.015V62.2991C110.825 62.5722 110.565 62.7889 110.262 62.9261C109.959 63.0633 109.625 63.1159 109.294 63.0784C107.978 63.0784 107.199 62.3497 107.199 61.3781C107.199 60.4065 107.897 59.6879 109.618 59.6879H110.913C110.913 58.9896 110.488 58.5848 109.618 58.5848C109.034 58.5788 108.463 58.7597 107.989 59.1009L107.401 57.9674C108.124 57.4996 108.97 57.2598 109.831 57.2792C111.592 57.2792 112.543 58.0787 112.543 59.7891ZM110.913 61.2162V60.6393H109.79C109.031 60.6393 108.778 60.9227 108.778 61.3073C108.778 61.6919 109.122 61.9854 109.699 61.9854C109.957 62.0048 110.215 61.9404 110.434 61.8018C110.652 61.6633 110.821 61.4579 110.913 61.2162Z" fill="#263238"/>
<path d="M117.664 62.7446C117.265 62.9952 116.799 63.1187 116.329 63.0988C116.051 63.1371 115.768 63.1117 115.501 63.0246C115.234 62.9375 114.991 62.791 114.789 62.596C114.587 62.4011 114.432 62.1628 114.336 61.8993C114.24 61.6357 114.205 61.3538 114.234 61.0747V58.757H113.363V57.502H114.234V56.1256H115.863V57.502H117.27V58.757H115.863V61.0544C115.851 61.1509 115.86 61.2488 115.89 61.3413C115.92 61.4337 115.971 61.5182 116.038 61.5889C116.104 61.6595 116.186 61.7145 116.276 61.7499C116.367 61.7852 116.464 61.8 116.561 61.7933C116.799 61.8018 117.032 61.7266 117.219 61.5807L117.664 62.7446Z" fill="#263238"/>
<path d="M146.539 70.6284C146.539 70.7701 129.334 70.8915 108.009 70.8915C86.6845 70.8915 69.4893 70.7701 69.4893 70.6284C69.4893 70.4867 86.6946 70.3551 108.009 70.3551C129.324 70.3551 146.539 70.4766 146.539 70.6284Z" fill="#263238"/>
<path d="M180.677 59.3336C181.667 59.3336 182.469 58.5316 182.469 57.5422C182.469 56.5529 181.667 55.7509 180.677 55.7509C179.688 55.7509 178.886 56.5529 178.886 57.5422C178.886 58.5316 179.688 59.3336 180.677 59.3336Z" fill="#263238"/>
<path d="M182.438 62.7443C182.44 63.1014 182.335 63.4511 182.138 63.7489C181.941 64.0467 181.66 64.2792 181.33 64.4168C181.001 64.5544 180.638 64.5909 180.287 64.5218C179.937 64.4526 179.615 64.2808 179.362 64.0282C179.11 63.7757 178.938 63.4538 178.869 63.1034C178.8 62.753 178.836 62.3899 178.974 62.0603C179.111 61.7307 179.344 61.4495 179.642 61.2523C179.939 61.0551 180.289 60.9509 180.646 60.9529C181.121 60.9556 181.575 61.1451 181.91 61.4805C182.245 61.8159 182.435 62.27 182.438 62.7443Z" fill="#263238"/>
<path d="M182.438 67.9971C182.44 68.3543 182.335 68.704 182.138 69.0018C181.941 69.2996 181.66 69.532 181.33 69.6696C181.001 69.8072 180.638 69.8438 180.287 69.7746C179.937 69.7054 179.615 69.5336 179.362 69.2811C179.11 69.0285 178.938 68.7066 178.869 68.3562C178.8 68.0058 178.836 67.6427 178.974 67.3131C179.111 66.9835 179.344 66.7023 179.642 66.5051C179.939 66.3079 180.289 66.2037 180.646 66.2057C181.121 66.2057 181.577 66.3945 181.913 66.7304C182.249 67.0664 182.438 67.522 182.438 67.9971Z" fill="#263238"/>
<path d="M34.9976 63.6147C34.8877 63.6171 34.7804 63.5813 34.6939 63.5135L29.9473 60.032C29.8823 59.9838 29.8294 59.9213 29.7926 59.8493C29.7557 59.7773 29.7359 59.6979 29.7347 59.617C29.7351 59.5374 29.7546 59.4591 29.7916 59.3886C29.8286 59.3182 29.882 59.2576 29.9473 59.2122L34.6939 55.7913C34.7483 55.7525 34.8099 55.7248 34.875 55.7099C34.9402 55.695 35.0076 55.6931 35.0735 55.7044C35.1394 55.7157 35.2023 55.7399 35.2588 55.7757C35.3153 55.8115 35.3641 55.8581 35.4024 55.9128C35.4787 56.0207 35.5098 56.1541 35.489 56.2846C35.4682 56.4151 35.3971 56.5323 35.2911 56.6111L31.1011 59.6474L35.2911 62.6836C35.3978 62.7643 35.4691 62.8832 35.4899 63.0154C35.5107 63.1475 35.4793 63.2826 35.4024 63.3921C35.3581 63.4593 35.298 63.5146 35.2275 63.5534C35.157 63.5922 35.0781 63.6133 34.9976 63.6147Z" fill="#263238"/>
<path d="M158.867 233.787C171.404 233.787 181.568 223.646 181.568 211.136C181.568 198.627 171.404 188.486 158.867 188.486C146.329 188.486 136.166 198.627 136.166 211.136C136.166 223.646 146.329 233.787 158.867 233.787Z" fill="#E0E0E0"/>
<path d="M165.081 224.526H153.138C152.73 224.526 152.339 224.364 152.051 224.075C151.762 223.787 151.6 223.395 151.6 222.987C151.6 222.578 151.762 222.186 152.05 221.896C152.338 221.606 152.73 221.442 153.138 221.439H165.081C165.49 221.442 165.881 221.606 166.169 221.896C166.458 222.186 166.619 222.578 166.619 222.987C166.619 223.395 166.457 223.787 166.169 224.075C165.88 224.364 165.489 224.526 165.081 224.526Z" fill="#263238"/>
<path d="M159.787 196.41H158.735V201.713H159.787V196.41Z" fill="#263238"/>
<path d="M143.787 217.613C145.486 217.613 146.864 216.236 146.864 214.537C146.864 212.837 145.486 211.46 143.787 211.46C142.088 211.46 140.71 212.837 140.71 214.537C140.71 216.236 142.088 217.613 143.787 217.613Z" fill="#FD391E"/>
<path d="M174.899 217.411C176.598 217.411 177.976 216.033 177.976 214.334C177.976 212.635 176.598 211.257 174.899 211.257C173.2 211.257 171.822 212.635 171.822 214.334C171.822 216.033 173.2 217.411 174.899 217.411Z" fill="#FD391E"/>
<path d="M159.716 200.6C159.716 200.6 172.245 200.448 174.229 211.308C176.213 222.168 165.616 222.36 162.57 222.562C161.194 222.653 158.238 222.664 155.627 222.623C149.848 222.522 145.769 221.409 144.383 216.045C144.217 215.415 144.112 214.771 144.069 214.122C143.705 208.251 147.672 200.317 159.716 200.6Z" fill="#FD391E"/>
<path d="M150.628 217.127L168.846 217.411C169.762 217.424 170.646 217.074 171.305 216.436C171.963 215.799 172.342 214.926 172.358 214.01C172.369 213.094 172.016 212.211 171.376 211.554C170.737 210.898 169.863 210.522 168.947 210.508L150.73 210.225C150.276 210.217 149.824 210.299 149.402 210.465C148.979 210.632 148.594 210.88 148.268 211.196C147.941 211.512 147.681 211.889 147.501 212.306C147.32 212.723 147.224 213.171 147.218 213.625C147.211 214.08 147.294 214.53 147.462 214.952C147.63 215.374 147.879 215.759 148.196 216.084C148.513 216.41 148.891 216.669 149.308 216.848C149.726 217.027 150.174 217.122 150.628 217.127Z" fill="#263238"/>
<path d="M165.06 213.636C165.087 213.779 165.142 213.915 165.221 214.037C165.301 214.159 165.404 214.264 165.525 214.346C165.645 214.428 165.78 214.485 165.923 214.514C166.066 214.543 166.213 214.544 166.356 214.516C166.51 214.501 166.659 214.453 166.794 214.377C166.928 214.3 167.045 214.196 167.138 214.072C167.23 213.948 167.295 213.806 167.33 213.655C167.364 213.504 167.366 213.347 167.336 213.195C167.307 213.043 167.246 212.899 167.157 212.772C167.069 212.645 166.955 212.538 166.822 212.457C166.69 212.377 166.542 212.325 166.389 212.305C166.235 212.284 166.079 212.297 165.931 212.34C165.788 212.368 165.653 212.424 165.532 212.504C165.411 212.584 165.308 212.687 165.227 212.808C165.146 212.928 165.09 213.063 165.061 213.205C165.033 213.347 165.032 213.493 165.06 213.636Z" fill="white"/>
<path d="M152.339 213.433C152.354 213.587 152.402 213.736 152.478 213.871C152.555 214.006 152.658 214.123 152.783 214.215C152.907 214.308 153.049 214.373 153.2 214.407C153.351 214.441 153.508 214.444 153.66 214.414C153.812 214.384 153.956 214.323 154.083 214.235C154.21 214.146 154.317 214.032 154.397 213.9C154.478 213.767 154.53 213.62 154.55 213.466C154.57 213.313 154.558 213.157 154.514 213.008C154.436 212.742 154.262 212.514 154.025 212.37C153.787 212.226 153.505 212.175 153.233 212.229C152.96 212.282 152.718 212.435 152.552 212.658C152.387 212.881 152.311 213.157 152.339 213.433Z" fill="white"/>
<path d="M160.991 196.339C160.993 196.682 160.893 197.018 160.704 197.304C160.515 197.59 160.246 197.813 159.93 197.945C159.613 198.078 159.265 198.114 158.929 198.048C158.592 197.982 158.283 197.818 158.04 197.577C157.797 197.335 157.631 197.027 157.564 196.691C157.496 196.355 157.53 196.006 157.66 195.69C157.791 195.373 158.013 195.102 158.298 194.911C158.582 194.721 158.917 194.619 159.26 194.619C159.717 194.619 160.156 194.8 160.48 195.122C160.805 195.444 160.988 195.882 160.991 196.339Z" fill="#FD391E"/>
<path d="M161.873 213.13C161.873 213.13 161.944 213.21 161.984 213.393C162.016 213.651 161.992 213.913 161.913 214.162C161.802 214.546 161.593 214.895 161.306 215.174C160.955 215.524 160.494 215.743 160 215.791C159.507 215.832 159.014 215.704 158.604 215.427C158.279 215.207 158.012 214.912 157.824 214.567C157.705 214.334 157.636 214.079 157.622 213.818C157.622 213.636 157.622 213.534 157.683 213.534C157.744 213.534 157.784 213.919 158.118 214.395C158.313 214.658 158.557 214.882 158.837 215.052C159.175 215.254 159.567 215.346 159.96 215.316C160.337 215.267 160.69 215.105 160.972 214.85C161.227 214.638 161.431 214.372 161.569 214.071C161.832 213.544 161.792 213.13 161.873 213.13Z" fill="white"/>
<path d="M174.21 210.954C174.248 211.039 174.278 211.127 174.301 211.217C174.341 211.323 174.374 211.431 174.402 211.541C174.402 211.662 174.473 211.804 174.503 211.976C174.581 212.354 174.635 212.736 174.665 213.12C174.7 213.591 174.7 214.065 174.665 214.537C174.623 215.007 174.545 215.474 174.433 215.933C174.337 216.306 174.216 216.671 174.068 217.026C174.018 217.168 173.961 217.306 173.896 217.441C173.852 217.542 173.801 217.64 173.744 217.735L173.603 217.988C173.625 217.895 173.663 217.806 173.714 217.725L173.846 217.411C173.896 217.289 173.957 217.158 174.008 217.006C174.144 216.65 174.255 216.285 174.342 215.913C174.449 215.456 174.527 214.993 174.574 214.526C174.604 214.058 174.604 213.588 174.574 213.12C174.549 212.739 174.502 212.361 174.433 211.986C174.411 211.829 174.381 211.674 174.342 211.521C174.342 211.389 174.291 211.288 174.271 211.197C174.239 211.119 174.219 211.037 174.21 210.954Z" fill="#263238"/>
<path d="M144.526 211.014C144.482 211.101 144.448 211.193 144.425 211.287C144.425 211.368 144.364 211.48 144.323 211.601C144.283 211.723 144.252 211.874 144.222 212.036C144.144 212.413 144.094 212.796 144.07 213.18C144.035 213.652 144.035 214.125 144.07 214.597C144.111 215.068 144.189 215.535 144.303 215.994C144.397 216.37 144.519 216.739 144.667 217.097C144.718 217.249 144.789 217.38 144.84 217.502C144.89 217.623 144.951 217.724 144.991 217.805L145.133 218.048C145.106 217.956 145.069 217.868 145.022 217.785C145.022 217.704 144.941 217.603 144.89 217.481C144.839 217.36 144.779 217.228 144.728 217.077C144.592 216.717 144.481 216.348 144.394 215.973C144.285 215.517 144.208 215.054 144.161 214.587C144.131 214.122 144.131 213.655 144.161 213.19C144.187 212.807 144.234 212.425 144.303 212.046C144.324 211.903 144.355 211.761 144.394 211.621C144.394 211.49 144.445 211.379 144.465 211.298C144.485 211.217 144.526 211.014 144.526 211.014Z" fill="#263238"/>
<path d="M147.227 230.588C147.227 230.588 150.952 226.955 158.734 226.955C166.517 226.955 170.505 230.588 170.505 230.588C166.993 232.707 162.968 233.828 158.866 233.828C154.764 233.828 150.739 232.707 147.227 230.588Z" fill="#FD391E"/>
<path d="M34.6736 234.231H112.037C112.951 234.233 113.855 234.054 114.7 233.705C115.544 233.356 116.311 232.844 116.957 232.198C117.603 231.552 118.115 230.785 118.464 229.941C118.813 229.097 118.992 228.192 118.99 227.278V204.83L127.522 197.26H34.6736C33.7605 197.26 32.8564 197.44 32.0128 197.789C31.1692 198.139 30.4027 198.651 29.7571 199.296C29.1114 199.942 28.5993 200.709 28.2499 201.552C27.9004 202.396 27.7206 203.3 27.7206 204.213V227.278C27.7193 228.192 27.8982 229.097 28.2471 229.941C28.5961 230.785 29.1082 231.552 29.7541 232.198C30.4 232.844 31.167 233.356 32.0112 233.705C32.8554 234.054 33.7601 234.233 34.6736 234.231Z" fill="#EBEBEB"/>
<path d="M108.556 208.231C108.556 208.383 92.6262 208.494 72.9715 208.494C53.3169 208.494 37.3867 208.383 37.3867 208.231C37.3867 208.079 53.3169 207.968 72.9715 207.968C92.6262 207.968 108.556 208.089 108.556 208.231Z" fill="white"/>
<path d="M108.556 214.243C108.556 214.395 92.6262 214.506 72.9715 214.506C53.3169 214.506 37.3867 214.395 37.3867 214.243C37.3867 214.091 53.3169 213.98 72.9715 213.98C92.6262 213.98 108.556 214.101 108.556 214.243Z" fill="white"/>
<path d="M108.556 220.254C108.556 220.396 92.6262 220.518 72.9715 220.518C53.3169 220.518 37.3867 220.396 37.3867 220.254C37.3867 220.113 53.3169 219.991 72.9715 219.991C92.6262 219.991 108.556 220.113 108.556 220.254Z" fill="white"/>
<path d="M108.556 226.267C108.556 226.408 92.6262 226.53 72.9715 226.53C53.3169 226.53 37.3867 226.408 37.3867 226.267C37.3867 226.125 53.3169 226.003 72.9715 226.003C92.6262 226.003 108.556 226.115 108.556 226.267Z" fill="white"/>
<path d="M158.867 359.568C171.404 359.568 181.568 349.427 181.568 336.917C181.568 324.408 171.404 314.267 158.867 314.267C146.329 314.267 136.166 324.408 136.166 336.917C136.166 349.427 146.329 359.568 158.867 359.568Z" fill="#E0E0E0"/>
<path d="M165.081 350.308H153.138C152.936 350.308 152.735 350.267 152.547 350.19C152.36 350.112 152.19 349.997 152.047 349.853C151.904 349.71 151.791 349.539 151.714 349.351C151.638 349.163 151.599 348.962 151.6 348.759C151.6 348.351 151.762 347.96 152.051 347.671C152.339 347.383 152.73 347.221 153.138 347.221H165.081C165.489 347.221 165.88 347.383 166.169 347.671C166.457 347.96 166.619 348.351 166.619 348.759C166.621 348.962 166.582 349.163 166.505 349.351C166.428 349.539 166.315 349.71 166.172 349.853C166.029 349.997 165.859 350.112 165.672 350.19C165.485 350.267 165.284 350.308 165.081 350.308Z" fill="#263238"/>
<path d="M159.787 322.192H158.735V327.495H159.787V322.192Z" fill="#263238"/>
<path d="M143.787 343.395C145.486 343.395 146.864 342.017 146.864 340.318C146.864 338.619 145.486 337.241 143.787 337.241C142.088 337.241 140.71 338.619 140.71 340.318C140.71 342.017 142.088 343.395 143.787 343.395Z" fill="#FD391E"/>
<path d="M174.899 343.182C176.598 343.182 177.976 341.805 177.976 340.106C177.976 338.406 176.598 337.029 174.899 337.029C173.2 337.029 171.822 338.406 171.822 340.106C171.822 341.805 173.2 343.182 174.899 343.182Z" fill="#FD391E"/>
<path d="M159.716 326.382C159.716 326.382 172.245 326.23 174.229 337.079C176.213 347.929 165.616 348.142 162.57 348.344C161.194 348.435 158.238 348.445 155.627 348.405C149.848 348.303 145.769 347.18 144.383 341.826C144.217 341.197 144.112 340.553 144.069 339.903C143.705 334.033 147.672 326.088 159.716 326.382Z" fill="#FD391E"/>
<path d="M150.628 342.909L168.846 343.192C169.762 343.206 170.646 342.856 171.305 342.218C171.963 341.581 172.342 340.708 172.358 339.792C172.369 338.876 172.016 337.992 171.376 337.336C170.737 336.68 169.863 336.303 168.947 336.29L150.73 335.997C149.813 335.983 148.929 336.333 148.271 336.971C147.612 337.608 147.234 338.481 147.218 339.397C147.211 339.852 147.294 340.303 147.462 340.726C147.629 341.148 147.879 341.533 148.196 341.86C148.512 342.186 148.89 342.446 149.308 342.626C149.725 342.806 150.174 342.902 150.628 342.909Z" fill="#263238"/>
<path d="M165.061 339.417C165.085 339.562 165.138 339.699 165.216 339.823C165.294 339.947 165.395 340.054 165.515 340.139C165.634 340.224 165.769 340.284 165.912 340.316C166.054 340.349 166.202 340.353 166.346 340.328C166.49 340.304 166.628 340.251 166.752 340.173C166.876 340.095 166.983 339.994 167.068 339.874C167.152 339.755 167.212 339.62 167.245 339.477C167.277 339.335 167.281 339.187 167.257 339.043C167.241 338.889 167.194 338.74 167.117 338.605C167.041 338.47 166.937 338.353 166.813 338.261C166.689 338.168 166.546 338.103 166.395 338.069C166.244 338.035 166.088 338.032 165.936 338.062C165.784 338.092 165.64 338.153 165.513 338.241C165.386 338.33 165.279 338.444 165.198 338.576C165.118 338.709 165.066 338.856 165.045 339.01C165.025 339.163 165.037 339.319 165.081 339.468L165.061 339.417Z" fill="white"/>
<path d="M152.339 339.215C152.381 339.431 152.486 339.63 152.641 339.786C152.796 339.942 152.994 340.049 153.209 340.093C153.425 340.137 153.649 340.116 153.853 340.033C154.057 339.949 154.231 339.807 154.354 339.625C154.477 339.442 154.544 339.227 154.545 339.007C154.545 338.787 154.481 338.571 154.36 338.388C154.238 338.204 154.065 338.061 153.862 337.976C153.659 337.89 153.435 337.867 153.219 337.909C153.075 337.937 152.939 337.993 152.817 338.074C152.695 338.155 152.59 338.258 152.508 338.38C152.427 338.501 152.369 338.637 152.34 338.78C152.311 338.924 152.311 339.071 152.339 339.215Z" fill="white"/>
<path d="M160.991 322.08C160.991 322.423 160.889 322.757 160.699 323.042C160.509 323.327 160.239 323.548 159.922 323.679C159.606 323.81 159.258 323.845 158.923 323.778C158.587 323.711 158.278 323.546 158.036 323.304C157.794 323.062 157.63 322.754 157.563 322.418C157.496 322.082 157.53 321.734 157.661 321.418C157.792 321.102 158.014 320.832 158.299 320.641C158.583 320.451 158.918 320.35 159.26 320.35C159.719 320.35 160.159 320.532 160.484 320.857C160.808 321.181 160.991 321.621 160.991 322.08Z" fill="#FD391E"/>
<path d="M161.873 338.901C161.873 338.901 161.944 338.992 161.984 339.174C162.015 339.433 161.991 339.695 161.913 339.943C161.8 340.327 161.591 340.675 161.306 340.956C160.955 341.306 160.494 341.524 160 341.573C159.507 341.614 159.014 341.485 158.604 341.209C158.279 340.988 158.012 340.693 157.824 340.348C157.706 340.115 157.637 339.86 157.622 339.599C157.622 339.417 157.622 339.316 157.683 339.316C157.744 339.316 157.784 339.701 158.118 340.166C158.31 340.435 158.554 340.663 158.837 340.834C159.178 341.029 159.568 341.12 159.96 341.097C160.337 341.049 160.69 340.887 160.972 340.632C161.223 340.416 161.426 340.151 161.569 339.852C161.832 339.306 161.792 338.911 161.873 338.901Z" fill="white"/>
<path d="M174.21 336.725C174.21 336.725 174.21 336.827 174.301 336.999C174.342 337.104 174.376 337.212 174.402 337.322C174.402 337.444 174.473 337.586 174.503 337.748C174.579 338.125 174.633 338.507 174.665 338.891C174.7 339.363 174.7 339.836 174.665 340.308C174.625 340.779 174.547 341.246 174.433 341.705C174.339 342.081 174.217 342.45 174.068 342.808C174.018 342.946 173.961 343.081 173.896 343.213C173.854 343.318 173.803 343.419 173.744 343.516L173.603 343.759C173.629 343.668 173.667 343.579 173.714 343.496C173.714 343.415 173.795 343.314 173.846 343.193C173.896 343.071 173.957 342.94 174.008 342.788C174.145 342.428 174.256 342.06 174.341 341.685C174.45 341.232 174.528 340.772 174.574 340.308C174.604 339.84 174.604 339.37 174.574 338.901C174.55 338.521 174.502 338.142 174.433 337.768C174.411 337.621 174.381 337.476 174.341 337.333C174.341 337.201 174.291 337.1 174.271 337.009C174.236 336.918 174.215 336.822 174.21 336.725Z" fill="#263238"/>
<path d="M144.526 336.796C144.482 336.883 144.448 336.975 144.425 337.069C144.425 337.15 144.364 337.262 144.323 337.383C144.283 337.504 144.252 337.656 144.222 337.818C144.144 338.195 144.094 338.578 144.07 338.962C144.035 339.434 144.035 339.907 144.07 340.379C144.112 340.85 144.189 341.317 144.303 341.775C144.397 342.152 144.519 342.52 144.667 342.879C144.718 343.03 144.789 343.162 144.84 343.283C144.89 343.405 144.951 343.506 144.991 343.587L145.133 343.83C145.109 343.737 145.071 343.649 145.022 343.567C145.022 343.486 144.941 343.385 144.89 343.263C144.839 343.142 144.779 343.01 144.728 342.848C144.592 342.492 144.48 342.127 144.394 341.755C144.285 341.299 144.208 340.836 144.161 340.369C144.131 339.904 144.131 339.437 144.161 338.972C144.187 338.588 144.234 338.207 144.303 337.828C144.324 337.685 144.355 337.543 144.394 337.403C144.394 337.272 144.445 337.16 144.465 337.079C144.485 336.998 144.526 336.796 144.526 336.796Z" fill="#263238"/>
<path d="M147.227 356.369C147.227 356.369 150.952 352.736 158.734 352.736C166.517 352.736 170.505 356.369 170.505 356.369C166.993 358.489 162.968 359.609 158.866 359.609C154.764 359.609 150.739 358.489 147.227 356.369Z" fill="#FD391E"/>
<path d="M34.6736 360.013H112.037C112.951 360.015 113.855 359.836 114.7 359.487C115.544 359.138 116.311 358.626 116.957 357.98C117.603 357.334 118.115 356.567 118.464 355.723C118.813 354.878 118.992 353.974 118.99 353.06V330.612L127.522 323.042H34.6736C33.7605 323.042 32.8564 323.222 32.0128 323.571C31.1692 323.921 30.4027 324.433 29.7571 325.078C29.1114 325.724 28.5993 326.49 28.2499 327.334C27.9004 328.178 27.7206 329.082 27.7206 329.995V353.06C27.7193 353.974 27.8982 354.878 28.2471 355.723C28.5961 356.567 29.1082 357.334 29.7541 357.98C30.4 358.626 31.167 359.138 32.0112 359.487C32.8554 359.836 33.7601 360.015 34.6736 360.013Z" fill="#EBEBEB"/>
<path d="M34.6736 395.122H112.037C112.951 395.122 113.856 394.942 114.7 394.592C115.545 394.242 116.312 393.729 116.957 393.082C117.603 392.436 118.115 391.668 118.464 390.823C118.813 389.978 118.992 389.073 118.99 388.159V380.72L127.522 373.15H34.6736C33.7605 373.15 32.8564 373.33 32.0128 373.679C31.1692 374.029 30.4027 374.541 29.7571 375.187C29.1114 375.832 28.5993 376.599 28.2498 377.442C27.9004 378.286 27.7206 379.19 27.7206 380.103V388.2C27.7286 390.039 28.4647 391.799 29.7678 393.097C31.0708 394.394 32.8348 395.122 34.6736 395.122Z" fill="#EBEBEB"/>
<path d="M108.556 333.982C108.556 334.134 92.6262 334.246 72.9715 334.246C53.3169 334.246 37.3867 334.134 37.3867 333.982C37.3867 333.831 53.3169 333.719 72.9715 333.719C92.6262 333.719 108.556 333.871 108.556 333.982Z" fill="white"/>
<path d="M108.556 340.055C108.556 340.196 92.6262 340.318 72.9715 340.318C53.3169 340.318 37.3867 340.196 37.3867 340.055C37.3867 339.913 53.3169 339.792 72.9715 339.792C92.6262 339.792 108.556 339.883 108.556 340.055Z" fill="white"/>
<path d="M108.556 346.036C108.556 346.178 92.6262 346.299 72.9715 346.299C53.3169 346.299 37.3867 346.178 37.3867 346.036C37.3867 345.895 53.3169 345.773 72.9715 345.773C92.6262 345.773 108.556 345.884 108.556 346.036Z" fill="white"/>
<path d="M108.556 352.048C108.556 352.19 92.6262 352.311 72.9715 352.311C53.3169 352.311 37.3867 352.19 37.3867 352.048C37.3867 351.906 53.3169 351.785 72.9715 351.785C92.6262 351.785 108.556 351.896 108.556 352.048Z" fill="white"/>
<path d="M108.799 384.455C108.799 384.597 93.0308 384.718 73.5886 384.718C54.1465 384.718 38.3682 384.597 38.3682 384.455C38.3682 384.313 54.1364 384.192 73.5886 384.192C93.0409 384.192 108.799 384.303 108.799 384.455Z" fill="white"/>
</svg>
