<svg width="570" height="458" viewBox="0 0 570 458" fill="none" xmlns="http://www.w3.org/2000/svg">
<path d="M570 373.236H0V373.521H570V373.236Z" fill="#EBEBEB"/>
<path d="M512.886 391.579H475.129V391.864H512.886V391.579Z" fill="#EBEBEB"/>
<path d="M377.591 394.68H367.684V394.965H377.591V394.68Z" fill="#EBEBEB"/>
<path d="M473.989 380.999H452.112V381.284H473.989V380.999Z" fill="#EBEBEB"/>
<path d="M109.041 382.915H59.8043V383.2H109.041V382.915Z" fill="#EBEBEB"/>
<path d="M126.415 382.915H119.198V383.2H126.415V382.915Z" fill="#EBEBEB"/>
<path d="M256.671 387.725H149.876V388.01H256.671V387.725Z" fill="#EBEBEB"/>
<path d="M270.18 322.392H50.0573C48.3329 322.389 46.6801 321.702 45.4619 320.481C44.2436 319.261 43.5593 317.607 43.5593 315.883V6.4524C43.5743 4.73787 44.2652 3.0985 45.4819 1.89037C46.6985 0.682242 48.3427 0.00293708 50.0573 0H270.18C271.906 0 273.562 0.68581 274.783 1.90656C276.004 3.12731 276.689 4.783 276.689 6.5094V315.883C276.689 317.609 276.004 319.265 274.783 320.485C273.562 321.706 271.906 322.392 270.18 322.392ZM50.0573 0.228001C48.4085 0.231021 46.8282 0.888134 45.6634 2.05511C44.4985 3.22208 43.8443 4.80356 43.8443 6.4524V315.883C43.8443 317.531 44.4985 319.113 45.6634 320.28C46.8282 321.447 48.4085 322.104 50.0573 322.107H270.18C271.83 322.104 273.411 321.447 274.578 320.281C275.745 319.114 276.401 317.532 276.404 315.883V6.4524C276.401 4.80251 275.745 3.22106 274.578 2.05441C273.411 0.887764 271.83 0.231014 270.18 0.228001H50.0573Z" fill="#EBEBEB"/>
<path d="M516.773 322.392H296.639C294.914 322.389 293.26 321.702 292.04 320.482C290.82 319.262 290.133 317.608 290.13 315.883V6.4524C290.148 4.73683 290.841 3.09747 292.06 1.88966C293.278 0.681844 294.924 0.00290505 296.639 0H516.773C518.486 0.00593313 520.127 0.686564 521.342 1.89437C522.556 3.10218 523.245 4.73984 523.26 6.4524V315.883C523.26 317.605 522.577 319.257 521.362 320.477C520.146 321.697 518.496 322.386 516.773 322.392ZM296.639 0.228001C294.99 0.231014 293.408 0.887764 292.241 2.05441C291.075 3.22106 290.418 4.80251 290.415 6.4524V315.883C290.418 317.532 291.075 319.114 292.241 320.281C293.408 321.447 294.99 322.104 296.639 322.107H516.773C518.423 322.104 520.005 321.447 521.171 320.281C522.338 319.114 522.995 317.532 522.998 315.883V6.4524C522.995 4.80251 522.338 3.22106 521.171 2.05441C520.005 0.887764 518.423 0.231014 516.773 0.228001H296.639Z" fill="#EBEBEB"/>
<path d="M507.779 70.8853H231.58V337.121H507.779V70.8853Z" fill="#E0E0E0"/>
<path d="M507.779 75.7188H236.014V332.47H507.779V75.7188Z" fill="#F5F5F5"/>
<path d="M238.021 270.294V193.059H246.035V182.856L264.092 174.42V163.977H267.102V193.059H270.112V270.294H274.124V230.166H283.153V209.11H286.163V270.294H293.174V247.22H298.19V241.201H309.225V220.145H315.244V206.1H322.267V185.033H325.276V206.1H332.299V220.145H338.306V241.201H349.342V247.22H354.358V270.294H360.377V241.201H371.412V177.019H374.422V169.997H398.487V177.019H403.503V223.155H423.567V228.16H430.578V231.169H423.567V249.227H444.623V189.046H448.636V177.019H458.668V130.883H461.677V177.019H468.7V189.046H507.779V332.47H236.014V270.294H238.021Z" fill="#E6E6E6"/>
<path d="M486.894 192.193H484.055V195.031H486.894V192.193Z" fill="#F0F0F0"/>
<path d="M486.894 196.958H484.055V199.796H486.894V196.958Z" fill="#F0F0F0"/>
<path d="M486.894 216.019H484.055V218.857H486.894V216.019Z" fill="#F0F0F0"/>
<path d="M486.894 220.772H484.055V223.611H486.894V220.772Z" fill="#F0F0F0"/>
<path d="M486.894 225.538H484.055V228.376H486.894V225.538Z" fill="#F0F0F0"/>
<path d="M486.894 239.833H484.055V242.672H486.894V239.833Z" fill="#F0F0F0"/>
<path d="M486.894 244.599H484.055V247.437H486.894V244.599Z" fill="#F0F0F0"/>
<path d="M482.379 211.253H479.541V214.092H482.379V211.253Z" fill="#F0F0F0"/>
<path d="M482.379 216.019H479.541V218.857H482.379V216.019Z" fill="#F0F0F0"/>
<path d="M482.379 220.772H479.541V223.611H482.379V220.772Z" fill="#F0F0F0"/>
<path d="M482.379 225.538H479.541V228.376H482.379V225.538Z" fill="#F0F0F0"/>
<path d="M482.379 230.303H479.541V233.142H482.379V230.303Z" fill="#F0F0F0"/>
<path d="M482.379 239.833H479.541V242.672H482.379V239.833Z" fill="#F0F0F0"/>
<path d="M482.379 244.599H479.541V247.437H482.379V244.599Z" fill="#F0F0F0"/>
<path d="M477.865 192.193H475.026V195.031H477.865V192.193Z" fill="#F0F0F0"/>
<path d="M477.865 196.958H475.026V199.796H477.865V196.958Z" fill="#F0F0F0"/>
<path d="M477.865 201.723H475.026V204.562H477.865V201.723Z" fill="#F0F0F0"/>
<path d="M477.865 206.488H475.026V209.327H477.865V206.488Z" fill="#F0F0F0"/>
<path d="M477.865 211.253H475.026V214.092H477.865V211.253Z" fill="#F0F0F0"/>
<path d="M477.865 216.019H475.026V218.857H477.865V216.019Z" fill="#F0F0F0"/>
<path d="M477.865 220.772H475.026V223.611H477.865V220.772Z" fill="#F0F0F0"/>
<path d="M477.865 225.538H475.026V228.376H477.865V225.538Z" fill="#F0F0F0"/>
<path d="M477.865 230.303H475.026V233.142H477.865V230.303Z" fill="#F0F0F0"/>
<path d="M477.865 235.068H475.026V237.907H477.865V235.068Z" fill="#F0F0F0"/>
<path d="M477.865 244.599H475.026V247.437H477.865V244.599Z" fill="#F0F0F0"/>
<path d="M473.351 192.193H470.512V195.031H473.351V192.193Z" fill="#F0F0F0"/>
<path d="M473.351 196.958H470.512V199.796H473.351V196.958Z" fill="#F0F0F0"/>
<path d="M473.351 201.723H470.512V204.562H473.351V201.723Z" fill="#F0F0F0"/>
<path d="M473.351 206.488H470.512V209.327H473.351V206.488Z" fill="#F0F0F0"/>
<path d="M473.351 211.253H470.512V214.092H473.351V211.253Z" fill="#F0F0F0"/>
<path d="M473.351 216.019H470.512V218.857H473.351V216.019Z" fill="#F0F0F0"/>
<path d="M473.351 220.772H470.512V223.611H473.351V220.772Z" fill="#F0F0F0"/>
<path d="M473.351 263.659H470.512V266.498H473.351V263.659Z" fill="#F0F0F0"/>
<path d="M468.837 192.193H465.998V195.031H468.837V192.193Z" fill="#F0F0F0"/>
<path d="M468.837 196.958H465.998V199.796H468.837V196.958Z" fill="#F0F0F0"/>
<path d="M468.837 201.723H465.998V204.562H468.837V201.723Z" fill="#F0F0F0"/>
<path d="M468.837 206.488H465.998V209.327H468.837V206.488Z" fill="#F0F0F0"/>
<path d="M468.837 211.253H465.998V214.092H468.837V211.253Z" fill="#F0F0F0"/>
<path d="M468.837 216.019H465.998V218.857H468.837V216.019Z" fill="#F0F0F0"/>
<path d="M468.837 220.772H465.998V223.611H468.837V220.772Z" fill="#F0F0F0"/>
<path d="M468.837 225.538H465.998V228.376H468.837V225.538Z" fill="#F0F0F0"/>
<path d="M468.837 254.129H465.998V256.967H468.837V254.129Z" fill="#F0F0F0"/>
<path d="M468.837 258.894H465.998V261.733H468.837V258.894Z" fill="#F0F0F0"/>
<path d="M468.837 263.659H465.998V266.498H468.837V263.659Z" fill="#F0F0F0"/>
<path d="M468.837 268.413H465.998V271.252H468.837V268.413Z" fill="#F0F0F0"/>
<path d="M468.837 287.474H465.998V290.312H468.837V287.474Z" fill="#F0F0F0"/>
<path d="M464.322 192.193H461.483V195.031H464.322V192.193Z" fill="#F0F0F0"/>
<path d="M464.322 196.958H461.483V199.796H464.322V196.958Z" fill="#F0F0F0"/>
<path d="M464.322 201.723H461.483V204.562H464.322V201.723Z" fill="#F0F0F0"/>
<path d="M464.322 206.488H461.483V209.327H464.322V206.488Z" fill="#F0F0F0"/>
<path d="M464.322 211.253H461.483V214.092H464.322V211.253Z" fill="#F0F0F0"/>
<path d="M464.322 216.019H461.483V218.857H464.322V216.019Z" fill="#F0F0F0"/>
<path d="M464.322 220.772H461.483V223.611H464.322V220.772Z" fill="#F0F0F0"/>
<path d="M464.322 225.538H461.483V228.376H464.322V225.538Z" fill="#F0F0F0"/>
<path d="M464.322 230.303H461.483V233.142H464.322V230.303Z" fill="#F0F0F0"/>
<path d="M464.322 235.068H461.483V237.907H464.322V235.068Z" fill="#F0F0F0"/>
<path d="M464.322 249.364H461.483V252.202H464.322V249.364Z" fill="#F0F0F0"/>
<path d="M464.322 254.129H461.483V256.967H464.322V254.129Z" fill="#F0F0F0"/>
<path d="M464.322 258.894H461.483V261.733H464.322V258.894Z" fill="#F0F0F0"/>
<path d="M464.322 263.659H461.483V266.498H464.322V263.659Z" fill="#F0F0F0"/>
<path d="M464.322 268.413H461.483V271.252H464.322V268.413Z" fill="#F0F0F0"/>
<path d="M464.322 287.474H461.483V290.312H464.322V287.474Z" fill="#F0F0F0"/>
<path d="M459.808 192.193H456.969V195.031H459.808V192.193Z" fill="#F0F0F0"/>
<path d="M459.808 196.958H456.969V199.796H459.808V196.958Z" fill="#F0F0F0"/>
<path d="M459.808 201.723H456.969V204.562H459.808V201.723Z" fill="#F0F0F0"/>
<path d="M459.808 206.488H456.969V209.327H459.808V206.488Z" fill="#F0F0F0"/>
<path d="M459.808 211.253H456.969V214.092H459.808V211.253Z" fill="#F0F0F0"/>
<path d="M459.808 216.019H456.969V218.857H459.808V216.019Z" fill="#F0F0F0"/>
<path d="M459.808 220.772H456.969V223.611H459.808V220.772Z" fill="#F0F0F0"/>
<path d="M459.808 225.538H456.969V228.376H459.808V225.538Z" fill="#F0F0F0"/>
<path d="M459.808 230.303H456.969V233.142H459.808V230.303Z" fill="#F0F0F0"/>
<path d="M459.808 235.068H456.969V237.907H459.808V235.068Z" fill="#F0F0F0"/>
<path d="M459.808 239.833H456.969V242.672H459.808V239.833Z" fill="#F0F0F0"/>
<path d="M459.808 244.599H456.969V247.437H459.808V244.599Z" fill="#F0F0F0"/>
<path d="M459.808 249.364H456.969V252.202H459.808V249.364Z" fill="#F0F0F0"/>
<path d="M459.808 254.129H456.969V256.967H459.808V254.129Z" fill="#F0F0F0"/>
<path d="M459.808 258.894H456.969V261.733H459.808V258.894Z" fill="#F0F0F0"/>
<path d="M459.808 263.659H456.969V266.498H459.808V263.659Z" fill="#F0F0F0"/>
<path d="M459.808 268.413H456.969V271.252H459.808V268.413Z" fill="#F0F0F0"/>
<path d="M459.808 273.178H456.969V276.017H459.808V273.178Z" fill="#F0F0F0"/>
<path d="M455.293 192.193H452.455V195.031H455.293V192.193Z" fill="#F0F0F0"/>
<path d="M455.293 196.958H452.455V199.796H455.293V196.958Z" fill="#F0F0F0"/>
<path d="M455.293 201.723H452.455V204.562H455.293V201.723Z" fill="#F0F0F0"/>
<path d="M455.293 206.488H452.455V209.327H455.293V206.488Z" fill="#F0F0F0"/>
<path d="M455.293 211.253H452.455V214.092H455.293V211.253Z" fill="#F0F0F0"/>
<path d="M455.293 216.019H452.455V218.857H455.293V216.019Z" fill="#F0F0F0"/>
<path d="M455.293 220.772H452.455V223.611H455.293V220.772Z" fill="#F0F0F0"/>
<path d="M455.293 225.538H452.455V228.376H455.293V225.538Z" fill="#F0F0F0"/>
<path d="M455.293 230.303H452.455V233.142H455.293V230.303Z" fill="#F0F0F0"/>
<path d="M455.293 235.068H452.455V237.907H455.293V235.068Z" fill="#F0F0F0"/>
<path d="M455.293 249.364H452.455V252.202H455.293V249.364Z" fill="#F0F0F0"/>
<path d="M455.293 254.129H452.455V256.967H455.293V254.129Z" fill="#F0F0F0"/>
<path d="M455.293 258.894H452.455V261.733H455.293V258.894Z" fill="#F0F0F0"/>
<path d="M455.293 263.659H452.455V266.498H455.293V263.659Z" fill="#F0F0F0"/>
<path d="M450.79 192.193H447.951V195.031H450.79V192.193Z" fill="#F0F0F0"/>
<path d="M450.79 196.958H447.951V199.796H450.79V196.958Z" fill="#F0F0F0"/>
<path d="M450.79 201.723H447.951V204.562H450.79V201.723Z" fill="#F0F0F0"/>
<path d="M450.79 206.488H447.951V209.327H450.79V206.488Z" fill="#F0F0F0"/>
<path d="M450.79 211.253H447.951V214.092H450.79V211.253Z" fill="#F0F0F0"/>
<path d="M450.79 216.019H447.951V218.857H450.79V216.019Z" fill="#F0F0F0"/>
<path d="M450.79 220.772H447.951V223.611H450.79V220.772Z" fill="#F0F0F0"/>
<path d="M450.79 225.538H447.951V228.376H450.79V225.538Z" fill="#F0F0F0"/>
<path d="M450.79 230.303H447.951V233.142H450.79V230.303Z" fill="#F0F0F0"/>
<path d="M450.79 235.068H447.951V237.907H450.79V235.068Z" fill="#F0F0F0"/>
<path d="M450.79 249.364H447.951V252.202H450.79V249.364Z" fill="#F0F0F0"/>
<path d="M450.79 254.129H447.951V256.967H450.79V254.129Z" fill="#F0F0F0"/>
<path d="M450.79 258.894H447.951V261.733H450.79V258.894Z" fill="#F0F0F0"/>
<path d="M399.969 179.824H397.131V182.662H399.969V179.824Z" fill="#F0F0F0"/>
<path d="M399.969 184.589H397.131V187.427H399.969V184.589Z" fill="#F0F0F0"/>
<path d="M399.969 189.354H397.131V192.193H399.969V189.354Z" fill="#F0F0F0"/>
<path d="M399.969 194.12H397.131V196.958H399.969V194.12Z" fill="#F0F0F0"/>
<path d="M399.969 198.885H397.131V201.723H399.969V198.885Z" fill="#F0F0F0"/>
<path d="M399.969 203.649H397.131V206.488H399.969V203.649Z" fill="#F0F0F0"/>
<path d="M399.969 208.404H397.131V211.242H399.969V208.404Z" fill="#F0F0F0"/>
<path d="M399.969 213.168H397.131V216.007H399.969V213.168Z" fill="#F0F0F0"/>
<path d="M399.969 227.464H397.131V230.303H399.969V227.464Z" fill="#F0F0F0"/>
<path d="M399.969 232.229H397.131V235.068H399.969V232.229Z" fill="#F0F0F0"/>
<path d="M395.455 179.824H392.616V182.662H395.455V179.824Z" fill="#F0F0F0"/>
<path d="M395.455 184.589H392.616V187.427H395.455V184.589Z" fill="#F0F0F0"/>
<path d="M395.455 189.354H392.616V192.193H395.455V189.354Z" fill="#F0F0F0"/>
<path d="M395.455 194.12H392.616V196.958H395.455V194.12Z" fill="#F0F0F0"/>
<path d="M395.455 198.885H392.616V201.723H395.455V198.885Z" fill="#F0F0F0"/>
<path d="M395.455 203.649H392.616V206.488H395.455V203.649Z" fill="#F0F0F0"/>
<path d="M395.455 208.404H392.616V211.242H395.455V208.404Z" fill="#F0F0F0"/>
<path d="M395.455 213.168H392.616V216.007H395.455V213.168Z" fill="#F0F0F0"/>
<path d="M395.455 232.229H392.616V235.068H395.455V232.229Z" fill="#F0F0F0"/>
<path d="M390.94 179.824H388.102V182.662H390.94V179.824Z" fill="#F0F0F0"/>
<path d="M390.94 184.589H388.102V187.427H390.94V184.589Z" fill="#F0F0F0"/>
<path d="M390.94 189.354H388.102V192.193H390.94V189.354Z" fill="#F0F0F0"/>
<path d="M390.94 194.12H388.102V196.958H390.94V194.12Z" fill="#F0F0F0"/>
<path d="M390.94 198.885H388.102V201.723H390.94V198.885Z" fill="#F0F0F0"/>
<path d="M390.94 203.649H388.102V206.488H390.94V203.649Z" fill="#F0F0F0"/>
<path d="M390.94 208.404H388.102V211.242H390.94V208.404Z" fill="#F0F0F0"/>
<path d="M390.94 213.168H388.102V216.007H390.94V213.168Z" fill="#F0F0F0"/>
<path d="M386.426 179.824H383.587V182.662H386.426V179.824Z" fill="#F0F0F0"/>
<path d="M386.426 184.589H383.587V187.427H386.426V184.589Z" fill="#F0F0F0"/>
<path d="M386.426 189.354H383.587V192.193H386.426V189.354Z" fill="#F0F0F0"/>
<path d="M386.426 194.12H383.587V196.958H386.426V194.12Z" fill="#F0F0F0"/>
<path d="M386.426 198.885H383.587V201.723H386.426V198.885Z" fill="#F0F0F0"/>
<path d="M386.426 203.649H383.587V206.488H386.426V203.649Z" fill="#F0F0F0"/>
<path d="M386.426 213.168H383.587V216.007H386.426V213.168Z" fill="#F0F0F0"/>
<path d="M386.426 217.934H383.587V220.772H386.426V217.934Z" fill="#F0F0F0"/>
<path d="M386.426 232.229H383.587V235.068H386.426V232.229Z" fill="#F0F0F0"/>
<path d="M386.426 236.995H383.587V239.833H386.426V236.995Z" fill="#F0F0F0"/>
<path d="M386.426 241.76H383.587V244.598H386.426V241.76Z" fill="#F0F0F0"/>
<path d="M386.426 246.525H383.587V249.363H386.426V246.525Z" fill="#F0F0F0"/>
<path d="M386.426 251.29H383.587V254.129H386.426V251.29Z" fill="#F0F0F0"/>
<path d="M386.426 256.044H383.587V258.883H386.426V256.044Z" fill="#F0F0F0"/>
<path d="M386.426 260.809H383.587V263.647H386.426V260.809Z" fill="#F0F0F0"/>
<path d="M381.911 179.824H379.073V182.662H381.911V179.824Z" fill="#F0F0F0"/>
<path d="M381.911 184.589H379.073V187.427H381.911V184.589Z" fill="#F0F0F0"/>
<path d="M381.911 189.354H379.073V192.193H381.911V189.354Z" fill="#F0F0F0"/>
<path d="M381.911 194.12H379.073V196.958H381.911V194.12Z" fill="#F0F0F0"/>
<path d="M381.911 198.885H379.073V201.723H381.911V198.885Z" fill="#F0F0F0"/>
<path d="M381.911 203.649H379.073V206.488H381.911V203.649Z" fill="#F0F0F0"/>
<path d="M381.911 217.934H379.073V220.772H381.911V217.934Z" fill="#F0F0F0"/>
<path d="M381.911 222.699H379.073V225.538H381.911V222.699Z" fill="#F0F0F0"/>
<path d="M381.911 227.464H379.073V230.303H381.911V227.464Z" fill="#F0F0F0"/>
<path d="M381.911 232.229H379.073V235.068H381.911V232.229Z" fill="#F0F0F0"/>
<path d="M381.911 236.995H379.073V239.833H381.911V236.995Z" fill="#F0F0F0"/>
<path d="M381.911 241.76H379.073V244.598H381.911V241.76Z" fill="#F0F0F0"/>
<path d="M381.911 246.525H379.073V249.363H381.911V246.525Z" fill="#F0F0F0"/>
<path d="M381.911 251.29H379.073V254.129H381.911V251.29Z" fill="#F0F0F0"/>
<path d="M381.911 256.044H379.073V258.883H381.911V256.044Z" fill="#F0F0F0"/>
<path d="M381.911 260.809H379.073V263.647H381.911V260.809Z" fill="#F0F0F0"/>
<path d="M381.911 265.574H379.073V268.413H381.911V265.574Z" fill="#F0F0F0"/>
<path d="M381.911 275.105H379.073V277.943H381.911V275.105Z" fill="#F0F0F0"/>
<path d="M377.397 179.824H374.558V182.662H377.397V179.824Z" fill="#F0F0F0"/>
<path d="M377.397 184.589H374.558V187.427H377.397V184.589Z" fill="#F0F0F0"/>
<path d="M377.397 189.354H374.558V192.193H377.397V189.354Z" fill="#F0F0F0"/>
<path d="M377.397 194.12H374.558V196.958H377.397V194.12Z" fill="#F0F0F0"/>
<path d="M377.397 198.885H374.558V201.723H377.397V198.885Z" fill="#F0F0F0"/>
<path d="M377.397 203.649H374.558V206.488H377.397V203.649Z" fill="#F0F0F0"/>
<path d="M377.397 217.934H374.558V220.772H377.397V217.934Z" fill="#F0F0F0"/>
<path d="M377.397 222.699H374.558V225.538H377.397V222.699Z" fill="#F0F0F0"/>
<path d="M377.397 227.464H374.558V230.303H377.397V227.464Z" fill="#F0F0F0"/>
<path d="M377.397 232.229H374.558V235.068H377.397V232.229Z" fill="#F0F0F0"/>
<path d="M377.397 246.525H374.558V249.363H377.397V246.525Z" fill="#F0F0F0"/>
<path d="M377.397 251.29H374.558V254.129H377.397V251.29Z" fill="#F0F0F0"/>
<path d="M377.397 256.044H374.558V258.883H377.397V256.044Z" fill="#F0F0F0"/>
<path d="M377.397 260.809H374.558V263.647H377.397V260.809Z" fill="#F0F0F0"/>
<path d="M377.397 265.574H374.558V268.413H377.397V265.574Z" fill="#F0F0F0"/>
<path d="M377.397 275.105H374.558V277.943H377.397V275.105Z" fill="#F0F0F0"/>
<path d="M377.397 279.87H374.558V282.709H377.397V279.87Z" fill="#F0F0F0"/>
<path d="M336.448 224.124H333.61V226.963H336.448V224.124Z" fill="#F0F0F0"/>
<path d="M336.448 228.889H333.61V231.728H336.448V228.889Z" fill="#F0F0F0"/>
<path d="M336.448 233.654H333.61V236.493H336.448V233.654Z" fill="#F0F0F0"/>
<path d="M336.448 238.408H333.61V241.247H336.448V238.408Z" fill="#F0F0F0"/>
<path d="M336.448 243.174H333.61V246.012H336.448V243.174Z" fill="#F0F0F0"/>
<path d="M336.448 247.939H333.61V250.777H336.448V247.939Z" fill="#F0F0F0"/>
<path d="M336.448 252.704H333.61V255.542H336.448V252.704Z" fill="#F0F0F0"/>
<path d="M336.448 267H333.61V269.838H336.448V267Z" fill="#F0F0F0"/>
<path d="M336.448 271.765H333.61V274.603H336.448V271.765Z" fill="#F0F0F0"/>
<path d="M336.448 276.53H333.61V279.368H336.448V276.53Z" fill="#F0F0F0"/>
<path d="M331.934 224.124H329.095V226.963H331.934V224.124Z" fill="#F0F0F0"/>
<path d="M331.934 228.889H329.095V231.728H331.934V228.889Z" fill="#F0F0F0"/>
<path d="M331.934 233.654H329.095V236.493H331.934V233.654Z" fill="#F0F0F0"/>
<path d="M331.934 238.408H329.095V241.247H331.934V238.408Z" fill="#F0F0F0"/>
<path d="M331.934 243.174H329.095V246.012H331.934V243.174Z" fill="#F0F0F0"/>
<path d="M331.934 247.939H329.095V250.777H331.934V247.939Z" fill="#F0F0F0"/>
<path d="M331.934 252.704H329.095V255.542H331.934V252.704Z" fill="#F0F0F0"/>
<path d="M327.419 224.124H324.581V226.963H327.419V224.124Z" fill="#F0F0F0"/>
<path d="M327.419 228.889H324.581V231.728H327.419V228.889Z" fill="#F0F0F0"/>
<path d="M327.419 233.654H324.581V236.493H327.419V233.654Z" fill="#F0F0F0"/>
<path d="M327.419 238.408H324.581V241.247H327.419V238.408Z" fill="#F0F0F0"/>
<path d="M327.419 243.174H324.581V246.012H327.419V243.174Z" fill="#F0F0F0"/>
<path d="M327.419 247.939H324.581V250.777H327.419V247.939Z" fill="#F0F0F0"/>
<path d="M327.419 252.704H324.581V255.542H327.419V252.704Z" fill="#F0F0F0"/>
<path d="M322.905 224.124H320.067V226.963H322.905V224.124Z" fill="#F0F0F0"/>
<path d="M322.905 228.889H320.067V231.728H322.905V228.889Z" fill="#F0F0F0"/>
<path d="M322.905 233.654H320.067V236.493H322.905V233.654Z" fill="#F0F0F0"/>
<path d="M322.905 238.408H320.067V241.247H322.905V238.408Z" fill="#F0F0F0"/>
<path d="M322.905 243.174H320.067V246.012H322.905V243.174Z" fill="#F0F0F0"/>
<path d="M322.905 247.939H320.067V250.777H322.905V247.939Z" fill="#F0F0F0"/>
<path d="M322.905 252.704H320.067V255.542H322.905V252.704Z" fill="#F0F0F0"/>
<path d="M322.905 257.469H320.067V260.308H322.905V257.469Z" fill="#F0F0F0"/>
<path d="M322.905 262.234H320.067V265.072H322.905V262.234Z" fill="#F0F0F0"/>
<path d="M322.905 267H320.067V269.838H322.905V267Z" fill="#F0F0F0"/>
<path d="M322.905 271.765H320.067V274.603H322.905V271.765Z" fill="#F0F0F0"/>
<path d="M318.391 224.124H315.552V226.963H318.391V224.124Z" fill="#F0F0F0"/>
<path d="M318.391 228.889H315.552V231.728H318.391V228.889Z" fill="#F0F0F0"/>
<path d="M318.391 233.654H315.552V236.493H318.391V233.654Z" fill="#F0F0F0"/>
<path d="M318.391 238.408H315.552V241.247H318.391V238.408Z" fill="#F0F0F0"/>
<path d="M318.391 243.174H315.552V246.012H318.391V243.174Z" fill="#F0F0F0"/>
<path d="M318.391 247.939H315.552V250.777H318.391V247.939Z" fill="#F0F0F0"/>
<path d="M318.391 252.704H315.552V255.542H318.391V252.704Z" fill="#F0F0F0"/>
<path d="M318.391 257.469H315.552V260.308H318.391V257.469Z" fill="#F0F0F0"/>
<path d="M318.391 262.234H315.552V265.072H318.391V262.234Z" fill="#F0F0F0"/>
<path d="M318.391 267H315.552V269.838H318.391V267Z" fill="#F0F0F0"/>
<path d="M318.391 271.765H315.552V274.603H318.391V271.765Z" fill="#F0F0F0"/>
<path d="M318.391 276.53H315.552V279.368H318.391V276.53Z" fill="#F0F0F0"/>
<path d="M318.391 290.814H315.552V293.653H318.391V290.814Z" fill="#F0F0F0"/>
<path d="M318.391 295.579H315.552V298.418H318.391V295.579Z" fill="#F0F0F0"/>
<path d="M313.876 224.124H311.038V226.963H313.876V224.124Z" fill="#F0F0F0"/>
<path d="M313.876 228.889H311.038V231.728H313.876V228.889Z" fill="#F0F0F0"/>
<path d="M313.876 233.654H311.038V236.493H313.876V233.654Z" fill="#F0F0F0"/>
<path d="M313.876 247.939H311.038V250.777H313.876V247.939Z" fill="#F0F0F0"/>
<path d="M313.876 252.704H311.038V255.542H313.876V252.704Z" fill="#F0F0F0"/>
<path d="M313.876 257.469H311.038V260.308H313.876V257.469Z" fill="#F0F0F0"/>
<path d="M313.876 262.234H311.038V265.072H313.876V262.234Z" fill="#F0F0F0"/>
<path d="M313.876 267H311.038V269.838H313.876V267Z" fill="#F0F0F0"/>
<path d="M313.876 271.765H311.038V274.603H313.876V271.765Z" fill="#F0F0F0"/>
<path d="M313.876 276.53H311.038V279.368H313.876V276.53Z" fill="#F0F0F0"/>
<path d="M313.876 290.814H311.038V293.653H313.876V290.814Z" fill="#F0F0F0"/>
<path d="M313.876 295.579H311.038V298.418H313.876V295.579Z" fill="#F0F0F0"/>
<path d="M313.876 300.344H311.038V303.183H313.876V300.344Z" fill="#F0F0F0"/>
<path d="M266.578 195.533H263.739V198.371H266.578V195.533Z" fill="#F0F0F0"/>
<path d="M266.578 200.298H263.739V203.136H266.578V200.298Z" fill="#F0F0F0"/>
<path d="M266.578 205.063H263.739V207.902H266.578V205.063Z" fill="#F0F0F0"/>
<path d="M266.578 209.828H263.739V212.667H266.578V209.828Z" fill="#F0F0F0"/>
<path d="M266.578 214.594H263.739V217.432H266.578V214.594Z" fill="#F0F0F0"/>
<path d="M266.578 219.359H263.739V222.197H266.578V219.359Z" fill="#F0F0F0"/>
<path d="M266.578 224.124H263.739V226.963H266.578V224.124Z" fill="#F0F0F0"/>
<path d="M266.578 228.889H263.739V231.728H266.578V228.889Z" fill="#F0F0F0"/>
<path d="M266.578 233.654H263.739V236.493H266.578V233.654Z" fill="#F0F0F0"/>
<path d="M266.578 238.408H263.739V241.247H266.578V238.408Z" fill="#F0F0F0"/>
<path d="M266.578 243.174H263.739V246.012H266.578V243.174Z" fill="#F0F0F0"/>
<path d="M266.578 247.939H263.739V250.777H266.578V247.939Z" fill="#F0F0F0"/>
<path d="M266.578 252.704H263.739V255.542H266.578V252.704Z" fill="#F0F0F0"/>
<path d="M266.578 257.469H263.739V260.308H266.578V257.469Z" fill="#F0F0F0"/>
<path d="M266.578 262.234H263.739V265.072H266.578V262.234Z" fill="#F0F0F0"/>
<path d="M266.578 267H263.739V269.838H266.578V267Z" fill="#F0F0F0"/>
<path d="M266.578 271.765H263.739V274.603H266.578V271.765Z" fill="#F0F0F0"/>
<path d="M266.578 276.53H263.739V279.368H266.578V276.53Z" fill="#F0F0F0"/>
<path d="M266.578 281.295H263.739V284.134H266.578V281.295Z" fill="#F0F0F0"/>
<path d="M266.578 286.049H263.739V288.887H266.578V286.049Z" fill="#F0F0F0"/>
<path d="M266.578 290.814H263.739V293.653H266.578V290.814Z" fill="#F0F0F0"/>
<path d="M266.578 295.579H263.739V298.418H266.578V295.579Z" fill="#F0F0F0"/>
<path d="M266.578 300.344H263.739V303.183H266.578V300.344Z" fill="#F0F0F0"/>
<path d="M262.063 195.533H259.225V198.371H262.063V195.533Z" fill="#F0F0F0"/>
<path d="M262.063 200.298H259.225V203.136H262.063V200.298Z" fill="#F0F0F0"/>
<path d="M262.063 205.063H259.225V207.902H262.063V205.063Z" fill="#F0F0F0"/>
<path d="M262.063 209.828H259.225V212.667H262.063V209.828Z" fill="#F0F0F0"/>
<path d="M262.063 214.594H259.225V217.432H262.063V214.594Z" fill="#F0F0F0"/>
<path d="M262.063 219.359H259.225V222.197H262.063V219.359Z" fill="#F0F0F0"/>
<path d="M262.063 224.124H259.225V226.963H262.063V224.124Z" fill="#F0F0F0"/>
<path d="M262.063 228.889H259.225V231.728H262.063V228.889Z" fill="#F0F0F0"/>
<path d="M262.063 233.654H259.225V236.493H262.063V233.654Z" fill="#F0F0F0"/>
<path d="M262.063 238.408H259.225V241.247H262.063V238.408Z" fill="#F0F0F0"/>
<path d="M262.063 243.174H259.225V246.012H262.063V243.174Z" fill="#F0F0F0"/>
<path d="M262.063 247.939H259.225V250.777H262.063V247.939Z" fill="#F0F0F0"/>
<path d="M262.063 252.704H259.225V255.542H262.063V252.704Z" fill="#F0F0F0"/>
<path d="M262.063 257.469H259.225V260.308H262.063V257.469Z" fill="#F0F0F0"/>
<path d="M262.063 262.234H259.225V265.072H262.063V262.234Z" fill="#F0F0F0"/>
<path d="M262.063 267H259.225V269.838H262.063V267Z" fill="#F0F0F0"/>
<path d="M262.063 271.765H259.225V274.603H262.063V271.765Z" fill="#F0F0F0"/>
<path d="M262.063 276.53H259.225V279.368H262.063V276.53Z" fill="#F0F0F0"/>
<path d="M262.063 281.295H259.225V284.134H262.063V281.295Z" fill="#F0F0F0"/>
<path d="M257.549 195.533H254.71V198.371H257.549V195.533Z" fill="#F0F0F0"/>
<path d="M257.549 200.298H254.71V203.136H257.549V200.298Z" fill="#F0F0F0"/>
<path d="M257.549 205.063H254.71V207.902H257.549V205.063Z" fill="#F0F0F0"/>
<path d="M257.549 209.828H254.71V212.667H257.549V209.828Z" fill="#F0F0F0"/>
<path d="M257.549 214.594H254.71V217.432H257.549V214.594Z" fill="#F0F0F0"/>
<path d="M257.549 219.359H254.71V222.197H257.549V219.359Z" fill="#F0F0F0"/>
<path d="M257.549 224.124H254.71V226.963H257.549V224.124Z" fill="#F0F0F0"/>
<path d="M257.549 228.889H254.71V231.728H257.549V228.889Z" fill="#F0F0F0"/>
<path d="M257.549 233.654H254.71V236.493H257.549V233.654Z" fill="#F0F0F0"/>
<path d="M257.549 238.408H254.71V241.247H257.549V238.408Z" fill="#F0F0F0"/>
<path d="M257.549 243.174H254.71V246.012H257.549V243.174Z" fill="#F0F0F0"/>
<path d="M257.549 247.939H254.71V250.777H257.549V247.939Z" fill="#F0F0F0"/>
<path d="M257.549 252.704H254.71V255.542H257.549V252.704Z" fill="#F0F0F0"/>
<path d="M257.549 257.469H254.71V260.308H257.549V257.469Z" fill="#F0F0F0"/>
<path d="M257.549 262.234H254.71V265.072H257.549V262.234Z" fill="#F0F0F0"/>
<path d="M257.549 267H254.71V269.838H257.549V267Z" fill="#F0F0F0"/>
<path d="M257.549 271.765H254.71V274.603H257.549V271.765Z" fill="#F0F0F0"/>
<path d="M257.549 276.53H254.71V279.368H257.549V276.53Z" fill="#F0F0F0"/>
<path d="M257.549 281.295H254.71V284.134H257.549V281.295Z" fill="#F0F0F0"/>
<path d="M253.034 195.533H250.196V198.371H253.034V195.533Z" fill="#F0F0F0"/>
<path d="M253.034 200.298H250.196V203.136H253.034V200.298Z" fill="#F0F0F0"/>
<path d="M253.034 205.063H250.196V207.902H253.034V205.063Z" fill="#F0F0F0"/>
<path d="M253.034 209.828H250.196V212.667H253.034V209.828Z" fill="#F0F0F0"/>
<path d="M253.034 214.594H250.196V217.432H253.034V214.594Z" fill="#F0F0F0"/>
<path d="M253.034 219.359H250.196V222.197H253.034V219.359Z" fill="#F0F0F0"/>
<path d="M253.034 224.124H250.196V226.963H253.034V224.124Z" fill="#F0F0F0"/>
<path d="M253.034 228.889H250.196V231.728H253.034V228.889Z" fill="#F0F0F0"/>
<path d="M253.034 233.654H250.196V236.493H253.034V233.654Z" fill="#F0F0F0"/>
<path d="M253.034 238.408H250.196V241.247H253.034V238.408Z" fill="#F0F0F0"/>
<path d="M253.034 243.174H250.196V246.012H253.034V243.174Z" fill="#F0F0F0"/>
<path d="M253.034 247.939H250.196V250.777H253.034V247.939Z" fill="#F0F0F0"/>
<path d="M253.034 252.704H250.196V255.542H253.034V252.704Z" fill="#F0F0F0"/>
<path d="M253.034 257.469H250.196V260.308H253.034V257.469Z" fill="#F0F0F0"/>
<path d="M253.034 262.234H250.196V265.072H253.034V262.234Z" fill="#F0F0F0"/>
<path d="M248.52 195.533H245.681V198.371H248.52V195.533Z" fill="#F0F0F0"/>
<path d="M248.52 200.298H245.681V203.136H248.52V200.298Z" fill="#F0F0F0"/>
<path d="M248.52 205.063H245.681V207.902H248.52V205.063Z" fill="#F0F0F0"/>
<path d="M248.52 209.828H245.681V212.667H248.52V209.828Z" fill="#F0F0F0"/>
<path d="M248.52 214.594H245.681V217.432H248.52V214.594Z" fill="#F0F0F0"/>
<path d="M248.52 219.359H245.681V222.197H248.52V219.359Z" fill="#F0F0F0"/>
<path d="M248.52 224.124H245.681V226.963H248.52V224.124Z" fill="#F0F0F0"/>
<path d="M248.52 228.889H245.681V231.728H248.52V228.889Z" fill="#F0F0F0"/>
<path d="M248.52 233.654H245.681V236.493H248.52V233.654Z" fill="#F0F0F0"/>
<path d="M248.52 238.408H245.681V241.247H248.52V238.408Z" fill="#F0F0F0"/>
<path d="M248.52 243.174H245.681V246.012H248.52V243.174Z" fill="#F0F0F0"/>
<path d="M248.52 247.939H245.681V250.777H248.52V247.939Z" fill="#F0F0F0"/>
<path d="M248.52 252.704H245.681V255.542H248.52V252.704Z" fill="#F0F0F0"/>
<path d="M244.006 195.533H241.167V198.371H244.006V195.533Z" fill="#F0F0F0"/>
<path d="M244.006 200.298H241.167V203.136H244.006V200.298Z" fill="#F0F0F0"/>
<path d="M244.006 205.063H241.167V207.902H244.006V205.063Z" fill="#F0F0F0"/>
<path d="M244.006 209.828H241.167V212.667H244.006V209.828Z" fill="#F0F0F0"/>
<path d="M244.006 214.594H241.167V217.432H244.006V214.594Z" fill="#F0F0F0"/>
<path d="M244.006 219.359H241.167V222.197H244.006V219.359Z" fill="#F0F0F0"/>
<path d="M244.006 224.124H241.167V226.963H244.006V224.124Z" fill="#F0F0F0"/>
<path d="M244.006 228.889H241.167V231.728H244.006V228.889Z" fill="#F0F0F0"/>
<path d="M244.006 233.654H241.167V236.493H244.006V233.654Z" fill="#F0F0F0"/>
<path d="M244.006 238.408H241.167V241.247H244.006V238.408Z" fill="#F0F0F0"/>
<path d="M244.006 243.174H241.167V246.012H244.006V243.174Z" fill="#F0F0F0"/>
<path d="M244.006 247.939H241.167V250.777H244.006V247.939Z" fill="#F0F0F0"/>
<path d="M507.448 194.12H504.61V196.958H507.448V194.12Z" fill="#F0F0F0"/>
<path d="M507.448 198.885H504.61V201.723H507.448V198.885Z" fill="#F0F0F0"/>
<path d="M507.448 203.649H504.61V206.488H507.448V203.649Z" fill="#F0F0F0"/>
<path d="M507.448 208.404H504.61V211.242H507.448V208.404Z" fill="#F0F0F0"/>
<path d="M507.448 213.168H504.61V216.007H507.448V213.168Z" fill="#F0F0F0"/>
<path d="M507.448 217.934H504.61V220.772H507.448V217.934Z" fill="#F0F0F0"/>
<path d="M507.448 222.699H504.61V225.538H507.448V222.699Z" fill="#F0F0F0"/>
<path d="M507.448 227.464H504.61V230.303H507.448V227.464Z" fill="#F0F0F0"/>
<path d="M507.448 232.229H504.61V235.068H507.448V232.229Z" fill="#F0F0F0"/>
<path d="M507.448 236.995H504.61V239.833H507.448V236.995Z" fill="#F0F0F0"/>
<path d="M507.448 241.76H504.61V244.598H507.448V241.76Z" fill="#F0F0F0"/>
<path d="M507.448 246.525H504.61V249.363H507.448V246.525Z" fill="#F0F0F0"/>
<path d="M507.448 251.29H504.61V254.129H507.448V251.29Z" fill="#F0F0F0"/>
<path d="M507.448 256.044H504.61V258.883H507.448V256.044Z" fill="#F0F0F0"/>
<path d="M507.448 260.809H504.61V263.647H507.448V260.809Z" fill="#F0F0F0"/>
<path d="M507.448 265.574H504.61V268.413H507.448V265.574Z" fill="#F0F0F0"/>
<path d="M507.448 270.34H504.61V273.178H507.448V270.34Z" fill="#F0F0F0"/>
<path d="M507.448 279.87H504.61V282.709H507.448V279.87Z" fill="#F0F0F0"/>
<path d="M507.448 284.635H504.61V287.474H507.448V284.635Z" fill="#F0F0F0"/>
<path d="M507.448 289.4H504.61V292.239H507.448V289.4Z" fill="#F0F0F0"/>
<path d="M507.448 294.166H504.61V297.004H507.448V294.166Z" fill="#F0F0F0"/>
<path d="M507.448 298.919H504.61V301.758H507.448V298.919Z" fill="#F0F0F0"/>
<path d="M502.934 194.12H500.095V196.958H502.934V194.12Z" fill="#F0F0F0"/>
<path d="M502.934 198.885H500.095V201.723H502.934V198.885Z" fill="#F0F0F0"/>
<path d="M502.934 203.649H500.095V206.488H502.934V203.649Z" fill="#F0F0F0"/>
<path d="M502.934 208.404H500.095V211.242H502.934V208.404Z" fill="#F0F0F0"/>
<path d="M502.934 213.168H500.095V216.007H502.934V213.168Z" fill="#F0F0F0"/>
<path d="M502.934 217.934H500.095V220.772H502.934V217.934Z" fill="#F0F0F0"/>
<path d="M502.934 222.699H500.095V225.538H502.934V222.699Z" fill="#F0F0F0"/>
<path d="M502.934 227.464H500.095V230.303H502.934V227.464Z" fill="#F0F0F0"/>
<path d="M502.934 232.229H500.095V235.068H502.934V232.229Z" fill="#F0F0F0"/>
<path d="M502.934 236.995H500.095V239.833H502.934V236.995Z" fill="#F0F0F0"/>
<path d="M502.934 241.76H500.095V244.598H502.934V241.76Z" fill="#F0F0F0"/>
<path d="M502.934 246.525H500.095V249.363H502.934V246.525Z" fill="#F0F0F0"/>
<path d="M502.934 251.29H500.095V254.129H502.934V251.29Z" fill="#F0F0F0"/>
<path d="M502.934 256.044H500.095V258.883H502.934V256.044Z" fill="#F0F0F0"/>
<path d="M502.934 260.809H500.095V263.647H502.934V260.809Z" fill="#F0F0F0"/>
<path d="M502.934 265.574H500.095V268.413H502.934V265.574Z" fill="#F0F0F0"/>
<path d="M502.934 294.166H500.095V297.004H502.934V294.166Z" fill="#F0F0F0"/>
<path d="M502.934 298.919H500.095V301.758H502.934V298.919Z" fill="#F0F0F0"/>
<path d="M498.431 194.12H495.592V196.958H498.431V194.12Z" fill="#F0F0F0"/>
<path d="M498.431 198.885H495.592V201.723H498.431V198.885Z" fill="#F0F0F0"/>
<path d="M498.431 203.649H495.592V206.488H498.431V203.649Z" fill="#F0F0F0"/>
<path d="M498.431 208.404H495.592V211.242H498.431V208.404Z" fill="#F0F0F0"/>
<path d="M498.431 213.168H495.592V216.007H498.431V213.168Z" fill="#F0F0F0"/>
<path d="M498.431 217.934H495.592V220.772H498.431V217.934Z" fill="#F0F0F0"/>
<path d="M498.431 222.699H495.592V225.538H498.431V222.699Z" fill="#F0F0F0"/>
<path d="M498.431 227.464H495.592V230.303H498.431V227.464Z" fill="#F0F0F0"/>
<path d="M498.431 232.229H495.592V235.068H498.431V232.229Z" fill="#F0F0F0"/>
<path d="M498.431 236.995H495.592V239.833H498.431V236.995Z" fill="#F0F0F0"/>
<path d="M498.431 241.76H495.592V244.598H498.431V241.76Z" fill="#F0F0F0"/>
<path d="M498.431 246.525H495.592V249.363H498.431V246.525Z" fill="#F0F0F0"/>
<path d="M498.431 251.29H495.592V254.129H498.431V251.29Z" fill="#F0F0F0"/>
<path d="M498.431 256.044H495.592V258.883H498.431V256.044Z" fill="#F0F0F0"/>
<path d="M498.431 260.809H495.592V263.647H498.431V260.809Z" fill="#F0F0F0"/>
<path d="M498.431 265.574H495.592V268.413H498.431V265.574Z" fill="#F0F0F0"/>
<path d="M498.431 275.105H495.592V277.943H498.431V275.105Z" fill="#F0F0F0"/>
<path d="M498.431 279.87H495.592V282.709H498.431V279.87Z" fill="#F0F0F0"/>
<path d="M498.431 284.635H495.592V287.474H498.431V284.635Z" fill="#F0F0F0"/>
<path d="M498.431 289.4H495.592V292.239H498.431V289.4Z" fill="#F0F0F0"/>
<path d="M498.431 298.919H495.592V301.758H498.431V298.919Z" fill="#F0F0F0"/>
<path d="M419.691 227.464H416.853V230.303H419.691V227.464Z" fill="#F0F0F0"/>
<path d="M419.691 232.229H416.853V235.068H419.691V232.229Z" fill="#F0F0F0"/>
<path d="M419.691 236.995H416.853V239.833H419.691V236.995Z" fill="#F0F0F0"/>
<path d="M419.691 241.76H416.853V244.598H419.691V241.76Z" fill="#F0F0F0"/>
<path d="M419.691 246.525H416.853V249.363H419.691V246.525Z" fill="#F0F0F0"/>
<path d="M419.691 251.29H416.853V254.129H419.691V251.29Z" fill="#F0F0F0"/>
<path d="M419.691 256.044H416.853V258.883H419.691V256.044Z" fill="#F0F0F0"/>
<path d="M419.691 260.809H416.853V263.647H419.691V260.809Z" fill="#F0F0F0"/>
<path d="M419.691 265.574H416.853V268.413H419.691V265.574Z" fill="#F0F0F0"/>
<path d="M419.691 270.34H416.853V273.178H419.691V270.34Z" fill="#F0F0F0"/>
<path d="M419.691 275.105H416.853V277.943H419.691V275.105Z" fill="#F0F0F0"/>
<path d="M419.691 279.87H416.853V282.709H419.691V279.87Z" fill="#F0F0F0"/>
<path d="M419.691 284.635H416.853V287.474H419.691V284.635Z" fill="#F0F0F0"/>
<path d="M419.691 294.166H416.853V297.004H419.691V294.166Z" fill="#F0F0F0"/>
<path d="M419.691 298.919H416.853V301.758H419.691V298.919Z" fill="#F0F0F0"/>
<path d="M419.691 303.685H416.853V306.523H419.691V303.685Z" fill="#F0F0F0"/>
<path d="M419.691 308.45H416.853V311.289H419.691V308.45Z" fill="#F0F0F0"/>
<path d="M419.691 317.98H416.853V320.819H419.691V317.98Z" fill="#F0F0F0"/>
<path d="M419.691 322.745H416.853V325.584H419.691V322.745Z" fill="#F0F0F0"/>
<path d="M419.691 327.511H416.853V330.349H419.691V327.511Z" fill="#F0F0F0"/>
<path d="M415.177 227.464H412.338V230.303H415.177V227.464Z" fill="#F0F0F0"/>
<path d="M415.177 232.229H412.338V235.068H415.177V232.229Z" fill="#F0F0F0"/>
<path d="M415.177 236.995H412.338V239.833H415.177V236.995Z" fill="#F0F0F0"/>
<path d="M415.177 241.76H412.338V244.598H415.177V241.76Z" fill="#F0F0F0"/>
<path d="M415.177 246.525H412.338V249.363H415.177V246.525Z" fill="#F0F0F0"/>
<path d="M415.177 251.29H412.338V254.129H415.177V251.29Z" fill="#F0F0F0"/>
<path d="M415.177 256.044H412.338V258.883H415.177V256.044Z" fill="#F0F0F0"/>
<path d="M415.177 260.809H412.338V263.647H415.177V260.809Z" fill="#F0F0F0"/>
<path d="M415.177 265.574H412.338V268.413H415.177V265.574Z" fill="#F0F0F0"/>
<path d="M415.177 270.34H412.338V273.178H415.177V270.34Z" fill="#F0F0F0"/>
<path d="M415.177 275.105H412.338V277.943H415.177V275.105Z" fill="#F0F0F0"/>
<path d="M415.177 279.87H412.338V282.709H415.177V279.87Z" fill="#F0F0F0"/>
<path d="M415.177 284.635H412.338V287.474H415.177V284.635Z" fill="#F0F0F0"/>
<path d="M415.177 298.919H412.338V301.758H415.177V298.919Z" fill="#F0F0F0"/>
<path d="M415.177 303.685H412.338V306.523H415.177V303.685Z" fill="#F0F0F0"/>
<path d="M415.177 313.215H412.338V316.054H415.177V313.215Z" fill="#F0F0F0"/>
<path d="M415.177 317.98H412.338V320.819H415.177V317.98Z" fill="#F0F0F0"/>
<path d="M415.177 322.745H412.338V325.584H415.177V322.745Z" fill="#F0F0F0"/>
<path d="M415.177 327.511H412.338V330.349H415.177V327.511Z" fill="#F0F0F0"/>
<path d="M410.662 227.464H407.824V230.303H410.662V227.464Z" fill="#F0F0F0"/>
<path d="M410.662 232.229H407.824V235.068H410.662V232.229Z" fill="#F0F0F0"/>
<path d="M410.662 236.995H407.824V239.833H410.662V236.995Z" fill="#F0F0F0"/>
<path d="M410.662 241.76H407.824V244.598H410.662V241.76Z" fill="#F0F0F0"/>
<path d="M410.662 246.525H407.824V249.363H410.662V246.525Z" fill="#F0F0F0"/>
<path d="M410.662 251.29H407.824V254.129H410.662V251.29Z" fill="#F0F0F0"/>
<path d="M410.662 256.044H407.824V258.883H410.662V256.044Z" fill="#F0F0F0"/>
<path d="M410.662 260.809H407.824V263.647H410.662V260.809Z" fill="#F0F0F0"/>
<path d="M410.662 265.574H407.824V268.413H410.662V265.574Z" fill="#F0F0F0"/>
<path d="M410.662 270.34H407.824V273.178H410.662V270.34Z" fill="#F0F0F0"/>
<path d="M410.662 275.105H407.824V277.943H410.662V275.105Z" fill="#F0F0F0"/>
<path d="M410.662 279.87H407.824V282.709H410.662V279.87Z" fill="#F0F0F0"/>
<path d="M410.662 284.635H407.824V287.474H410.662V284.635Z" fill="#F0F0F0"/>
<path d="M410.662 289.4H407.824V292.239H410.662V289.4Z" fill="#F0F0F0"/>
<path d="M410.662 298.919H407.824V301.758H410.662V298.919Z" fill="#F0F0F0"/>
<path d="M410.662 308.45H407.824V311.289H410.662V308.45Z" fill="#F0F0F0"/>
<path d="M410.662 313.215H407.824V316.054H410.662V313.215Z" fill="#F0F0F0"/>
<path d="M410.662 317.98H407.824V320.819H410.662V317.98Z" fill="#F0F0F0"/>
<path d="M410.662 322.745H407.824V325.584H410.662V322.745Z" fill="#F0F0F0"/>
<path d="M410.662 327.511H407.824V330.349H410.662V327.511Z" fill="#F0F0F0"/>
<path d="M438.079 254.63H435.24V257.469H438.079V254.63Z" fill="#F0F0F0"/>
<path d="M438.079 259.396H435.24V262.234H438.079V259.396Z" fill="#F0F0F0"/>
<path d="M438.079 264.161H435.24V266.999H438.079V264.161Z" fill="#F0F0F0"/>
<path d="M438.079 268.915H435.24V271.753H438.079V268.915Z" fill="#F0F0F0"/>
<path d="M438.079 273.68H435.24V276.518H438.079V273.68Z" fill="#F0F0F0"/>
<path d="M438.079 278.445H435.24V281.284H438.079V278.445Z" fill="#F0F0F0"/>
<path d="M438.079 292.74H435.24V295.579H438.079V292.74Z" fill="#F0F0F0"/>
<path d="M438.079 297.506H435.24V300.344H438.079V297.506Z" fill="#F0F0F0"/>
<path d="M438.079 302.271H435.24V305.11H438.079V302.271Z" fill="#F0F0F0"/>
<path d="M438.079 307.036H435.24V309.875H438.079V307.036Z" fill="#F0F0F0"/>
<path d="M438.079 311.801H435.24V314.64H438.079V311.801Z" fill="#F0F0F0"/>
<path d="M438.079 316.555H435.24V319.394H438.079V316.555Z" fill="#F0F0F0"/>
<path d="M438.079 321.32H435.24V324.159H438.079V321.32Z" fill="#F0F0F0"/>
<path d="M433.565 254.63H430.726V257.469H433.565V254.63Z" fill="#F0F0F0"/>
<path d="M433.565 259.396H430.726V262.234H433.565V259.396Z" fill="#F0F0F0"/>
<path d="M433.565 264.161H430.726V266.999H433.565V264.161Z" fill="#F0F0F0"/>
<path d="M433.565 268.915H430.726V271.753H433.565V268.915Z" fill="#F0F0F0"/>
<path d="M433.565 273.68H430.726V276.518H433.565V273.68Z" fill="#F0F0F0"/>
<path d="M433.565 278.445H430.726V281.284H433.565V278.445Z" fill="#F0F0F0"/>
<path d="M433.565 292.74H430.726V295.579H433.565V292.74Z" fill="#F0F0F0"/>
<path d="M433.565 297.506H430.726V300.344H433.565V297.506Z" fill="#F0F0F0"/>
<path d="M433.565 302.271H430.726V305.11H433.565V302.271Z" fill="#F0F0F0"/>
<path d="M433.565 307.036H430.726V309.875H433.565V307.036Z" fill="#F0F0F0"/>
<path d="M433.565 311.801H430.726V314.64H433.565V311.801Z" fill="#F0F0F0"/>
<path d="M433.565 316.555H430.726V319.394H433.565V316.555Z" fill="#F0F0F0"/>
<path d="M433.565 326.086H430.726V328.924H433.565V326.086Z" fill="#F0F0F0"/>
<path d="M283.621 233.654H280.782V236.493H283.621V233.654Z" fill="#F0F0F0"/>
<path d="M283.621 238.408H280.782V241.247H283.621V238.408Z" fill="#F0F0F0"/>
<path d="M283.621 243.174H280.782V246.012H283.621V243.174Z" fill="#F0F0F0"/>
<path d="M283.621 247.939H280.782V250.777H283.621V247.939Z" fill="#F0F0F0"/>
<path d="M283.621 252.704H280.782V255.542H283.621V252.704Z" fill="#F0F0F0"/>
<path d="M283.621 257.469H280.782V260.308H283.621V257.469Z" fill="#F0F0F0"/>
<path d="M283.621 262.234H280.782V265.072H283.621V262.234Z" fill="#F0F0F0"/>
<path d="M283.621 267H280.782V269.838H283.621V267Z" fill="#F0F0F0"/>
<path d="M283.621 271.765H280.782V274.603H283.621V271.765Z" fill="#F0F0F0"/>
<path d="M283.621 276.53H280.782V279.368H283.621V276.53Z" fill="#F0F0F0"/>
<path d="M283.621 281.295H280.782V284.134H283.621V281.295Z" fill="#F0F0F0"/>
<path d="M283.621 290.814H280.782V293.653H283.621V290.814Z" fill="#F0F0F0"/>
<path d="M283.621 295.579H280.782V298.418H283.621V295.579Z" fill="#F0F0F0"/>
<path d="M283.621 300.344H280.782V303.183H283.621V300.344Z" fill="#F0F0F0"/>
<path d="M283.621 305.11H280.782V307.949H283.621V305.11Z" fill="#F0F0F0"/>
<path d="M283.621 309.875H280.782V312.713H283.621V309.875Z" fill="#F0F0F0"/>
<path d="M283.621 314.64H280.782V317.478H283.621V314.64Z" fill="#F0F0F0"/>
<path d="M283.621 319.405H280.782V322.244H283.621V319.405Z" fill="#F0F0F0"/>
<path d="M283.621 324.17H280.782V327.009H283.621V324.17Z" fill="#F0F0F0"/>
<path d="M279.118 233.654H276.279V236.493H279.118V233.654Z" fill="#F0F0F0"/>
<path d="M279.118 238.408H276.279V241.247H279.118V238.408Z" fill="#F0F0F0"/>
<path d="M279.118 243.174H276.279V246.012H279.118V243.174Z" fill="#F0F0F0"/>
<path d="M279.118 247.939H276.279V250.777H279.118V247.939Z" fill="#F0F0F0"/>
<path d="M279.118 252.704H276.279V255.542H279.118V252.704Z" fill="#F0F0F0"/>
<path d="M279.118 257.469H276.279V260.308H279.118V257.469Z" fill="#F0F0F0"/>
<path d="M279.118 262.234H276.279V265.072H279.118V262.234Z" fill="#F0F0F0"/>
<path d="M279.118 267H276.279V269.838H279.118V267Z" fill="#F0F0F0"/>
<path d="M279.118 271.765H276.279V274.603H279.118V271.765Z" fill="#F0F0F0"/>
<path d="M279.118 276.53H276.279V279.368H279.118V276.53Z" fill="#F0F0F0"/>
<path d="M279.118 281.295H276.279V284.134H279.118V281.295Z" fill="#F0F0F0"/>
<path d="M279.118 286.049H276.279V288.887H279.118V286.049Z" fill="#F0F0F0"/>
<path d="M279.118 290.814H276.279V293.653H279.118V290.814Z" fill="#F0F0F0"/>
<path d="M279.118 295.579H276.279V298.418H279.118V295.579Z" fill="#F0F0F0"/>
<path d="M279.118 300.344H276.279V303.183H279.118V300.344Z" fill="#F0F0F0"/>
<path d="M279.118 305.11H276.279V307.949H279.118V305.11Z" fill="#F0F0F0"/>
<path d="M279.118 309.875H276.279V312.713H279.118V309.875Z" fill="#F0F0F0"/>
<path d="M279.118 314.64H276.279V317.478H279.118V314.64Z" fill="#F0F0F0"/>
<path d="M279.118 319.405H276.279V322.244H279.118V319.405Z" fill="#F0F0F0"/>
<path d="M279.118 324.17H276.279V327.009H279.118V324.17Z" fill="#F0F0F0"/>
<path d="M305.862 252.202H303.024V255.041H305.862V252.202Z" fill="#F0F0F0"/>
<path d="M305.862 256.967H303.024V259.806H305.862V256.967Z" fill="#F0F0F0"/>
<path d="M305.862 261.733H303.024V264.571H305.862V261.733Z" fill="#F0F0F0"/>
<path d="M305.862 266.498H303.024V269.337H305.862V266.498Z" fill="#F0F0F0"/>
<path d="M305.862 271.263H303.024V274.101H305.862V271.263Z" fill="#F0F0F0"/>
<path d="M305.862 276.028H303.024V278.867H305.862V276.028Z" fill="#F0F0F0"/>
<path d="M305.862 280.794H303.024V283.633H305.862V280.794Z" fill="#F0F0F0"/>
<path d="M305.862 285.547H303.024V288.386H305.862V285.547Z" fill="#F0F0F0"/>
<path d="M305.862 290.312H303.024V293.151H305.862V290.312Z" fill="#F0F0F0"/>
<path d="M305.862 295.078H303.024V297.916H305.862V295.078Z" fill="#F0F0F0"/>
<path d="M301.347 252.202H298.509V255.041H301.347V252.202Z" fill="#F0F0F0"/>
<path d="M301.347 256.967H298.509V259.806H301.347V256.967Z" fill="#F0F0F0"/>
<path d="M301.347 261.733H298.509V264.571H301.347V261.733Z" fill="#F0F0F0"/>
<path d="M301.347 266.498H298.509V269.337H301.347V266.498Z" fill="#F0F0F0"/>
<path d="M301.347 271.263H298.509V274.101H301.347V271.263Z" fill="#F0F0F0"/>
<path d="M301.347 276.028H298.509V278.867H301.347V276.028Z" fill="#F0F0F0"/>
<path d="M301.347 280.794H298.509V283.633H301.347V280.794Z" fill="#F0F0F0"/>
<path d="M301.347 285.547H298.509V288.386H301.347V285.547Z" fill="#F0F0F0"/>
<path d="M301.347 290.312H298.509V293.151H301.347V290.312Z" fill="#F0F0F0"/>
<path d="M328.195 71.4097H323.429V337.121H328.195V71.4097Z" fill="#E0E0E0"/>
<path d="M417.924 71.4097H413.159V337.121H417.924V71.4097Z" fill="#E0E0E0"/>
<path d="M507.642 71.4097H502.877V337.121H507.642V71.4097Z" fill="#E0E0E0"/>
<path d="M168.515 311.22H197.904C199.237 311.22 200.516 311.75 201.459 312.693C202.402 313.636 202.931 314.914 202.931 316.248V373.054H163.499V316.293C163.493 315.63 163.618 314.972 163.867 314.358C164.116 313.743 164.485 313.184 164.951 312.713C165.417 312.241 165.972 311.867 166.584 311.61C167.195 311.354 167.852 311.222 168.515 311.22Z" fill="#F0F0F0"/>
<path d="M202.931 319.633H163.499V324.068H202.931V319.633Z" fill="#E6E6E6"/>
<path d="M185.923 365.609H195.749C196.466 365.609 197.153 365.894 197.66 366.401C198.166 366.907 198.451 367.595 198.451 368.311V373.099H183.209V368.311C183.209 367.955 183.28 367.603 183.416 367.275C183.553 366.946 183.753 366.648 184.005 366.397C184.257 366.146 184.556 365.947 184.885 365.812C185.214 365.677 185.567 365.608 185.923 365.609Z" fill="#E0E0E0"/>
<path d="M198.497 373.099H187.576C187.11 373.099 186.663 372.914 186.334 372.585C186.005 372.256 185.82 371.809 185.82 371.344C185.823 370.88 186.009 370.436 186.338 370.11C186.667 369.783 187.112 369.599 187.576 369.599H198.497C198.96 369.599 199.405 369.783 199.734 370.11C200.063 370.436 200.249 370.88 200.252 371.344C200.252 371.809 200.067 372.256 199.738 372.585C199.409 372.914 198.962 373.099 198.497 373.099Z" fill="#E6E6E6"/>
<path d="M373.594 58.943C388.025 55.537 396.962 41.0775 393.556 26.6468C390.15 12.2161 375.691 3.27883 361.26 6.68479C346.829 10.0907 337.892 24.5502 341.298 38.9809C344.704 53.4116 359.163 62.3489 373.594 58.943Z" fill="#E0E0E0"/>
<path d="M371.079 55.3221C383.527 53.3015 391.98 41.5723 389.959 29.1243C387.939 16.6762 376.209 8.22311 363.761 10.2437C351.313 12.2643 342.86 23.9935 344.881 36.4415C346.901 48.8896 358.631 57.3427 371.079 55.3221Z" fill="#F0F0F0"/>
<path d="M368.505 17.1343V33.0943L379.073 27.1093" fill="#F0F0F0"/>
<path d="M368.505 34.2C368.3 34.1999 368.1 34.1448 367.924 34.0404C367.753 33.9395 367.612 33.796 367.514 33.6241C367.417 33.4522 367.365 33.2578 367.365 33.06V17.1C367.365 16.7976 367.485 16.5076 367.699 16.2939C367.913 16.0801 368.203 15.96 368.505 15.96C368.807 15.96 369.097 16.0801 369.311 16.2939C369.525 16.5076 369.645 16.7976 369.645 17.1V31.1334L378.514 26.1174C378.777 25.9697 379.088 25.9323 379.379 26.0135C379.67 26.0947 379.916 26.2879 380.065 26.5506C380.213 26.8123 380.252 27.1222 380.173 27.4127C380.094 27.7032 379.904 27.9506 379.643 28.101L369.064 34.086C368.889 34.1667 368.698 34.2058 368.505 34.2Z" fill="#E0E0E0"/>
<path d="M397.146 428.51L360.765 424.936V373.792H346.343V424.911L309.861 428.51C308.111 428.682 306.488 429.499 305.307 430.801C304.126 432.103 303.472 433.798 303.471 435.556V441.024H403.587V435.556C403.587 433.79 402.927 432.087 401.735 430.782C400.543 429.478 398.906 428.668 397.146 428.51Z" fill="#263238"/>
<path opacity="0.2" d="M397.146 428.51L360.765 424.936V373.792H346.343V424.911L309.861 428.51C308.111 428.682 306.488 429.499 305.307 430.801C304.126 432.103 303.472 433.798 303.471 435.556V441.024H403.587V435.556C403.587 433.79 402.927 432.087 401.735 430.782C400.543 429.478 398.906 428.668 397.146 428.51Z" fill="white"/>
<path d="M307.272 457.239C312.482 457.239 316.705 453.015 316.705 447.805C316.705 442.596 312.482 438.372 307.272 438.372C302.062 438.372 297.839 442.596 297.839 447.805C297.839 453.015 302.062 457.239 307.272 457.239Z" fill="#263238"/>
<path d="M399.697 457.239C404.907 457.239 409.13 453.015 409.13 447.805C409.13 442.596 404.907 438.372 399.697 438.372C394.487 438.372 390.264 442.596 390.264 447.805C390.264 453.015 394.487 457.239 399.697 457.239Z" fill="#263238"/>
<path d="M343.869 339.241H363.253V379.563C363.253 380.946 362.703 382.273 361.725 383.251C360.747 384.229 359.421 384.778 358.037 384.778H349.084C347.701 384.778 346.374 384.229 345.396 383.251C344.418 382.273 343.869 380.946 343.869 379.563V339.241Z" fill="#263238"/>
<path opacity="0.3" d="M343.869 339.241H363.253V379.563C363.253 380.946 362.703 382.273 361.725 383.251C360.747 384.229 359.421 384.778 358.037 384.778H349.084C347.701 384.778 346.374 384.229 345.396 383.251C344.418 382.273 343.869 380.946 343.869 379.563V339.241Z" fill="white"/>
<path d="M388.029 259.318C388.029 259.318 390.782 327.51 371.789 339.242H393.472C393.472 339.242 410.267 316.019 405.519 259.318H388.029Z" fill="#263238"/>
<path opacity="0.3" d="M388.029 259.318C388.029 259.318 390.782 327.51 371.789 339.242H393.472C393.472 339.242 410.267 316.019 405.519 259.318H388.029Z" fill="white"/>
<path d="M400.846 344.47H303.711V336.022C303.711 334.347 304.376 332.741 305.56 331.557C306.744 330.373 308.35 329.707 310.025 329.707H394.532C396.207 329.707 397.813 330.373 398.997 331.557C400.181 332.741 400.846 334.347 400.846 336.022V344.47Z" fill="#263238"/>
<path d="M302.196 344.47H402.349C403.751 344.47 404.887 343.333 404.887 341.931V339.633C404.887 338.231 403.751 337.095 402.349 337.095H302.196C300.794 337.095 299.657 338.231 299.657 339.633V341.931C299.657 343.333 300.794 344.47 302.196 344.47Z" fill="#263238"/>
<path opacity="0.6" d="M302.196 344.47H402.349C403.751 344.47 404.887 343.333 404.887 341.931V339.633C404.887 338.231 403.751 337.095 402.349 337.095H302.196C300.794 337.095 299.657 338.231 299.657 339.633V341.931C299.657 343.333 300.794 344.47 302.196 344.47Z" fill="white"/>
<path d="M410.835 222.76H376.108C365.939 222.76 357.696 231.003 357.696 241.172V254.76C357.696 264.928 365.939 273.171 376.108 273.171H410.835C421.004 273.171 429.247 264.928 429.247 254.76V241.172C429.247 231.003 421.004 222.76 410.835 222.76Z" fill="#263238"/>
<path d="M270.776 167.045L263.844 148.772C263.844 148.772 266.824 146.019 264.778 143.228C262.732 140.437 249.953 132.595 247.629 133.972C245.306 135.348 240.115 140.551 242.919 143.443C245.722 146.335 258.073 151.146 258.073 151.146L264.21 175.139L270.776 167.045Z" fill="#E4897B"/>
<path d="M319.18 201.784C319.18 201.784 287.61 195.306 284.238 193.753C280.866 192.2 268.188 155.035 268.188 155.035L258.452 159.581C258.452 159.581 266.281 196.885 274.287 205.75C282.293 214.615 316.465 222.166 316.465 222.166L319.18 201.784Z" fill="#FD391E"/>
<path opacity="0.2" d="M316.389 222.128L315.808 221.989C314.091 221.598 308.699 220.335 302.296 218.454C291.903 215.435 278.795 210.877 274.224 205.762C266.23 196.923 258.388 159.581 258.388 159.581L268.112 155.035C268.112 155.035 280.803 192.212 284.238 193.753C287.673 195.294 319.18 201.784 319.18 201.784L316.389 222.128Z" fill="black"/>
<path d="M268.276 154.303L270.284 158.18L257.782 162.486L258.262 157.751L268.276 154.303Z" fill="#FD391E"/>
<path opacity="0.2" d="M316.629 221.611C314.886 221.358 309.418 220.512 302.877 219.085C306.602 212.645 317.513 209.336 317.513 209.336L316.629 221.611Z" fill="black"/>
<path d="M363.631 176.049C363.631 176.049 365.488 193.514 359.022 197.807C352.556 202.101 320.721 197.075 317.109 190.041C313.498 183.007 327.085 163.938 327.085 163.938L363.631 176.049Z" fill="#263238"/>
<path d="M234.837 405.855L243.146 407.863L247.351 396.397L251.165 385.966L241.706 381.938L238.07 394.591L234.837 405.855Z" fill="#E4897B"/>
<path opacity="0.2" d="M238.07 394.591L247.351 396.397L251.165 385.966L241.707 381.938L238.07 394.591Z" fill="black"/>
<path d="M238.903 388.542L250.42 392.823C250.42 392.823 281.144 316.006 287.458 315.791C293.772 315.577 358.062 345.076 374.175 328.685C390.289 312.293 366.99 272.767 366.99 272.767C366.99 272.767 328.234 267.236 325.317 275.988C324.599 278.567 324.051 281.191 323.676 283.842C323.234 286.519 322.931 288.767 322.931 288.767C321.731 288.464 282.824 278.425 267.493 288.767C251.897 299.286 238.903 388.542 238.903 388.542Z" fill="#FD391E"/>
<path opacity="0.6" d="M238.903 388.542L250.42 392.823C250.42 392.823 281.144 316.006 287.458 315.791C293.772 315.577 358.062 345.076 374.175 328.685C390.289 312.293 366.99 272.767 366.99 272.767C366.99 272.767 328.234 267.236 325.317 275.988C324.599 278.567 324.051 281.191 323.676 283.842C323.234 286.519 322.931 288.767 322.931 288.767C321.731 288.464 282.824 278.425 267.493 288.767C251.897 299.286 238.903 388.542 238.903 388.542Z" fill="white"/>
<path d="M305.15 438.625L313.422 436.516L311.831 424.633L310.353 413.748L300.124 414.67L302.776 427.361L305.15 438.625Z" fill="#E4897B"/>
<path opacity="0.2" d="M302.839 427.613L311.881 424.86L310.378 413.861L300.137 414.732L302.839 427.613Z" fill="black"/>
<path d="M255.181 388.554L238.398 382.859L237.678 389.729L250.407 394.224L255.181 388.554Z" fill="#FD391E"/>
<path d="M346.343 332.574C346.343 332.574 343.717 332.638 303.067 330.743C303.067 330.743 309.141 381.559 312.462 419.607L300.301 421.678C300.301 421.678 271.256 340.214 271.572 327.271C271.888 314.327 286.726 310.538 286.726 310.538C286.726 310.538 315.682 327.271 346.343 332.574Z" fill="#FD391E"/>
<path opacity="0.6" d="M346.343 332.574C346.343 332.574 343.717 332.638 303.067 330.743C303.067 330.743 309.141 381.559 312.462 419.607L300.301 421.678C300.301 421.678 271.256 340.214 271.572 327.271C271.888 314.327 286.726 310.538 286.726 310.538C286.726 310.538 315.682 327.271 346.343 332.574Z" fill="white"/>
<path opacity="0.1" d="M346.343 332.574C346.343 332.574 343.717 332.638 303.067 330.743C303.067 330.743 309.141 381.559 312.462 419.607L300.301 421.678C300.301 421.678 271.256 340.214 271.572 327.271C271.888 314.327 286.726 310.538 286.726 310.538C286.726 310.538 315.682 327.271 346.343 332.574Z" fill="black"/>
<path d="M314.23 415.919L297.523 417.826L300.755 424.368L314.28 422.638L314.23 415.919Z" fill="#FD391E"/>
<path opacity="0.1" d="M322.931 288.767L345.598 293.49C345.598 293.49 333.071 286.57 323.676 283.842C323.234 286.519 322.931 288.767 322.931 288.767Z" fill="black"/>
<path d="M366.056 266.744L366.99 272.767L325.318 275.987L324.219 268.853L366.056 266.744Z" fill="#263238"/>
<path opacity="0.2" d="M366.056 266.744L366.99 272.767L325.318 275.987L324.219 268.853L366.056 266.744Z" fill="black"/>
<path d="M352.912 276.836L354.972 276.624L353.894 266.135L351.834 266.347L352.912 276.836Z" fill="#FD391E"/>
<path d="M334.399 275.788L343.522 275.202L343.077 268.283L333.954 268.87L334.399 275.788Z" fill="white"/>
<path d="M327.343 277.938L329.404 277.726L328.325 267.237L326.265 267.448L327.343 277.938Z" fill="#FD391E"/>
<path opacity="0.6" d="M352.912 276.836L354.972 276.624L353.894 266.135L351.834 266.347L352.912 276.836Z" fill="white"/>
<path opacity="0.6" d="M327.343 277.938L329.404 277.726L328.325 267.237L326.265 267.448L327.343 277.938Z" fill="white"/>
<path d="M318.423 201.216C326.228 203.373 334.328 204.264 342.416 203.856C355.802 203.174 371.738 209.627 371.738 209.627L366.005 266.706L324.156 268.815C324.156 268.815 310.151 221.194 318.423 201.216Z" fill="#FD391E"/>
<path d="M325.153 168.977C325.153 168.977 327.502 141.271 350.662 151.297C379.707 163.925 356.622 197.693 342.416 190.773C328.209 183.853 325.153 168.977 325.153 168.977Z" fill="#263238"/>
<path opacity="0.2" d="M331.644 205.409L332.313 221.068L337.504 213.706C337.504 213.706 335.647 231.019 336.733 240.452C336.733 240.452 337.731 223.543 340.08 213.706L345.598 221.068L353.516 205.51C353.516 205.51 340.698 200.901 331.644 205.409Z" fill="black"/>
<path d="M338.817 208.364L350.801 204.98C343.413 199.928 347.139 188.563 347.139 188.563L335.268 192.73C335.814 194.38 336.236 196.069 336.531 197.781C337.794 205.182 334.435 205.775 334.435 205.775L338.817 208.364Z" fill="#E4897B"/>
<path opacity="0.2" d="M335.268 192.667C335.814 194.317 336.236 196.005 336.531 197.718C342.214 195.432 347.126 188.474 347.126 188.474L335.268 192.667Z" fill="black"/>
<path d="M343.022 157.157C332.503 154.834 327.868 159.683 324.711 170.366C320.759 183.689 321.63 193.968 335.407 193.993C354.122 194.019 360.474 161.021 343.022 157.157Z" fill="#E4897B"/>
<path d="M331.631 171.288C330.447 172.672 329.099 173.906 327.615 174.963C327.827 175.469 328.176 175.905 328.622 176.224C329.068 176.543 329.594 176.732 330.141 176.769L331.631 171.288Z" fill="#DE5753"/>
<path d="M338.261 171.844C338.047 172.702 338.337 173.523 338.918 173.662C339.499 173.801 340.118 173.22 340.332 172.399C340.547 171.578 340.257 170.732 339.676 170.581C339.095 170.429 338.476 170.985 338.261 171.844Z" fill="#263238"/>
<path d="M339.903 170.644L338.223 169.457C338.223 169.457 338.766 171.263 339.903 170.644Z" fill="#263238"/>
<path d="M327.628 169.04C327.414 169.899 327.704 170.719 328.285 170.858C328.866 170.997 329.548 170.416 329.699 169.596C329.851 168.775 329.623 167.929 329.043 167.777C328.462 167.626 327.843 168.181 327.628 169.04Z" fill="#263238"/>
<path d="M329.27 167.84L327.54 166.691C327.54 166.691 328.133 168.446 329.27 167.84Z" fill="#263238"/>
<path d="M344.184 167.663C344.099 167.665 344.015 167.643 343.942 167.601C343.869 167.559 343.808 167.497 343.767 167.423C343.351 166.774 342.795 166.226 342.139 165.819C341.483 165.413 340.745 165.158 339.978 165.074C339.858 165.059 339.748 164.998 339.671 164.904C339.593 164.81 339.554 164.691 339.562 164.569C339.574 164.448 339.635 164.336 339.729 164.258C339.824 164.18 339.945 164.142 340.067 164.153C340.998 164.243 341.895 164.547 342.688 165.042C343.481 165.538 344.149 166.21 344.638 167.007C344.666 167.06 344.683 167.119 344.689 167.18C344.694 167.24 344.686 167.301 344.668 167.359C344.649 167.416 344.619 167.47 344.579 167.515C344.539 167.561 344.491 167.599 344.436 167.625C344.356 167.657 344.27 167.67 344.184 167.663Z" fill="#263238"/>
<path d="M332.427 162.903C332.341 162.902 332.258 162.875 332.187 162.827C331.566 162.529 330.887 162.375 330.198 162.375C329.51 162.375 328.83 162.529 328.209 162.827C328.154 162.85 328.096 162.861 328.037 162.86C327.978 162.86 327.92 162.847 327.865 162.824C327.811 162.8 327.762 162.766 327.722 162.723C327.681 162.68 327.649 162.63 327.628 162.575C327.606 162.519 327.594 162.46 327.595 162.4C327.595 162.34 327.608 162.28 327.631 162.225C327.654 162.17 327.689 162.12 327.732 162.078C327.774 162.036 327.825 162.003 327.881 161.981C328.635 161.63 329.46 161.457 330.292 161.474C331.124 161.492 331.941 161.7 332.679 162.082C332.73 162.114 332.774 162.156 332.809 162.205C332.843 162.255 332.868 162.31 332.881 162.369C332.894 162.428 332.895 162.488 332.884 162.547C332.873 162.607 332.851 162.663 332.818 162.714C332.773 162.775 332.714 162.824 332.646 162.857C332.578 162.89 332.503 162.906 332.427 162.903Z" fill="#263238"/>
<path d="M350.586 177.412C350.586 177.412 347.581 167.689 349.803 161.185C349.803 161.185 330.861 148.065 325.153 168.977C325.153 168.977 327.262 149.757 345.434 153.343C363.606 156.93 357.658 183.335 346.583 189.144C346.583 189.144 352.43 183.487 350.586 177.412Z" fill="#263238"/>
<path d="M348.376 179.319C348.746 178.124 349.574 177.125 350.68 176.54C351.785 175.955 353.078 175.833 354.274 176.2C357.456 177.273 357.519 184.307 349.071 184.118C347.846 184.029 347.442 182.754 348.376 179.319Z" fill="#E4897B"/>
<path d="M328.234 180.759C328.515 182.048 328.701 183.357 328.79 184.674H329.472C332.616 184.939 334.157 184.017 334.915 182.931C335.277 182.391 335.502 181.771 335.571 181.125C335.625 180.761 335.625 180.391 335.571 180.026C333.544 180.725 331.391 180.979 329.257 180.771C328.651 180.809 328.234 180.759 328.234 180.759Z" fill="#263238"/>
<path d="M329.308 180.835L329.498 181.984C332.452 182.224 334.549 181.984 335.572 181.188C335.625 180.824 335.625 180.454 335.572 180.09C333.561 180.781 331.425 181.035 329.308 180.835Z" fill="white"/>
<path d="M329.472 184.737C332.616 185.002 334.157 184.08 334.915 182.994C333.722 182.916 332.525 183.049 331.379 183.386C330.617 183.624 329.949 184.097 329.472 184.737Z" fill="#DE5753"/>
<path d="M343.06 158.003C343.06 158.003 343.464 176.225 354.425 178.423C365.386 180.62 353.415 154.985 353.415 154.985C353.415 154.985 337.124 144.352 326.264 151.853C315.404 159.354 325.178 168.977 325.178 168.977C325.178 168.977 327.439 155.439 343.06 158.003Z" fill="#263238"/>
<path d="M347.24 174.685C347.166 174.684 347.094 174.657 347.038 174.609C339.259 168.497 343.098 156.804 343.136 156.69C343.164 156.611 343.222 156.546 343.297 156.508C343.373 156.471 343.459 156.463 343.54 156.488C343.618 156.516 343.683 156.575 343.718 156.651C343.754 156.726 343.758 156.813 343.729 156.892C343.729 157.006 340.004 168.257 347.429 174.117C347.459 174.145 347.483 174.179 347.5 174.217C347.516 174.255 347.525 174.296 347.525 174.338C347.525 174.379 347.516 174.42 347.5 174.458C347.483 174.496 347.459 174.53 347.429 174.559C347.408 174.592 347.381 174.62 347.348 174.642C347.315 174.664 347.278 174.678 347.24 174.685Z" fill="#263238"/>
<path d="M357.595 182.16C356.206 185.873 352.632 187.957 349.614 186.833C346.596 185.709 345.282 181.782 346.671 178.069C348.061 174.356 351.634 172.273 354.652 173.409C357.671 174.546 358.984 178.46 357.595 182.16Z" fill="#FD391E"/>
<path opacity="0.4" d="M357.595 182.16C356.206 185.873 352.632 187.957 349.614 186.833C346.596 185.709 345.282 181.782 346.671 178.069C348.061 174.356 351.634 172.273 354.652 173.409C357.671 174.546 358.984 178.46 357.595 182.16Z" fill="black"/>
<path d="M354.059 176.087C354.059 176.087 358.592 155.793 348.427 150.477C349.585 150.628 350.732 150.852 351.862 151.146C353.124 151.525 361.295 159.758 357.191 177.993L354.059 176.087Z" fill="#FD391E"/>
<path opacity="0.2" d="M354.059 176.087C354.059 176.087 358.592 155.793 348.427 150.477C349.585 150.628 350.732 150.852 351.862 151.146C353.124 151.525 361.295 159.758 357.191 177.993L354.059 176.087Z" fill="black"/>
<path d="M335.117 187.705L334.359 187.591L334.561 186.328C340.138 187.186 345.837 185.978 350.586 182.931L351.331 183.941C346.555 187.106 340.798 188.442 335.117 187.705Z" fill="#FD391E"/>
<g opacity="0.2">
<path opacity="0.2" d="M335.117 187.705L334.359 187.591L334.561 186.328C340.138 187.186 345.837 185.978 350.586 182.931L351.331 183.941C346.555 187.106 340.798 188.442 335.117 187.705Z" fill="black"/>
</g>
<path d="M357.166 181.655C356.256 184.105 353.882 185.444 351.9 184.737C349.917 184.029 349.033 181.403 349.955 178.953C350.877 176.503 353.238 175.164 355.221 175.872C357.204 176.579 358.088 179.205 357.166 181.655Z" fill="#FD391E"/>
<path d="M333.93 188.159L332.907 188.02C332.728 187.997 332.556 187.938 332.4 187.848C332.244 187.758 332.108 187.638 331.998 187.494C331.889 187.351 331.81 187.188 331.764 187.014C331.718 186.839 331.707 186.658 331.732 186.479C331.754 186.3 331.811 186.126 331.901 185.969C331.99 185.811 332.11 185.674 332.254 185.563C332.397 185.453 332.561 185.372 332.736 185.325C332.911 185.279 333.094 185.268 333.273 185.292L334.283 185.431C334.643 185.482 334.969 185.671 335.191 185.959C335.413 186.247 335.513 186.611 335.47 186.972C335.42 187.332 335.23 187.658 334.942 187.88C334.654 188.102 334.291 188.202 333.93 188.159Z" fill="#FD391E"/>
<path opacity="0.4" d="M333.93 188.159L332.907 188.02C332.728 187.997 332.556 187.938 332.4 187.848C332.244 187.758 332.108 187.638 331.998 187.494C331.889 187.351 331.81 187.188 331.764 187.014C331.718 186.839 331.707 186.658 331.732 186.479C331.754 186.3 331.811 186.126 331.901 185.969C331.99 185.811 332.11 185.674 332.254 185.563C332.397 185.453 332.561 185.372 332.736 185.325C332.911 185.279 333.094 185.268 333.273 185.292L334.283 185.431C334.643 185.482 334.969 185.671 335.191 185.959C335.413 186.247 335.513 186.611 335.47 186.972C335.42 187.332 335.23 187.658 334.942 187.88C334.654 188.102 334.291 188.202 333.93 188.159Z" fill="black"/>
<path d="M347.581 200.597L340.08 207.959L343.085 217.001L353.516 205.51L347.581 200.597Z" fill="#FD391E"/>
<path d="M336.733 202.138L337.945 207.808L334.069 215.827L331.644 205.409L336.733 202.138Z" fill="#FD391E"/>
<path d="M345.977 206.987L350.334 191.038C350.334 191.038 348.225 187.073 348.679 186.239C349.134 185.406 351.407 174.697 353.024 173.535C354.64 172.374 361.295 174.356 361.964 175.442C362.634 176.528 355.587 191.038 355.587 191.038L353.061 208.326L345.977 206.987Z" fill="#E4897B"/>
<path d="M371.738 209.627C383.735 221.901 359.704 249.708 345.926 248.521C332.149 247.334 346.28 196.923 346.28 196.923L355.12 198.375C355.12 198.375 352.026 220.196 352.998 221.901C353.971 223.606 367.76 205.548 371.738 209.627Z" fill="#FD391E"/>
<path opacity="0.2" d="M371.738 209.627C383.735 221.901 359.704 249.708 345.926 248.521C332.149 247.334 346.28 196.923 346.28 196.923L355.12 198.375C355.12 198.375 352.026 220.196 352.998 221.901C353.971 223.606 367.76 205.548 371.738 209.627Z" fill="black"/>
<path d="M345.598 195.344L344.297 199.512L356.585 200.598V196.961L345.598 195.344Z" fill="#FD391E"/>
<path opacity="0.6" d="M326.971 228.316H321.996C321.445 228.316 320.998 228.763 320.998 229.314V238.709C320.998 239.26 321.445 239.707 321.996 239.707H326.971C327.522 239.707 327.969 239.26 327.969 238.709V229.314C327.969 228.763 327.522 228.316 326.971 228.316Z" fill="white"/>
<path opacity="0.2" d="M327.073 229.074H321.415V236.815H327.073V229.074Z" fill="black"/>
<path d="M325.002 225.576H323.752V230.135H325.002V225.576Z" fill="#263238"/>
<path d="M221.098 421.994C222.357 421.408 223.714 421.061 225.101 420.971C225.101 420.971 229.899 418.155 234.647 407.181H239.989C240.895 407.188 241.777 407.474 242.514 408C243.25 408.527 243.807 409.269 244.106 410.123C244.195 410.358 244.246 410.605 244.257 410.856C244.194 412.147 244.055 413.433 243.841 414.707C243.059 418.976 242.018 423.194 240.722 427.336L239.812 427.108L241.454 419.127C242.01 416.425 239.156 419.039 237.842 421.767C236.529 424.494 234.496 427.26 228.586 425.909C221.704 424.216 218.938 423.231 221.098 421.994Z" fill="#FD391E"/>
<path d="M235.62 404.315C235.62 404.315 228.94 418.281 225.101 420.971C225.101 420.971 230.253 424.04 235.62 417.183C242.553 408.343 244.257 410.805 244.257 410.805C244.112 409.28 243.829 407.771 243.411 406.297C242.376 403.468 235.62 404.315 235.62 404.315Z" fill="#E4897B"/>
<path d="M294.619 455.269C295.71 454.409 296.946 453.75 298.268 453.324C298.268 453.324 302.259 449.448 304.266 437.665L309.457 436.403C310.337 436.2 311.259 436.273 312.098 436.612C312.936 436.95 313.649 437.539 314.142 438.297C314.284 438.507 314.394 438.737 314.47 438.979C314.722 440.229 314.895 441.495 314.988 442.767C315.23 447.083 315.209 451.41 314.925 455.724H313.99L313.7 447.591C313.586 444.826 311.452 448.046 310.808 451.013C310.164 453.981 308.863 457.125 302.802 457.214C295.742 457.29 292.813 456.987 294.619 455.269Z" fill="#FD391E"/>
<path d="M304.531 434.647C304.531 434.647 301.362 449.801 298.217 453.324C298.217 453.324 303.95 455.092 307.537 447.174C312.184 436.945 314.419 438.941 314.419 438.941C313.92 437.493 313.29 436.094 312.538 434.761C310.896 432.235 304.531 434.647 304.531 434.647Z" fill="#E4897B"/>
<path d="M421.948 128.996H377.863C374.327 128.996 371.461 131.863 371.461 135.399V154.252C371.461 157.788 374.327 160.655 377.863 160.655H421.948C425.484 160.655 428.35 157.788 428.35 154.252V135.399C428.35 131.863 425.484 128.996 421.948 128.996Z" fill="#FD391E"/>
<path d="M386.703 157.043L373.418 175.101L394.848 158.255L386.703 157.043Z" fill="#FD391E"/>
<path d="M387.195 144.819C387.198 145.19 387.09 145.553 386.886 145.863C386.681 146.172 386.39 146.413 386.048 146.556C385.705 146.699 385.329 146.737 384.965 146.666C384.601 146.594 384.267 146.416 384.005 146.154C383.743 145.892 383.565 145.557 383.493 145.194C383.421 144.83 383.459 144.453 383.602 144.111C383.745 143.769 383.987 143.477 384.296 143.273C384.605 143.068 384.968 142.961 385.339 142.963C385.831 142.963 386.304 143.159 386.652 143.507C387 143.855 387.195 144.327 387.195 144.819Z" fill="white"/>
<path d="M396.907 144.819C396.909 145.19 396.801 145.553 396.597 145.863C396.392 146.172 396.101 146.413 395.759 146.556C395.417 146.699 395.04 146.737 394.676 146.666C394.312 146.594 393.978 146.416 393.716 146.154C393.454 145.892 393.276 145.557 393.204 145.194C393.132 144.83 393.17 144.453 393.313 144.111C393.456 143.769 393.698 143.477 394.007 143.273C394.316 143.068 394.68 142.961 395.05 142.963C395.543 142.963 396.015 143.159 396.363 143.507C396.711 143.855 396.907 144.327 396.907 144.819Z" fill="white"/>
<path d="M406.618 144.819C406.62 145.19 406.512 145.553 406.308 145.863C406.103 146.172 405.812 146.413 405.47 146.556C405.128 146.699 404.751 146.737 404.387 146.666C404.023 146.594 403.689 146.416 403.427 146.154C403.165 145.892 402.987 145.557 402.915 145.194C402.843 144.83 402.881 144.453 403.024 144.111C403.167 143.769 403.409 143.477 403.718 143.273C404.027 143.068 404.39 142.961 404.761 142.963C405.254 142.963 405.726 143.159 406.074 143.507C406.422 143.855 406.618 144.327 406.618 144.819Z" fill="white"/>
<path d="M416.328 144.819C416.331 145.19 416.223 145.553 416.019 145.863C415.814 146.172 415.523 146.413 415.181 146.556C414.839 146.699 414.462 146.737 414.098 146.666C413.734 146.594 413.4 146.416 413.138 146.154C412.876 145.892 412.698 145.557 412.626 145.194C412.554 144.83 412.592 144.453 412.735 144.111C412.878 143.769 413.12 143.477 413.429 143.273C413.738 143.068 414.101 142.961 414.472 142.963C414.964 142.963 415.437 143.159 415.785 143.507C416.133 143.855 416.328 144.327 416.328 144.819Z" fill="white"/>
<path d="M256.411 114.067L224.959 97.125C224.111 96.6686 223.054 96.9855 222.598 97.8328L212.561 116.466C212.104 117.313 212.421 118.37 213.268 118.827L244.72 135.769C245.568 136.226 246.625 135.909 247.081 135.061L257.118 116.428C257.575 115.581 257.258 114.524 256.411 114.067Z" fill="#FD391E"/>
<path opacity="0.7" d="M256.411 114.067L224.959 97.125C224.111 96.6686 223.054 96.9855 222.598 97.8328L212.561 116.466C212.104 117.313 212.421 118.37 213.268 118.827L244.72 135.769C245.568 136.226 246.625 135.909 247.081 135.061L257.118 116.428C257.575 115.581 257.258 114.524 256.411 114.067Z" fill="white"/>
<path opacity="0.2" d="M221.78 99.3706L231.567 117.745C231.942 118.444 232.517 119.017 233.219 119.39C233.92 119.764 234.716 119.92 235.507 119.841L255.977 117.82L235.14 120.889C234.23 121.024 233.3 120.86 232.49 120.423C231.68 119.986 231.032 119.299 230.645 118.464L221.78 99.3706Z" fill="black"/>
<path d="M197.9 95.9737C198.241 88.9524 203.444 74.7963 209.77 70.4649C216.097 66.1334 211.93 72.1318 211.93 72.1318C211.93 72.1318 217.928 66.2976 221.085 66.4744C224.242 66.6512 221.085 70.2628 221.085 70.2628C221.085 70.2628 227.589 66.2597 230.582 66.4744C233.574 66.6891 230.582 70.1492 230.582 70.1492C230.582 70.1492 235.911 66.3607 238.07 68.1413C240.229 69.9219 210.427 89.6091 207.106 97.6153C203.785 105.622 197.559 103.058 197.9 95.9737Z" fill="#FD391E"/>
<path opacity="0.4" d="M197.9 95.9737C198.241 88.9524 203.444 74.7963 209.77 70.4649C216.097 66.1334 211.93 72.1318 211.93 72.1318C211.93 72.1318 217.928 66.2976 221.085 66.4744C224.242 66.6512 221.085 70.2628 221.085 70.2628C221.085 70.2628 227.589 66.2597 230.582 66.4744C233.574 66.6891 230.582 70.1492 230.582 70.1492C230.582 70.1492 235.911 66.3607 238.07 68.1413C240.229 69.9219 210.427 89.6091 207.106 97.6153C203.785 105.622 197.559 103.058 197.9 95.9737Z" fill="white"/>
<path d="M223.51 94.9131L227.488 97.4387C227.55 97.4776 227.598 97.5366 227.623 97.6061C227.649 97.6756 227.65 97.7515 227.626 97.8216C227.603 97.8918 227.556 97.9519 227.495 97.9924C227.433 98.0329 227.359 98.0514 227.286 98.0449L223.106 97.7165L223.459 100.924C223.47 101 223.455 101.077 223.418 101.143C223.381 101.21 223.323 101.263 223.254 101.294C223.184 101.326 223.106 101.333 223.032 101.317C222.957 101.3 222.89 101.26 222.84 101.202L220.428 98.4995L223.51 94.9131Z" fill="#FD391E"/>
<path opacity="0.3" d="M223.51 94.9131L227.488 97.4387C227.55 97.4776 227.598 97.5366 227.623 97.6061C227.649 97.6756 227.65 97.7515 227.626 97.8216C227.603 97.8918 227.556 97.9519 227.495 97.9924C227.433 98.0329 227.359 98.0514 227.286 98.0449L223.106 97.7165L223.459 100.924C223.47 101 223.455 101.077 223.418 101.143C223.381 101.21 223.323 101.263 223.254 101.294C223.184 101.326 223.106 101.333 223.032 101.317C222.957 101.3 222.89 101.26 222.84 101.202L220.428 98.4995L223.51 94.9131Z" fill="white"/>
<path d="M167.63 79.1025C167.63 79.1025 173.136 75.3141 181.458 77.764C181.458 77.764 183.845 88.763 190.399 92.4252C193.998 94.4331 202.8 94.2563 209.77 92.0085C218.042 89.3313 222.083 89.3313 223.586 92.4252C225.088 95.5191 223.421 98.7393 217.095 100.242C210.768 101.745 205.729 112.731 194.276 112.87C182.822 113.009 176.735 101.505 179.627 91.4023C176.889 86.2378 172.725 81.9686 167.63 79.1025Z" fill="#FD391E"/>
<path opacity="0.5" d="M167.63 79.1025C167.63 79.1025 173.136 75.3141 181.458 77.764C181.458 77.764 183.845 88.763 190.399 92.4252C193.998 94.4331 202.8 94.2563 209.77 92.0085C218.042 89.3313 222.083 89.3313 223.586 92.4252C225.088 95.5191 223.421 98.7393 217.095 100.242C210.768 101.745 205.729 112.731 194.276 112.87C182.822 113.009 176.735 101.505 179.627 91.4023C176.889 86.2378 172.725 81.9686 167.63 79.1025Z" fill="white"/>
<path d="M220.429 94.5087C220.429 94.6211 220.395 94.731 220.333 94.8244C220.27 94.9179 220.182 94.9907 220.078 95.0337C219.974 95.0767 219.86 95.088 219.75 95.066C219.639 95.0441 219.538 94.99 219.459 94.9105C219.379 94.8311 219.325 94.7298 219.303 94.6196C219.281 94.5093 219.292 94.3951 219.335 94.2912C219.378 94.1874 219.451 94.0986 219.545 94.0362C219.638 93.9738 219.748 93.9404 219.86 93.9404C220.011 93.9404 220.156 94.0003 220.262 94.1069C220.369 94.2134 220.429 94.358 220.429 94.5087Z" fill="#263238"/>
<path d="M191.611 103.753C184.83 105.596 169.752 105.015 163.69 100.343C157.629 95.6707 164.6 97.8174 164.6 97.8174C164.6 97.8174 157.212 93.9153 156.391 90.8593C155.571 87.8033 160.028 89.6723 160.028 89.6723C160.028 89.6723 154.219 84.7347 153.462 81.8302C152.704 78.9258 156.947 80.6937 156.947 80.6937C156.947 80.6937 151.656 76.8042 152.729 74.1902C153.803 71.5762 181.698 93.8522 190.323 94.5467C198.948 95.2413 198.481 101.884 191.611 103.753Z" fill="#FD391E"/>
<path opacity="0.4" d="M191.611 103.753C184.83 105.596 169.752 105.015 163.69 100.343C157.629 95.6707 164.6 97.8174 164.6 97.8174C164.6 97.8174 157.212 93.9153 156.391 90.8593C155.571 87.8033 160.028 89.6723 160.028 89.6723C160.028 89.6723 154.219 84.7347 153.462 81.8302C152.704 78.9258 156.947 80.6937 156.947 80.6937C156.947 80.6937 151.656 76.8042 152.729 74.1902C153.803 71.5762 181.698 93.8522 190.323 94.5467C198.948 95.2413 198.481 101.884 191.611 103.753Z" fill="white"/>
<path d="M147.16 73.0286C147.111 73.0409 147.059 73.0409 147.009 73.0286C145.834 72.6119 144.635 72.2204 143.422 71.8542C143.303 71.8163 143.202 71.7329 143.143 71.6219C143.084 71.5109 143.071 71.3812 143.107 71.2607C143.145 71.1408 143.228 71.0405 143.339 70.9815C143.45 70.9225 143.58 70.9093 143.7 70.9449C144.963 71.3112 146.137 71.7153 147.324 72.2078C147.43 72.2439 147.52 72.3167 147.576 72.4131C147.633 72.5095 147.653 72.6229 147.633 72.7329C147.613 72.843 147.555 72.9422 147.468 73.0127C147.381 73.0831 147.272 73.1201 147.16 73.117V73.0286Z" fill="#FD391E"/>
<path d="M70.8359 175.531C70.7108 175.531 70.5906 175.482 70.5009 175.395C70.4113 175.307 70.3593 175.189 70.356 175.064C70.356 174.938 70.4048 174.818 70.4921 174.729C70.5793 174.639 70.6982 174.587 70.8232 174.584C73.3354 174.548 75.8402 174.303 78.3117 173.851C78.4355 173.829 78.5631 173.856 78.667 173.927C78.7709 173.998 78.8429 174.107 78.8674 174.23C78.8801 174.292 78.8804 174.355 78.8681 174.417C78.8558 174.478 78.8313 174.537 78.7959 174.588C78.7606 174.64 78.7151 174.684 78.6623 174.718C78.6095 174.752 78.5504 174.775 78.4885 174.786C75.963 175.248 73.4031 175.497 70.8359 175.531ZM63.259 175.127C60.7108 174.855 58.1808 174.433 55.6821 173.864C55.5585 173.837 55.4506 173.762 55.382 173.655C55.3134 173.549 55.2896 173.42 55.3159 173.296C55.3459 173.174 55.4221 173.069 55.5282 173.003C55.6344 172.937 55.7621 172.915 55.8842 172.942C58.3433 173.496 60.8304 173.918 63.3348 174.205C63.4471 174.223 63.5492 174.281 63.6229 174.368C63.6966 174.455 63.7371 174.565 63.7371 174.678C63.7371 174.792 63.6966 174.902 63.6229 174.989C63.5492 175.076 63.4471 175.134 63.3348 175.152L63.259 175.127ZM85.6992 172.601C85.6083 172.602 85.5194 172.576 85.4431 172.526C85.3669 172.477 85.3066 172.406 85.2698 172.323C85.2427 172.266 85.2273 172.204 85.2247 172.141C85.2222 172.078 85.2324 172.015 85.2548 171.956C85.2773 171.897 85.3114 171.843 85.3552 171.798C85.399 171.753 85.4516 171.716 85.5097 171.692C87.8032 170.703 89.9324 169.37 91.8238 167.739C91.9205 167.666 92.0415 167.631 92.1625 167.643C92.2835 167.655 92.3954 167.713 92.4756 167.804C92.5558 167.896 92.5983 168.014 92.5945 168.136C92.5907 168.257 92.5409 168.373 92.4552 168.459C90.4879 170.147 88.2787 171.53 85.9012 172.563C85.8315 172.602 85.7536 172.624 85.6739 172.626L85.6992 172.601ZM48.4589 171.742C48.4091 171.755 48.3571 171.755 48.3073 171.742C45.908 170.947 43.496 170.012 41.1598 168.989C41.0563 168.93 40.9785 168.835 40.9416 168.721C40.9047 168.608 40.9113 168.485 40.9601 168.376C41.009 168.267 41.0966 168.181 41.2059 168.133C41.3152 168.085 41.4383 168.08 41.5513 168.118C43.8496 169.128 46.2237 170.05 48.6104 170.846C48.7285 170.889 48.8252 170.976 48.8795 171.09C48.9338 171.203 48.9415 171.333 48.9008 171.452C48.8651 171.539 48.8038 171.614 48.7249 171.666C48.646 171.718 48.5532 171.744 48.4589 171.742ZM34.5679 165.605C34.4938 165.628 34.4147 165.628 34.3406 165.605C32.0802 164.342 29.8829 162.978 27.8372 161.552C27.7866 161.516 27.7435 161.471 27.7104 161.418C27.6773 161.366 27.6549 161.308 27.6443 161.247C27.6338 161.186 27.6353 161.123 27.6489 161.063C27.6625 161.003 27.6878 160.945 27.7235 160.895C27.7592 160.844 27.8044 160.801 27.8567 160.768C27.909 160.735 27.9673 160.713 28.0283 160.702C28.0893 160.691 28.1517 160.693 28.2121 160.707C28.2725 160.72 28.3296 160.746 28.3802 160.781C30.4007 162.183 32.5601 163.534 34.8079 164.784C34.8623 164.815 34.9101 164.855 34.9485 164.904C34.9869 164.953 35.0152 165.009 35.0317 165.069C35.0482 165.129 35.0525 165.192 35.0444 165.253C35.0363 165.315 35.016 165.375 34.9847 165.428C34.9313 165.51 34.8547 165.574 34.7648 165.613C34.6748 165.651 34.5755 165.661 34.4795 165.643L34.5679 165.605ZM97.0013 162.713C96.9272 162.736 96.8481 162.736 96.774 162.713C96.7196 162.683 96.6718 162.642 96.6334 162.593C96.5949 162.545 96.5667 162.488 96.5502 162.428C96.5337 162.368 96.5294 162.306 96.5375 162.244C96.5456 162.182 96.5659 162.123 96.5972 162.069C96.9887 161.387 97.3549 160.68 97.6833 159.948C98.3861 158.401 98.9359 156.79 99.3249 155.136C99.3577 155.014 99.4363 154.909 99.5445 154.843C99.6527 154.777 99.7821 154.756 99.9058 154.783C100.028 154.816 100.132 154.895 100.195 155.003C100.259 155.112 100.278 155.242 100.247 155.364C99.8347 157.072 99.264 158.737 98.542 160.339C98.201 161.097 97.8222 161.842 97.4181 162.549C97.3642 162.63 97.2871 162.693 97.1969 162.729C97.1067 162.765 97.0077 162.773 96.9129 162.751L97.0013 162.713ZM22.1166 156.879C22.0055 156.877 21.8984 156.837 21.8135 156.765C19.8904 155.067 18.0886 153.235 16.4213 151.285C16.3342 151.195 16.2854 151.075 16.2854 150.95C16.2854 150.825 16.3342 150.705 16.4213 150.616C16.5088 150.529 16.6268 150.481 16.7497 150.481C16.8726 150.481 16.9906 150.529 17.078 150.616C18.7151 152.525 20.4831 154.318 22.3692 155.983C22.4563 156.072 22.5051 156.192 22.5051 156.317C22.5051 156.442 22.4563 156.562 22.3692 156.652C22.3379 156.72 22.2905 156.78 22.2312 156.826C22.1718 156.872 22.1022 156.903 22.0282 156.917L22.1166 156.879ZM100.638 148.115C100.576 148.115 100.514 148.103 100.456 148.078C100.399 148.054 100.347 148.019 100.303 147.974C100.26 147.929 100.226 147.876 100.203 147.818C100.18 147.76 100.169 147.698 100.171 147.635C100.153 145.124 99.9203 142.619 99.4764 140.147C99.4542 140.023 99.4814 139.895 99.5522 139.792C99.6231 139.688 99.7319 139.616 99.8553 139.591C99.9804 139.573 100.108 139.603 100.211 139.676C100.315 139.749 100.386 139.859 100.411 139.983C100.865 142.509 101.102 145.069 101.118 147.635C101.118 147.763 101.068 147.885 100.978 147.975C100.888 148.065 100.765 148.115 100.638 148.115ZM98.1126 133.138C98.0104 133.137 97.9112 133.104 97.8294 133.042C97.7476 132.981 97.6876 132.895 97.658 132.797C97.014 130.587 96.2184 128.239 95.246 125.612C95.2219 125.553 95.2099 125.49 95.2109 125.427C95.2119 125.363 95.2259 125.301 95.2519 125.243C95.2779 125.185 95.3154 125.133 95.3622 125.09C95.4089 125.047 95.4639 125.014 95.5238 124.993C95.6412 124.952 95.77 124.958 95.883 125.01C95.9961 125.061 96.0847 125.155 96.13 125.271C97.115 127.923 97.9106 130.322 98.5672 132.519C98.6028 132.64 98.5897 132.77 98.5307 132.881C98.4716 132.992 98.3714 133.075 98.2515 133.113L98.1126 133.138ZM92.8846 118.805C92.7969 118.806 92.711 118.781 92.637 118.734C92.5631 118.687 92.5043 118.62 92.4678 118.54C91.6596 116.52 90.561 114.196 89.4118 111.734V111.607C89.3789 111.497 89.3866 111.379 89.4335 111.274C89.4804 111.169 89.5633 111.085 89.6673 111.036C89.7712 110.987 89.8893 110.977 90 111.008C90.1107 111.038 90.2067 111.108 90.2705 111.203V111.33C91.4323 113.855 92.5183 116.141 93.3265 118.123C93.3775 118.242 93.3796 118.377 93.3324 118.497C93.2851 118.618 93.1923 118.715 93.074 118.767L92.8846 118.805ZM86.5705 104.914C86.4775 104.917 86.3858 104.892 86.3071 104.843C86.2284 104.793 86.1662 104.722 86.1285 104.637C84.992 101.997 84.0828 99.6611 83.363 97.5017C83.3223 97.3828 83.33 97.2526 83.3843 97.1393C83.4386 97.0259 83.5353 96.9384 83.6534 96.8956C83.774 96.8556 83.9055 96.865 84.0191 96.9218C84.1328 96.9786 84.2192 97.0782 84.2596 97.1986C84.9667 99.3328 85.8633 101.644 86.9999 104.258C87.0246 104.315 87.0378 104.376 87.0384 104.439C87.0391 104.501 87.0274 104.563 87.0038 104.62C86.9803 104.678 86.9455 104.73 86.9014 104.774C86.8574 104.818 86.805 104.853 86.7473 104.877C86.7051 104.921 86.6533 104.956 86.5958 104.978L86.5705 104.914ZM81.9486 90.4426C81.8356 90.441 81.7268 90.3996 81.6413 90.3257C81.5559 90.2518 81.4992 90.1501 81.4814 90.0385C81.2646 88.6854 81.1549 87.3173 81.153 85.947C81.1426 84.7227 81.2526 83.5003 81.4814 82.2975C81.5178 82.1854 81.5941 82.0907 81.6959 82.0313C81.7976 81.9719 81.9176 81.9521 82.0331 81.9755C82.1485 81.9989 82.2514 82.0639 82.3219 82.1582C82.3925 82.2525 82.4259 82.3695 82.4159 82.4869C82.1973 83.6271 82.0915 84.7861 82.1002 85.947C82.1045 87.2706 82.21 88.592 82.4159 89.8996C82.431 90.0228 82.3991 90.1472 82.3266 90.2478C82.254 90.3485 82.1461 90.4181 82.0244 90.4426H81.9486ZM85.2445 76.0971C85.1348 76.1 85.0275 76.0643 84.9415 75.996C84.8543 75.9064 84.8055 75.7864 84.8055 75.6614C84.8055 75.5364 84.8543 75.4163 84.9415 75.3267C86.6368 73.3461 88.6994 71.7123 91.0156 70.5154C91.1264 70.4565 91.2559 70.4434 91.3763 70.4788C91.4966 70.5142 91.5984 70.5953 91.6596 70.7049C91.7143 70.8177 91.7238 70.9472 91.6863 71.0669C91.6487 71.1866 91.5669 71.2875 91.4576 71.3489C89.252 72.4895 87.288 74.0461 85.6739 75.9329C85.6322 76.0027 85.5729 76.0603 85.502 76.1002C85.4312 76.1401 85.3511 76.1607 85.2698 76.1602L85.2445 76.0971ZM136.161 69.9093H136.06C133.635 69.4042 131.122 68.9748 128.584 68.6465C128.523 68.6387 128.463 68.6188 128.409 68.5878C128.356 68.5568 128.309 68.5154 128.271 68.4661C128.233 68.4167 128.206 68.3603 128.19 68.3002C128.175 68.2401 128.171 68.1775 128.18 68.1161C128.188 68.0545 128.208 67.9951 128.239 67.9413C128.27 67.8875 128.311 67.8404 128.361 67.8028C128.41 67.7652 128.466 67.7377 128.526 67.7222C128.586 67.7066 128.649 67.7031 128.711 67.712C131.236 68.0403 133.762 68.4697 136.287 68.9748C136.401 69.0009 136.501 69.0672 136.569 69.1614C136.637 69.2556 136.668 69.3713 136.657 69.487C136.647 69.6027 136.594 69.7106 136.51 69.7906C136.426 69.8706 136.315 69.9172 136.199 69.9219L136.161 69.9093ZM98.2768 68.8359C98.2154 68.8425 98.1533 68.837 98.0941 68.8197C98.0349 68.8023 97.9796 68.7735 97.9316 68.7348C97.8835 68.6961 97.8435 68.6483 97.8139 68.5941C97.7843 68.54 97.7656 68.4805 97.759 68.4192C97.7524 68.3578 97.7579 68.2957 97.7752 68.2365C97.7926 68.1773 97.8214 68.1221 97.8601 68.074C97.8988 68.0259 97.9466 67.9859 98.0008 67.9563C98.0549 67.9267 98.1144 67.908 98.1757 67.9014C100.67 67.3419 103.203 66.9746 105.753 66.8028C105.878 66.7958 106.001 66.8381 106.095 66.9208C106.19 67.0034 106.248 67.1197 106.258 67.2448C106.263 67.3071 106.255 67.3699 106.236 67.4294C106.216 67.4889 106.185 67.5438 106.144 67.5909C106.102 67.638 106.052 67.6764 105.996 67.7037C105.94 67.731 105.878 67.7467 105.816 67.7499C103.308 67.912 100.817 68.2709 98.3652 68.8233L98.2768 68.8359ZM121.007 67.9519C118.81 67.8004 116.196 67.6362 113.43 67.5857C113.305 67.5824 113.187 67.5304 113.099 67.4408C113.012 67.3511 112.963 67.231 112.963 67.1058C112.963 67.0434 112.976 66.9816 113 66.9241C113.024 66.8665 113.06 66.8145 113.105 66.7709C113.149 66.7274 113.202 66.6932 113.26 66.6705C113.319 66.6478 113.381 66.6369 113.443 66.6386C116.234 66.7017 118.873 66.8533 121.02 67.0048C121.083 67.008 121.144 67.0237 121.2 67.051C121.256 67.0783 121.307 67.1167 121.348 67.1638C121.389 67.2109 121.421 67.2658 121.44 67.3253C121.46 67.3848 121.467 67.4475 121.462 67.5099C121.471 67.624 121.439 67.7375 121.372 67.8301C121.305 67.9228 121.207 67.9883 121.096 68.0151L121.007 67.9519Z" fill="#FD391E"/>
<path d="M12.292 145.224C12.2073 145.225 12.1238 145.204 12.0504 145.161C11.977 145.119 11.9164 145.058 11.8752 144.984C11.2366 143.875 10.6673 142.728 10.1704 141.549C10.1457 141.492 10.1325 141.43 10.1319 141.368C10.1312 141.306 10.143 141.244 10.1665 141.186C10.19 141.129 10.2248 141.076 10.2689 141.032C10.3129 140.988 10.3653 140.953 10.423 140.93C10.5387 140.883 10.6681 140.884 10.7836 140.931C10.8991 140.978 10.9917 141.068 11.0418 141.183C11.5294 142.324 12.0818 143.437 12.6961 144.516C12.7432 144.587 12.7699 144.669 12.7729 144.753C12.776 144.838 12.7553 144.922 12.7133 144.995C12.6713 145.069 12.6096 145.129 12.5352 145.169C12.4607 145.21 12.3765 145.229 12.292 145.224Z" fill="#FD391E"/>
<path d="M165.66 245.036H117.724V254.861H165.66V245.036Z" fill="white"/>
<path opacity="0.1" d="M165.66 245.036H117.724V254.861H165.66V245.036Z" fill="black"/>
<path opacity="0.1" d="M137.916 245.036H117.724V254.861H137.916V245.036Z" fill="black"/>
<path opacity="0.1" d="M117.724 246.45H160.394L117.724 247.663V246.45Z" fill="black"/>
<path opacity="0.1" d="M165.66 248.155L128.672 249.077H165.66V248.155Z" fill="black"/>
<path opacity="0.1" d="M119.681 250.908L137.916 250.163L164.726 250.908L137.916 251.325L119.681 250.908Z" fill="black"/>
<path opacity="0.1" d="M117.724 252.992H149.319L117.724 253.737V252.992Z" fill="black"/>
<path opacity="0.1" d="M165.584 253.737L144.483 254.128H165.66L165.584 253.737Z" fill="black"/>
<path d="M158.992 235.212H111.056V245.036H158.992V235.212Z" fill="white"/>
<path opacity="0.1" d="M158.992 235.212H111.056V245.036H158.992V235.212Z" fill="black"/>
<path opacity="0.1" d="M131.248 235.212H111.056V245.036H131.248V235.212Z" fill="black"/>
<path opacity="0.1" d="M111.056 236.626H153.727L111.056 237.825V236.626Z" fill="black"/>
<path opacity="0.1" d="M158.993 238.331L122.005 239.252H158.993V238.331Z" fill="black"/>
<path opacity="0.1" d="M113.001 241.083L131.236 240.326L158.045 241.083L131.236 241.5L113.001 241.083Z" fill="black"/>
<path opacity="0.1" d="M111.056 243.155H142.652L111.056 243.912V243.155Z" fill="black"/>
<path opacity="0.1" d="M158.917 243.912L137.815 244.304H158.993L158.917 243.912Z" fill="black"/>
<path d="M164.461 225.374H116.524V235.199H164.461V225.374Z" fill="white"/>
<path opacity="0.1" d="M164.461 225.374H116.524V235.199H164.461V225.374Z" fill="black"/>
<path opacity="0.1" d="M136.717 225.374H116.524V235.199H136.717V225.374Z" fill="black"/>
<path opacity="0.1" d="M116.524 226.789H159.195L116.524 228.001V226.789Z" fill="black"/>
<path opacity="0.1" d="M164.46 228.493L127.473 229.415H164.46V228.493Z" fill="black"/>
<path opacity="0.1" d="M118.482 231.246L136.717 230.501L163.526 231.246L136.717 231.663L118.482 231.246Z" fill="black"/>
<path opacity="0.1" d="M116.524 233.33H148.12L116.524 234.075V233.33Z" fill="black"/>
<path opacity="0.1" d="M164.397 234.075L143.296 234.466H164.461L164.397 234.075Z" fill="black"/>
<path d="M196.397 254.659L197.635 249.949H248.854L272.431 252.31L273.327 254.659H196.397Z" fill="#263238"/>
<path opacity="0.4" d="M248.854 249.949V254.659H196.397L197.635 249.949H248.854Z" fill="black"/>
<path d="M238.562 227.407C238.631 227.978 238.576 228.557 238.403 229.106C238.229 229.654 237.939 230.159 237.554 230.586C237.169 231.013 236.697 231.353 236.169 231.582C235.642 231.811 235.071 231.925 234.496 231.916H156.05C154.824 231.889 153.649 231.417 152.745 230.587C151.841 229.757 151.27 228.627 151.138 227.407L146.478 177.185C146.428 176.695 146.462 176.199 146.579 175.72C146.797 174.839 147.308 174.057 148.028 173.504C148.749 172.951 149.636 172.659 150.544 172.677H229.041C230.267 172.704 231.442 173.176 232.346 174.006C233.25 174.835 233.821 175.965 233.953 177.185L238.562 227.407Z" fill="#263238"/>
<path opacity="0.4" d="M234.218 231.915H156.05C154.824 231.889 153.649 231.416 152.745 230.587C151.841 229.757 151.27 228.627 151.138 227.407L146.478 177.185C146.428 176.695 146.462 176.199 146.579 175.72H224.747C225.974 175.747 227.149 176.219 228.053 177.049C228.957 177.878 229.528 179.009 229.66 180.228L234.319 230.45C234.37 230.941 234.336 231.436 234.218 231.915Z" fill="black"/>
<path d="M180.321 201.115H196.549L192.23 247.574L217.89 251.426V254.658H163.842V251.426L174.917 247.574L180.321 201.115Z" fill="#263238"/>
<path opacity="0.1" d="M196.549 201.115L184.527 253.926L174.917 253.636L180.321 201.115H196.549Z" fill="white"/>
<path d="M196.473 457.226H188.744L174.841 263.7H185.108L196.473 457.226Z" fill="#263238"/>
<path opacity="0.4" d="M196.486 457.227H188.744L175.523 273.323L174.841 264.016H185.108L185.663 273.323L196.486 457.227Z" fill="white"/>
<path opacity="0.2" d="M185.663 272.856H175.523L174.841 264.016H185.108L185.663 272.856Z" fill="black"/>
<path d="M253.249 457.226H245.52L244.258 263.7H254.512L253.249 457.226Z" fill="#263238"/>
<path opacity="0.5" d="M254.524 264.016L254.322 295.246L253.261 457.227H245.52L244.46 295.246L244.258 264.016H254.524Z" fill="white"/>
<path opacity="0.2" d="M254.524 264.016L254.322 295.587H244.46L244.258 264.016H254.524Z" fill="black"/>
<path d="M335.382 457.226H327.653L313.75 263.7H324.017L335.382 457.226Z" fill="#263238"/>
<path opacity="0.5" d="M335.394 457.227H327.653L314.432 273.323L313.75 264.016H324.017L324.572 273.323L335.394 457.227Z" fill="white"/>
<path opacity="0.2" d="M324.572 272.856H314.432L313.75 264.016H324.017L324.572 272.856Z" fill="black"/>
<path d="M107.975 457.226H100.247L111.612 263.7H121.879L107.975 457.226Z" fill="#263238"/>
<path opacity="0.5" d="M121.879 264.016L121.197 273.323L107.975 457.227H100.247L111.056 273.323L111.612 264.016H121.879Z" fill="white"/>
<path opacity="0.2" d="M111.612 264.016H121.878L121.197 272.856H111.056L111.612 264.016Z" fill="black"/>
<path d="M103.479 258.876H332.149V265.835C332.149 266.193 332.079 266.547 331.942 266.878C331.805 267.209 331.604 267.51 331.35 267.763C331.097 268.017 330.796 268.218 330.465 268.355C330.134 268.492 329.78 268.562 329.422 268.562H106.207C105.484 268.562 104.79 268.275 104.278 267.763C103.767 267.252 103.479 266.558 103.479 265.835V258.876Z" fill="#FD391E"/>
<path opacity="0.6" d="M103.479 258.876H332.149V265.835C332.149 266.193 332.079 266.547 331.942 266.878C331.805 267.209 331.604 267.51 331.35 267.763C331.097 268.017 330.796 268.218 330.465 268.355C330.134 268.492 329.78 268.562 329.422 268.562H106.207C105.484 268.562 104.79 268.275 104.278 267.763C103.767 267.252 103.479 266.558 103.479 265.835V258.876Z" fill="white"/>
<path opacity="0.2" d="M332.149 258.864H103.479V263.713H332.149V258.864Z" fill="black"/>
<path d="M336.948 260.139H98.6808C97.9574 260.139 97.2636 259.852 96.752 259.34C96.2405 258.829 95.9531 258.135 95.9531 257.412C95.9531 256.687 96.2401 255.992 96.7513 255.478C97.2624 254.965 97.9562 254.675 98.6808 254.671H336.948C337.673 254.675 338.366 254.965 338.878 255.478C339.389 255.992 339.676 256.687 339.676 257.412C339.676 258.135 339.388 258.829 338.877 259.34C338.365 259.852 337.671 260.139 336.948 260.139Z" fill="#FD391E"/>
<path opacity="0.6" d="M336.948 260.139H98.6808C97.9574 260.139 97.2636 259.852 96.752 259.34C96.2405 258.829 95.9531 258.135 95.9531 257.412C95.9531 256.687 96.2401 255.992 96.7513 255.478C97.2624 254.965 97.9562 254.675 98.6808 254.671H336.948C337.673 254.675 338.366 254.965 338.878 255.478C339.389 255.992 339.676 256.687 339.676 257.412C339.676 258.135 339.388 258.829 338.877 259.34C338.365 259.852 337.671 260.139 336.948 260.139Z" fill="white"/>
<path d="M280.576 246.249L283.506 241.854C283.794 241.422 284.185 241.069 284.643 240.824C285.102 240.58 285.613 240.452 286.132 240.452H289.845C290.153 240.453 290.46 240.5 290.754 240.591L304.001 244.607C304.754 244.832 305.394 245.332 305.794 246.009L307.701 249.204L280.576 246.249Z" fill="#FD391E"/>
<path opacity="0.2" d="M307.701 249.204L288.393 247.107L280.551 246.249L283.48 241.854C283.769 241.422 284.16 241.069 284.618 240.824C285.076 240.58 285.588 240.452 286.107 240.452H289.82C290.132 240.454 290.442 240.501 290.742 240.591L291.032 240.68L303.976 244.607C304.733 244.83 305.378 245.331 305.782 246.009L307.701 249.204Z" fill="black"/>
<path opacity="0.2" d="M307.701 249.204L288.393 247.107L291.032 240.68L303.976 244.607C304.733 244.83 305.378 245.331 305.782 246.009L307.701 249.204Z" fill="black"/>
<path d="M316.869 254.242V254.659H275.929L277.444 248.736C277.725 247.648 278.361 246.685 279.25 245.999C280.14 245.313 281.233 244.943 282.357 244.948H300.516C301.119 244.945 301.718 245.052 302.284 245.264L304.557 246.11L313.573 249.469C314.546 249.829 315.385 250.481 315.975 251.335C316.564 252.189 316.877 253.204 316.869 254.242Z" fill="#FD391E"/>
<path opacity="0.2" d="M316.869 254.242V254.659H300.061L300.958 248.256C301.016 247.859 301.161 247.48 301.385 247.147C301.608 246.814 301.903 246.534 302.248 246.33C302.593 246.125 302.979 246 303.379 245.964C303.778 245.928 304.181 245.982 304.557 246.122L313.573 249.481C314.545 249.841 315.382 250.491 315.971 251.343C316.561 252.194 316.874 253.206 316.869 254.242Z" fill="black"/>
<path d="M302.675 250.314L308.029 234.264C308.082 234.101 308.169 233.95 308.285 233.824C308.402 233.698 308.545 233.599 308.704 233.534C308.863 233.469 309.034 233.44 309.205 233.448C309.377 233.456 309.544 233.502 309.696 233.582C309.929 233.716 310.113 233.92 310.222 234.165C310.331 234.41 310.359 234.684 310.302 234.946L305.794 252.07C305.794 252.07 302.801 253.282 302.675 250.314Z" fill="#263238"/>
<path opacity="0.2" d="M280.576 253.333H278.202L278.657 250.997H281.031L280.576 253.333Z" fill="black"/>
<path opacity="0.2" d="M284.112 253.244H281.738L282.192 250.908H284.566L284.112 253.244Z" fill="black"/>
</svg>
