<svg width="277" height="396" viewBox="0 0 277 396" fill="none" xmlns="http://www.w3.org/2000/svg">
<path d="M118.718 372.784L3.96746 306.537L3.90698 91.1276L118.657 157.387L118.718 372.784Z" fill="#263238"/>
<g opacity="0.3">
<path opacity="0.3" d="M118.718 372.784L3.96746 306.537L3.90698 91.1276L118.657 157.387L118.718 372.784Z" fill="white"/>
</g>
<path d="M118.717 395.632V379.642L3.9668 313.383V329.373L118.717 395.632Z" fill="#37474F"/>
<path d="M118.717 395.632V379.642L3.9668 313.383V329.373L118.717 395.632Z" fill="#263238"/>
<g opacity="0.3">
<path opacity="0.3" d="M118.717 395.632V379.642L3.9668 313.383V329.373L118.717 395.632Z" fill="black"/>
</g>
<path d="M118.718 372.784L273.045 283.688L272.997 68.279L118.657 157.387L118.718 372.784Z" fill="#263238"/>
<g opacity="0.5">
<path opacity="0.5" d="M118.718 372.784L273.045 283.688L272.997 68.279L118.657 157.387L118.718 372.784Z" fill="white"/>
</g>
<path d="M118.718 395.633V379.643L273.045 290.535V306.537L118.718 395.633Z" fill="#263238"/>
<g opacity="0.15">
<path opacity="0.15" d="M118.718 395.633V379.643L273.045 290.535V306.537L118.718 395.633Z" fill="black"/>
</g>
<path d="M118.718 375.07L0 306.537V313.383L118.718 381.929V375.07Z" fill="#263238"/>
<g opacity="0.4">
<path opacity="0.4" d="M118.718 375.07L0 306.537V313.383L118.718 381.929V375.07Z" fill="white"/>
</g>
<path d="M277 283.689V290.535L118.718 381.929V375.07L277 283.689Z" fill="#263238"/>
<g opacity="0.6">
<path opacity="0.6" d="M277 283.689V290.535L118.718 381.929V375.07L277 283.689Z" fill="white"/>
</g>
<path d="M273.045 281.403V283.689L118.718 372.785L1.98367 305.388L0 306.537L118.718 375.071L277 283.689L273.045 281.403Z" fill="#263238"/>
<g opacity="0.8">
<path opacity="0.8" d="M273.045 281.403V283.689L118.718 372.785L1.98367 305.388L0 306.537L118.718 375.071L277 283.689L273.045 281.403Z" fill="white"/>
</g>
<path d="M118.718 375.071V372.785L3.96734 306.537V304.251L0 306.537L118.718 375.071Z" fill="#263238"/>
<g opacity="0.6">
<path opacity="0.6" d="M118.718 375.071V372.785L3.96734 306.537V304.251L0 306.537L118.718 375.071Z" fill="white"/>
</g>
<path d="M245.455 252.131V298.53L217.441 314.702L217.429 268.315L245.455 252.131Z" fill="#263238"/>
<path d="M238.488 294.502L246.41 299.074L217.429 315.802V306.658L238.488 294.502Z" fill="#263238"/>
<path d="M238.488 294.502L246.41 299.074L217.429 315.802V306.658L238.488 294.502Z" fill="#FAFAFA"/>
<path d="M238.488 294.502L217.429 306.658V268.315L238.488 256.123V294.502Z" fill="#263238"/>
<path d="M245.454 298.53L246.41 299.074V251.587L245.454 252.131V298.53Z" fill="#263238"/>
<g opacity="0.4">
<path opacity="0.4" d="M245.454 298.53L246.41 299.074V251.587L245.454 252.131V298.53Z" fill="white"/>
</g>
<g opacity="0.1">
<path opacity="0.1" d="M245.454 298.53L246.41 299.074V251.587L245.454 252.131V298.53Z" fill="black"/>
</g>
<path d="M246.41 299.074L250.148 296.909V245.116L213.692 266.162V317.955L217.429 315.802V268.315L246.41 251.587V299.074Z" fill="#263238"/>
<g opacity="0.7">
<path opacity="0.7" d="M246.41 299.074L250.148 296.909V245.116L213.692 266.162V317.955L217.429 315.802V268.315L246.41 251.587V299.074Z" fill="white"/>
</g>
<path d="M250.148 245.116L213.692 266.162L212.761 265.618L249.217 244.572L250.148 245.116Z" fill="#263238"/>
<g opacity="0.85">
<path opacity="0.85" d="M250.148 245.116L213.692 266.162L212.761 265.618L249.217 244.572L250.148 245.116Z" fill="white"/>
</g>
<path d="M213.692 317.955V266.162L212.761 265.618V317.423L213.692 317.955Z" fill="#263238"/>
<g opacity="0.6">
<path opacity="0.6" d="M212.761 265.618V317.423L213.692 317.955V266.162" fill="white"/>
</g>
<path d="M226.102 263.308V301.662L238.488 294.502V256.159L226.102 263.308Z" fill="#455A64"/>
<path d="M226.586 281.124C226.596 280.971 226.642 280.823 226.72 280.69C226.798 280.558 226.905 280.446 227.033 280.362C227.275 280.217 227.469 280.362 227.469 280.616C227.455 280.847 227.361 281.065 227.203 281.233V281.584C227.2 281.634 227.185 281.684 227.16 281.728C227.135 281.772 227.1 281.809 227.057 281.838C226.973 281.838 226.9 281.838 226.9 281.753V281.39C226.695 281.451 226.586 281.33 226.586 281.124Z" fill="#263238"/>
<path d="M231 262.425L227.843 264.251V278.766L231 276.939V262.425Z" fill="#263238"/>
<path d="M236.25 259.4L233.081 261.227V275.729L236.25 273.903V259.4Z" fill="#263238"/>
<path d="M231 276.939L231.508 277.229L227.843 279.346V278.765L231 276.939Z" fill="#263238"/>
<path d="M236.25 273.903L236.746 274.194L233.081 276.31L232.585 276.02L236.25 273.903Z" fill="#263238"/>
<path d="M236.25 273.903V259.388L236.746 259.098V274.193L236.25 273.903Z" fill="#37474F"/>
<path d="M231.508 277.229L233.08 276.31V261.227L231.508 262.134V277.229Z" fill="#455A64"/>
<path d="M231.508 277.229L231 276.939V262.424L231.508 262.134V277.229Z" fill="#37474F"/>
<g opacity="0.1">
<path opacity="0.1" d="M231.508 279.637L227.843 281.753V297.986L231.508 295.881V279.637Z" fill="black"/>
</g>
<path d="M231.158 280.797L228.654 282.249V296.558L231.158 295.119V280.797Z" fill="#455A64"/>
<path d="M227.843 281.753L228.654 282.249V296.558L227.843 297.985V281.753Z" fill="#37474F"/>
<path d="M231.508 279.637L231.158 280.798V295.119L231.508 295.881V279.637Z" fill="#37474F"/>
<path d="M231.508 295.881L231.157 295.119L228.654 296.558L227.843 297.985L231.508 295.881Z" fill="#263238"/>
<g opacity="0.1">
<path opacity="0.1" d="M236.746 276.6L233.081 278.717V294.961L236.746 292.845V276.6Z" fill="black"/>
</g>
<path d="M236.395 277.774L233.891 279.213V293.522L236.395 292.083V277.774Z" fill="#455A64"/>
<path d="M233.081 278.718L233.891 279.213V293.522L233.081 294.962V278.718Z" fill="#37474F"/>
<path d="M236.746 276.6L236.395 277.774V292.083L236.746 292.845V276.6Z" fill="#37474F"/>
<path d="M236.746 292.845L236.395 292.083L233.891 293.522L233.081 294.961L236.746 292.845Z" fill="#263238"/>
<path d="M225.558 301.965L226.102 301.662V263.307L225.57 263.622L225.558 301.965Z" fill="#263238"/>
<path d="M217.84 268.073L217.429 268.315V306.658L225.545 301.965V263.61L217.84 268.073Z" fill="#455A64"/>
<path d="M224.142 282.588C224.149 282.434 224.191 282.283 224.267 282.149C224.343 282.014 224.449 281.899 224.578 281.814C224.819 281.681 225.013 281.814 225.013 282.08C225 282.31 224.905 282.529 224.747 282.697V283.06C224.745 283.11 224.731 283.16 224.706 283.204C224.68 283.249 224.645 283.286 224.602 283.314C224.517 283.314 224.457 283.313 224.457 283.229V282.854C224.251 282.902 224.142 282.793 224.142 282.588Z" fill="#263238"/>
<path d="M218.07 269.876V284.39L217.429 284.765V270.251L218.07 269.876Z" fill="#263238"/>
<path d="M223.32 266.852L220.151 268.678V283.193L223.32 281.366V266.852Z" fill="#263238"/>
<path d="M218.578 284.68L217.429 285.345V284.765L218.07 284.39L218.578 284.68Z" fill="#263238"/>
<path d="M223.32 281.366L223.816 281.656L220.151 283.761L219.655 283.471L223.32 281.366Z" fill="#263238"/>
<path d="M223.32 281.366V266.84L223.816 266.549V281.657L223.32 281.366Z" fill="#37474F"/>
<path d="M218.579 284.68L220.151 283.761V268.678L218.579 269.597V284.68Z" fill="#455A64"/>
<path d="M218.578 284.68L218.07 284.39V269.875L218.578 269.597V284.68Z" fill="#37474F"/>
<g opacity="0.1">
<path opacity="0.1" d="M218.579 287.087V303.331L217.442 303.985V287.74L218.579 287.087Z" fill="black"/>
</g>
<path d="M218.228 288.248V302.57L217.442 303.029V288.708L218.228 288.248Z" fill="#455A64"/>
<path d="M218.579 287.087L218.228 288.26V302.569L218.579 303.331V287.087Z" fill="#37474F"/>
<path d="M218.579 303.332L217.442 303.985V303.029L218.228 302.57L218.579 303.332Z" fill="#263238"/>
<g opacity="0.1">
<path opacity="0.1" d="M223.816 284.063L220.151 286.168V302.412L223.816 300.296V284.063Z" fill="black"/>
</g>
<path d="M223.465 285.225L220.962 286.664V300.985L223.465 299.534V285.225Z" fill="#455A64"/>
<path d="M220.151 286.168L220.961 286.664V300.985L220.151 302.412V286.168Z" fill="#37474F"/>
<path d="M223.816 284.063L223.465 285.225V299.534L223.816 300.296V284.063Z" fill="#37474F"/>
<path d="M223.816 300.295L223.465 299.533L220.961 300.985L220.151 302.412L223.816 300.295Z" fill="#263238"/>
<g opacity="0.1">
<path opacity="0.1" d="M238.488 256.159V260.441L217.429 272.633V268.315L238.488 256.159Z" fill="black"/>
</g>
<path d="M219.631 316.818V323.664L217.647 324.813V338.517L239.407 351.085V346.513L235.452 344.226V339.654L231.497 337.38V332.808L227.542 330.522V325.95L223.586 323.664V319.092L219.631 316.818Z" fill="#EBEBEB"/>
<path d="M246.157 299.207L217.647 315.669L223.586 319.092L252.108 302.642L246.157 299.207Z" fill="#FAFAFA"/>
<path d="M252.108 307.214L223.586 323.664L227.542 325.95L256.063 309.5L252.108 307.214Z" fill="#FAFAFA"/>
<path d="M256.063 314.072L227.541 330.522L231.496 332.808L260.018 316.358L256.063 314.072Z" fill="#FAFAFA"/>
<path d="M260.018 320.918L231.497 337.38L235.452 339.654L263.973 323.204L260.018 320.918Z" fill="#FAFAFA"/>
<path d="M263.973 327.776L235.452 344.226L239.407 346.512L267.929 330.062L263.973 327.776Z" fill="#FAFAFA"/>
<path d="M252.108 302.642L223.586 319.092V323.664L252.108 307.214V302.642Z" fill="#F0F0F0"/>
<path d="M256.063 309.5L227.541 325.95V330.522L256.063 314.072V309.5Z" fill="#F0F0F0"/>
<path d="M260.018 316.358L231.497 332.808V337.38L260.018 320.918V316.358Z" fill="#F0F0F0"/>
<path d="M267.928 330.063L239.407 346.513V351.085L267.928 334.635V330.063Z" fill="#F0F0F0"/>
<path d="M263.973 323.204L235.452 339.654V344.227L263.973 327.777V323.204Z" fill="#F0F0F0"/>
<path d="M162.903 306.15V333.256L142.462 345.049V317.955L162.903 306.15Z" fill="#263238"/>
<g opacity="0.25">
<path opacity="0.25" d="M162.903 306.15V333.256L142.462 345.049V317.955L162.903 306.15Z" fill="black"/>
</g>
<path d="M160.145 331.418L142.462 341.627V317.956L160.145 307.747V331.418Z" fill="#263238"/>
<g opacity="0.95">
<path opacity="0.95" d="M160.145 331.418L142.462 341.627V317.956L160.145 307.747V331.418Z" fill="white"/>
</g>
<path d="M162.903 306.15L160.145 307.747V331.418L162.903 333.256V306.15Z" fill="#263238"/>
<path d="M139.909 346.525L165.455 331.78L166.725 332.506L141.167 347.263L139.909 346.525Z" fill="#263238"/>
<g opacity="0.8">
<path opacity="0.8" d="M139.909 346.525L165.455 331.78L166.725 332.506L141.167 347.263L139.909 346.525Z" fill="white"/>
</g>
<path d="M141.167 347.263V350.214L166.725 335.458V332.506L141.167 347.263Z" fill="#263238"/>
<g opacity="0.6">
<path opacity="0.6" d="M141.167 347.263V350.214L166.725 335.458V332.506L141.167 347.263Z" fill="white"/>
</g>
<path d="M139.909 346.525V349.476L141.167 350.214V347.263L139.909 346.525Z" fill="#263238"/>
<g opacity="0.4">
<path opacity="0.4" d="M139.909 346.525V349.476L141.167 350.214V347.263L139.909 346.525Z" fill="white"/>
</g>
<path d="M150.747 336.848V313.165L152.235 312.318V335.989L150.747 336.848Z" fill="#455A64"/>
<path d="M198.573 285.563V312.657L178.131 324.463V297.369L198.573 285.563Z" fill="#263238"/>
<g opacity="0.25">
<path opacity="0.25" d="M198.573 285.563V312.657L178.131 324.463V297.369L198.573 285.563Z" fill="black"/>
</g>
<path d="M195.815 310.831L178.131 321.04V297.369L195.815 287.16V310.831Z" fill="#263238"/>
<g opacity="0.95">
<path opacity="0.95" d="M195.815 310.831L178.131 321.04V297.369L195.815 287.16V310.831Z" fill="white"/>
</g>
<path d="M198.573 285.563L195.815 287.16V310.831L198.573 312.657V285.563Z" fill="#263238"/>
<path d="M175.567 325.938L201.125 311.182L202.382 311.919L176.837 326.664L175.567 325.938Z" fill="#263238"/>
<g opacity="0.8">
<path opacity="0.8" d="M175.567 325.938L201.125 311.182L202.382 311.919L176.837 326.664L175.567 325.938Z" fill="white"/>
</g>
<path d="M176.837 326.664V329.615L202.383 314.871V311.919L176.837 326.664Z" fill="#263238"/>
<g opacity="0.6">
<path opacity="0.6" d="M176.837 326.664V329.615L202.383 314.871V311.919L176.837 326.664Z" fill="white"/>
</g>
<path d="M175.567 325.939V328.89L176.837 329.616V326.664L175.567 325.939Z" fill="#263238"/>
<g opacity="0.4">
<path opacity="0.4" d="M175.567 325.939V328.89L176.837 329.616V326.664L175.567 325.939Z" fill="white"/>
</g>
<path d="M186.417 316.25V292.579L187.904 291.72V315.403L186.417 316.25Z" fill="#455A64"/>
<path d="M75.1857 306.537V333.631L95.6392 345.436V318.33L75.1857 306.537Z" fill="#263238"/>
<g opacity="0.25">
<path opacity="0.25" d="M75.1857 306.537V333.631L95.6392 345.436V318.33L75.1857 306.537Z" fill="black"/>
</g>
<path d="M77.9432 331.805L95.639 342.014V318.33L77.9432 308.122V331.805Z" fill="#263238"/>
<g opacity="0.95">
<path opacity="0.95" d="M77.9432 331.805L95.639 342.014V318.33L77.9432 308.122V331.805Z" fill="white"/>
</g>
<path d="M75.1857 306.537L77.9435 308.122V331.805L75.1857 333.631V306.537Z" fill="#263238"/>
<path d="M98.1919 346.912L72.634 332.156L71.3761 332.882L96.9219 347.638L98.1919 346.912Z" fill="#263238"/>
<g opacity="0.8">
<path opacity="0.8" d="M98.1919 346.912L72.634 332.156L71.3761 332.882L96.9219 347.638L98.1919 346.912Z" fill="white"/>
</g>
<path d="M96.9219 347.638V350.589L71.3761 335.833V332.881L96.9219 347.638Z" fill="#263238"/>
<g opacity="0.6">
<path opacity="0.6" d="M96.9219 347.638V350.589L71.3761 335.833V332.881L96.9219 347.638Z" fill="white"/>
</g>
<path d="M98.1914 346.912V349.864L96.9214 350.589V347.638L98.1914 346.912Z" fill="#263238"/>
<g opacity="0.4">
<path opacity="0.4" d="M98.1914 346.912V349.864L96.9214 350.589V347.638L98.1914 346.912Z" fill="white"/>
</g>
<path d="M87.3417 337.224V313.553L85.8661 312.694V336.365L87.3417 337.224Z" fill="#455A64"/>
<path d="M27.0455 278.742V305.836L47.487 317.641V290.535L27.0455 278.742Z" fill="#263238"/>
<g opacity="0.25">
<path opacity="0.25" d="M27.0455 278.742V305.836L47.487 317.641V290.535L27.0455 278.742Z" fill="black"/>
</g>
<path d="M29.8031 304.009L47.4868 314.218V290.534L29.8031 280.326V304.009Z" fill="#263238"/>
<g opacity="0.95">
<path opacity="0.95" d="M29.8031 304.009L47.4868 314.218V290.534L29.8031 280.326V304.009Z" fill="white"/>
</g>
<path d="M27.0455 278.742L29.8033 280.326V304.009L27.0455 305.836V278.742Z" fill="#263238"/>
<path d="M50.0514 319.116L24.4935 304.36L23.2235 305.085L48.7814 319.842L50.0514 319.116Z" fill="#263238"/>
<g opacity="0.8">
<path opacity="0.8" d="M50.0514 319.116L24.4935 304.36L23.2235 305.085L48.7814 319.842L50.0514 319.116Z" fill="white"/>
</g>
<path d="M48.7814 319.842V322.794L23.2235 308.037V305.086L48.7814 319.842Z" fill="#263238"/>
<g opacity="0.6">
<path opacity="0.6" d="M48.7814 319.842V322.794L23.2235 308.037V305.086L48.7814 319.842Z" fill="white"/>
</g>
<path d="M50.0513 319.117V322.068L48.7812 322.794V319.842L50.0513 319.117Z" fill="#263238"/>
<g opacity="0.4">
<path opacity="0.4" d="M50.0513 319.117V322.068L48.7812 322.794V319.842L50.0513 319.117Z" fill="white"/>
</g>
<path d="M39.2011 309.428V285.757L37.7134 284.898V308.569L39.2011 309.428Z" fill="#455A64"/>
<g opacity="0.15">
<path opacity="0.15" d="M252.47 229.803L210.982 253.764V244.354L252.47 220.393V229.803Z" fill="black"/>
</g>
<path d="M210.982 244.354L252.47 220.393L263.501 226.755L222.014 250.728L210.982 244.354Z" fill="#FAFAFA"/>
<path d="M210.982 244.354V245.951L222.014 252.313V250.729L210.982 244.354Z" fill="#E0E0E0"/>
<path d="M222.014 250.729L263.501 226.755V228.352L222.014 252.313V250.729Z" fill="#F0F0F0"/>
<path d="M245.552 177.986V224.385L217.526 240.568L217.514 194.182L245.552 177.986Z" fill="#263238"/>
<path d="M243.326 222.909L246.495 224.929L217.514 241.657L217.526 237.798L243.326 222.909Z" fill="#263238"/>
<g opacity="0.8">
<path opacity="0.8" d="M243.326 222.909L246.495 224.929L217.514 241.657L217.526 237.798L243.326 222.909Z" fill="white"/>
</g>
<path d="M243.326 222.908L217.526 237.798L217.514 194.182L243.326 179.268V222.908Z" fill="#263238"/>
<g opacity="0.95">
<path opacity="0.95" d="M243.326 222.909L217.526 237.798L217.514 194.182L243.326 179.28V222.909Z" fill="white"/>
</g>
<g opacity="0.1">
<path opacity="0.1" d="M243.326 179.28V183.586L217.514 198.488V194.182L243.326 179.28Z" fill="black"/>
</g>
<path d="M232.512 185.521L231.533 186.078V232.464L232.512 231.92V185.521Z" fill="#263238"/>
<g opacity="0.2">
<path opacity="0.2" d="M232.512 185.521L231.533 186.078V232.464L232.512 231.92V185.521Z" fill="black"/>
</g>
<path d="M231.533 186.078V232.464L230.565 231.908V186.634L231.533 186.078Z" fill="#263238"/>
<g opacity="0.4">
<path opacity="0.4" d="M231.533 186.078V232.464L230.565 231.908V186.634L231.533 186.078Z" fill="black"/>
</g>
<path d="M245.551 224.385L246.495 224.929V177.454L245.551 177.986V224.385Z" fill="#263238"/>
<g opacity="0.4">
<path opacity="0.4" d="M245.551 224.385L246.495 224.929V177.454L245.551 177.986V224.385Z" fill="white"/>
</g>
<g opacity="0.1">
<path opacity="0.1" d="M245.551 224.385L246.495 224.929V177.454L245.551 177.986V224.385Z" fill="black"/>
</g>
<path d="M246.495 224.929L250.232 222.776V170.971L213.776 192.017V243.81L217.514 241.657V194.182L246.495 177.454V224.929Z" fill="#263238"/>
<g opacity="0.7">
<path opacity="0.7" d="M246.495 224.929L250.232 222.776V170.971L213.776 192.017V243.81L217.514 241.657V194.182L246.495 177.454V224.929Z" fill="white"/>
</g>
<path d="M250.233 170.971L213.777 192.017L212.845 191.485L249.301 170.438L250.233 170.971Z" fill="#263238"/>
<g opacity="0.85">
<path opacity="0.85" d="M250.233 170.971L213.777 192.017L212.845 191.485L249.301 170.438L250.233 170.971Z" fill="white"/>
</g>
<path d="M213.777 243.81V192.017L212.845 191.484V243.277L213.777 243.81Z" fill="#263238"/>
<g opacity="0.6">
<path opacity="0.6" d="M212.845 191.484V243.277L213.777 243.81V192.017" fill="white"/>
</g>
<path d="M262.979 207.62C262.978 207.501 262.945 207.384 262.884 207.282C262.822 207.18 262.734 207.096 262.629 207.039L262.302 206.846L251.718 200.798C251.681 200.778 251.64 200.768 251.597 200.768C251.555 200.768 251.514 200.778 251.477 200.798C251.349 200.904 251.247 201.038 251.178 201.188C251.109 201.339 251.075 201.503 251.077 201.669C251.07 201.74 251.079 201.813 251.104 201.88C251.129 201.947 251.17 202.007 251.223 202.056L251.549 202.25L260.923 207.547" fill="#455A64"/>
<path d="M261.977 209.507L251.37 203.459C251.348 203.445 251.323 203.438 251.297 203.438C251.271 203.438 251.246 203.445 251.225 203.459C251.168 203.497 251.121 203.547 251.088 203.606C251.054 203.664 251.035 203.73 251.031 203.798C251.02 203.818 251.015 203.841 251.015 203.864C251.015 203.887 251.02 203.91 251.031 203.931L261.917 210.208L261.977 209.507Z" fill="#455A64"/>
<g opacity="0.2">
<path opacity="0.2" d="M261.977 211.793L251.031 205.443V219.159L261.977 225.497V211.793Z" fill="black"/>
</g>
<g opacity="0.2">
<path opacity="0.2" d="M221.795 234.98L261.977 211.793V225.497L221.795 248.685V234.98Z" fill="black"/>
</g>
<g opacity="0.2">
<path opacity="0.2" d="M222.207 234.98L210.777 228.352V242.056L222.207 248.684V234.98Z" fill="black"/>
</g>
<path d="M222.026 232.585L211.14 226.296C211.093 226.278 211.041 226.278 210.995 226.296C210.937 226.335 210.89 226.387 210.856 226.448C210.823 226.509 210.804 226.577 210.801 226.647C210.801 226.707 210.801 226.755 210.801 226.767L221.687 233.057L222.026 232.585Z" fill="#455A64"/>
<path d="M241.584 221.276L261.603 209.725C261.623 209.713 261.646 209.707 261.669 209.707C261.692 209.707 261.715 209.713 261.736 209.725C261.794 209.764 261.843 209.816 261.878 209.877C261.914 209.937 261.935 210.005 261.941 210.075C261.952 210.094 261.957 210.115 261.957 210.136C261.957 210.157 261.952 210.178 261.941 210.196L241.923 221.748L241.584 221.276Z" fill="#455A64"/>
<path d="M241.887 219.341V238.174C241.882 238.199 241.872 238.222 241.857 238.243C241.843 238.264 241.824 238.282 241.802 238.295C241.74 238.325 241.672 238.34 241.603 238.34C241.533 238.34 241.465 238.325 241.403 238.295C241.381 238.282 241.362 238.264 241.348 238.243C241.333 238.222 241.323 238.199 241.318 238.174V219.341H241.887Z" fill="#37474F"/>
<path d="M221.977 232.585L241.33 221.385C241.349 221.37 241.373 221.362 241.397 221.362C241.421 221.362 241.444 221.37 241.463 221.385C241.521 221.422 241.57 221.471 241.606 221.53C241.641 221.589 241.663 221.655 241.669 221.723C241.671 221.749 241.667 221.775 241.657 221.798C241.646 221.822 241.629 221.842 241.608 221.857L222.255 233.057L221.977 232.585Z" fill="#455A64"/>
<path d="M262.122 207.68V226.513C262.118 226.537 262.109 226.559 262.094 226.578C262.079 226.597 262.06 226.612 262.038 226.622C261.977 226.657 261.908 226.676 261.838 226.676C261.768 226.676 261.699 226.657 261.639 226.622C261.617 226.612 261.597 226.597 261.583 226.578C261.568 226.559 261.558 226.537 261.554 226.513V207.68H262.122Z" fill="#37474F"/>
<path d="M222.28 230.662V249.495C222.28 249.495 222.28 249.58 222.195 249.616C222.133 249.646 222.064 249.662 221.995 249.662C221.926 249.662 221.858 249.646 221.796 249.616C221.774 249.604 221.756 249.586 221.744 249.565C221.731 249.544 221.724 249.52 221.723 249.495V230.662H222.28Z" fill="#37474F"/>
<path d="M260.937 207.632L222.002 230.094L211.418 224.106C211.382 224.084 211.34 224.072 211.297 224.072C211.254 224.072 211.212 224.084 211.176 224.106C211.048 224.209 210.945 224.34 210.876 224.489C210.806 224.638 210.773 224.801 210.777 224.965C210.767 225.038 210.775 225.113 210.801 225.182C210.826 225.252 210.868 225.314 210.922 225.364L221.663 231.412C221.764 231.464 221.876 231.493 221.989 231.497C222.109 231.496 222.226 231.463 222.328 231.4L262.63 208.152C262.733 208.091 262.818 208.004 262.877 207.9C262.936 207.796 262.968 207.679 262.969 207.56" fill="#455A64"/>
<g opacity="0.15">
<path opacity="0.15" d="M252.47 160.447L210.982 184.409V174.998L252.47 151.037V160.447Z" fill="black"/>
</g>
<path d="M210.982 174.998L252.47 151.024L263.501 157.399L222.014 181.36L210.982 174.998Z" fill="#FAFAFA"/>
<path d="M210.982 174.998V176.582L222.014 182.957V181.36L210.982 174.998Z" fill="#E0E0E0"/>
<path d="M222.014 181.36L263.501 157.399V158.996L222.014 182.957V181.36Z" fill="#F0F0F0"/>
<path d="M245.552 108.63V155.028L217.526 171.212L217.514 124.814L245.552 108.63Z" fill="#263238"/>
<path d="M243.326 153.54L246.495 155.572L217.514 172.301L217.526 168.442L243.326 153.54Z" fill="#263238"/>
<g opacity="0.8">
<path opacity="0.8" d="M243.326 153.54L246.495 155.572L217.514 172.301L217.526 168.442L243.326 153.54Z" fill="white"/>
</g>
<path d="M243.326 153.54L217.526 168.442L217.514 124.814L243.326 109.912V153.54Z" fill="#263238"/>
<g opacity="0.95">
<path opacity="0.95" d="M243.326 153.54L217.526 168.442L217.514 124.814L243.326 109.912V153.54Z" fill="white"/>
</g>
<g opacity="0.1">
<path opacity="0.1" d="M243.326 109.912V114.23L217.514 129.132V124.814L243.326 109.912Z" fill="black"/>
</g>
<path d="M232.513 116.153L231.533 116.722V163.108L232.513 162.552V116.153Z" fill="#263238"/>
<g opacity="0.2">
<path opacity="0.2" d="M232.513 116.153L231.533 116.722V163.108L232.513 162.552V116.153Z" fill="black"/>
</g>
<path d="M231.533 116.722V163.108L230.565 162.552V117.278L231.533 116.722Z" fill="#263238"/>
<g opacity="0.4">
<path opacity="0.4" d="M231.533 116.722V163.108L230.565 162.552V117.278L231.533 116.722Z" fill="black"/>
</g>
<path d="M245.552 155.028L246.495 155.573V108.085L245.552 108.63V155.028Z" fill="#263238"/>
<g opacity="0.4">
<path opacity="0.4" d="M245.552 155.028L246.495 155.573V108.085L245.552 108.63V155.028Z" fill="white"/>
</g>
<g opacity="0.1">
<path opacity="0.1" d="M245.552 155.028L246.495 155.573V108.085L245.552 108.63V155.028Z" fill="black"/>
</g>
<path d="M246.495 155.572L250.233 153.407V101.614L213.777 122.66V174.453L217.514 172.3V124.813L246.495 108.085V155.572Z" fill="#263238"/>
<g opacity="0.7">
<path opacity="0.7" d="M246.495 155.572L250.233 153.407V101.614L213.777 122.66V174.453L217.514 172.3V124.813L246.495 108.085V155.572Z" fill="white"/>
</g>
<path d="M250.233 101.614L213.777 122.66L212.845 122.116L249.301 101.07L250.233 101.614Z" fill="#263238"/>
<g opacity="0.85">
<path opacity="0.85" d="M250.233 101.614L213.777 122.66L212.845 122.116L249.301 101.07L250.233 101.614Z" fill="white"/>
</g>
<path d="M213.777 174.454V122.661L212.845 122.117V173.922L213.777 174.454Z" fill="#263238"/>
<g opacity="0.6">
<path opacity="0.6" d="M212.845 122.117V173.922L213.777 174.454V122.661" fill="white"/>
</g>
<path d="M262.98 138.264C262.978 138.144 262.946 138.027 262.887 137.923C262.828 137.82 262.743 137.733 262.641 137.671L262.302 137.49L251.731 131.442C251.695 131.425 251.655 131.416 251.616 131.416C251.576 131.416 251.537 131.425 251.501 131.442C251.369 131.545 251.264 131.678 251.192 131.829C251.121 131.98 251.086 132.146 251.09 132.313C251.082 132.384 251.091 132.456 251.116 132.524C251.141 132.591 251.182 132.651 251.235 132.7L251.561 132.881L260.935 138.191" fill="#455A64"/>
<path d="M261.989 140.151L251.369 134.018C251.323 134.001 251.271 134.001 251.224 134.018C251.167 134.058 251.12 134.11 251.086 134.171C251.053 134.232 251.034 134.3 251.031 134.369C251.028 134.393 251.032 134.417 251.043 134.439C251.053 134.46 251.07 134.478 251.091 134.49L261.977 140.78L261.989 140.151Z" fill="#455A64"/>
<g opacity="0.2">
<path opacity="0.2" d="M261.989 142.437L251.031 136.087V149.791L261.989 156.141V142.437Z" fill="black"/>
</g>
<g opacity="0.2">
<path opacity="0.2" d="M221.796 165.624L261.989 142.437V156.141L221.796 179.328V165.624Z" fill="black"/>
</g>
<g opacity="0.2">
<path opacity="0.2" d="M222.219 165.624L210.777 158.996V172.7L222.219 179.328V165.624Z" fill="black"/>
</g>
<path d="M222.026 163.229L211.14 156.94C211.14 156.94 211.055 156.94 210.995 156.94C210.937 156.978 210.889 157.03 210.855 157.091C210.822 157.152 210.803 157.221 210.801 157.29C210.8 157.314 210.804 157.338 210.815 157.359C210.826 157.38 210.842 157.398 210.862 157.411L221.748 163.701L222.026 163.229Z" fill="#455A64"/>
<path d="M241.584 151.907L261.603 140.368C261.624 140.354 261.649 140.347 261.675 140.347C261.701 140.347 261.726 140.354 261.748 140.368C261.804 140.406 261.851 140.456 261.885 140.515C261.918 140.574 261.938 140.639 261.941 140.707C261.952 140.728 261.957 140.75 261.957 140.774C261.957 140.797 261.952 140.819 261.941 140.84L241.923 152.379L241.584 151.907Z" fill="#455A64"/>
<path d="M241.887 149.984V168.817C241.885 168.841 241.877 168.865 241.861 168.884C241.846 168.904 241.826 168.918 241.802 168.926C241.742 168.955 241.676 168.971 241.609 168.971C241.541 168.971 241.475 168.955 241.415 168.926C241.391 168.918 241.371 168.904 241.356 168.884C241.34 168.865 241.332 168.841 241.33 168.817V149.984H241.887Z" fill="#37474F"/>
<path d="M221.99 163.229L241.343 152.028C241.364 152.014 241.389 152.007 241.415 152.007C241.441 152.007 241.466 152.014 241.488 152.028C241.544 152.066 241.591 152.116 241.625 152.175C241.658 152.233 241.678 152.299 241.681 152.367C241.683 152.392 241.678 152.418 241.667 152.441C241.657 152.464 241.641 152.484 241.621 152.5L222.268 163.7L221.99 163.229Z" fill="#455A64"/>
<path d="M262.122 138.324V157.157C262.122 157.157 262.122 157.229 262.038 157.266C261.978 157.296 261.911 157.311 261.844 157.311C261.777 157.311 261.711 157.296 261.651 157.266C261.59 157.266 261.566 157.193 261.566 157.157V138.324H262.122Z" fill="#37474F"/>
<path d="M222.28 161.306V180.139C222.278 180.162 222.27 180.184 222.258 180.203C222.245 180.222 222.227 180.237 222.207 180.248C222.146 180.283 222.077 180.301 222.007 180.301C221.937 180.301 221.869 180.283 221.808 180.248C221.784 180.24 221.764 180.226 221.748 180.206C221.733 180.187 221.724 180.163 221.723 180.139V161.306H222.28Z" fill="#37474F"/>
<path d="M260.936 138.276L222 160.737L211.429 154.689C211.394 154.669 211.354 154.659 211.314 154.659C211.274 154.659 211.234 154.669 211.199 154.689C211.068 154.793 210.962 154.925 210.891 155.076C210.819 155.227 210.784 155.393 210.788 155.56C210.782 155.633 210.792 155.707 210.817 155.776C210.842 155.845 210.881 155.907 210.933 155.959L221.674 162.007C221.776 162.068 221.893 162.102 222.013 162.104C222.132 162.1 222.248 162.067 222.351 162.007L262.641 138.856C262.744 138.795 262.828 138.708 262.888 138.604C262.947 138.5 262.979 138.383 262.98 138.264" fill="#455A64"/>
<g opacity="0.15">
<path opacity="0.15" d="M182.074 270.275L140.598 294.236V284.838L182.074 260.865V270.275Z" fill="black"/>
</g>
<path d="M140.598 284.838L182.074 260.865L193.105 267.239L151.629 291.2L140.598 284.838Z" fill="#FAFAFA"/>
<path d="M140.598 284.838V286.422L151.629 292.797V291.2L140.598 284.838Z" fill="#E0E0E0"/>
<path d="M151.629 291.2L193.105 267.239V268.823L151.629 292.797V291.2Z" fill="#F0F0F0"/>
<path d="M175.155 218.47V264.868L147.142 281.052L147.13 234.654L175.155 218.47Z" fill="#263238"/>
<path d="M172.942 263.38L176.111 265.412L147.13 282.141L147.142 278.282L172.942 263.38Z" fill="#263238"/>
<g opacity="0.8">
<path opacity="0.8" d="M172.942 263.38L176.111 265.412L147.13 282.141L147.142 278.282L172.942 263.38Z" fill="white"/>
</g>
<path d="M172.942 263.381L147.142 278.282L147.13 234.654L172.942 219.752V263.381Z" fill="#263238"/>
<g opacity="0.95">
<path opacity="0.95" d="M172.942 263.381L147.142 278.282L147.13 234.654L172.942 219.752V263.381Z" fill="white"/>
</g>
<g opacity="0.1">
<path opacity="0.1" d="M172.942 219.752V224.07L147.13 238.972V234.654L172.942 219.752Z" fill="black"/>
</g>
<path d="M162.128 225.993L161.149 226.561V272.948L162.128 272.391V225.993Z" fill="#263238"/>
<g opacity="0.2">
<path opacity="0.2" d="M162.128 225.993L161.149 226.561V272.948L162.128 272.391V225.993Z" fill="black"/>
</g>
<path d="M161.149 226.562V272.948L160.169 272.392V227.118L161.149 226.562Z" fill="#263238"/>
<g opacity="0.4">
<path opacity="0.4" d="M161.149 226.562V272.948L160.169 272.392V227.118L161.149 226.562Z" fill="black"/>
</g>
<path d="M175.155 264.868L176.111 265.413V217.925L175.155 218.47V264.868Z" fill="#263238"/>
<g opacity="0.4">
<path opacity="0.4" d="M175.155 264.868L176.111 265.413V217.925L175.155 218.47V264.868Z" fill="white"/>
</g>
<g opacity="0.1">
<path opacity="0.1" d="M175.155 264.868L176.111 265.413V217.925L175.155 218.47V264.868Z" fill="black"/>
</g>
<path d="M176.111 265.412L179.849 263.247V211.454L143.393 232.5V284.293L147.13 282.14V234.653L176.099 217.925L176.111 265.412Z" fill="#263238"/>
<g opacity="0.7">
<path opacity="0.7" d="M176.111 265.412L179.849 263.247V211.454L143.393 232.5V284.293L147.13 282.14V234.653L176.099 217.925L176.111 265.412Z" fill="white"/>
</g>
<path d="M179.849 211.454L143.393 232.5L142.462 231.956L178.918 210.91L179.849 211.454Z" fill="#263238"/>
<g opacity="0.85">
<path opacity="0.85" d="M179.849 211.454L143.393 232.5L142.462 231.956L178.918 210.91L179.849 211.454Z" fill="white"/>
</g>
<path d="M143.393 284.293V232.5L142.462 231.956V283.761L143.393 284.293Z" fill="#263238"/>
<g opacity="0.6">
<path opacity="0.6" d="M142.462 231.956V283.761L143.393 284.293V232.5" fill="white"/>
</g>
<path d="M192.584 248.104C192.582 247.984 192.55 247.867 192.491 247.763C192.432 247.66 192.347 247.573 192.245 247.511L191.906 247.33L181.323 241.33C181.288 241.31 181.248 241.299 181.208 241.299C181.167 241.299 181.128 241.31 181.093 241.33C180.963 241.432 180.858 241.563 180.787 241.712C180.716 241.861 180.68 242.024 180.682 242.189C180.673 242.262 180.681 242.337 180.707 242.406C180.732 242.475 180.773 242.538 180.827 242.588L181.153 242.77L190.527 248.08" fill="#455A64"/>
<path d="M191.594 249.991L180.974 243.87C180.927 243.853 180.875 243.853 180.829 243.87C180.771 243.91 180.724 243.962 180.69 244.023C180.657 244.084 180.638 244.152 180.635 244.221C180.624 244.239 180.619 244.26 180.619 244.282C180.619 244.303 180.624 244.324 180.635 244.342L191.521 250.632L191.594 249.991Z" fill="#455A64"/>
<g opacity="0.2">
<path opacity="0.2" d="M191.594 252.277L180.635 245.927V259.631L191.594 265.981V252.277Z" fill="black"/>
</g>
<g opacity="0.2">
<path opacity="0.2" d="M151.4 275.464L191.593 252.277V265.981L151.4 289.169V275.464Z" fill="black"/>
</g>
<g opacity="0.2">
<path opacity="0.2" d="M151.823 275.465L140.381 268.836V282.54L151.823 289.169V275.465Z" fill="black"/>
</g>
<path d="M151.63 273.117L140.744 266.828C140.724 266.816 140.701 266.81 140.677 266.81C140.654 266.81 140.631 266.816 140.611 266.828C140.551 266.862 140.5 266.911 140.464 266.971C140.428 267.03 140.408 267.097 140.405 267.166C140.394 267.187 140.389 267.21 140.389 267.233C140.389 267.256 140.394 267.279 140.405 267.299L151.291 273.589L151.63 273.117Z" fill="#455A64"/>
<path d="M171.188 261.748L191.206 250.209C191.227 250.195 191.253 250.187 191.278 250.187C191.304 250.187 191.329 250.195 191.351 250.209C191.407 250.246 191.454 250.296 191.488 250.355C191.521 250.414 191.541 250.48 191.545 250.547C191.555 250.568 191.561 250.591 191.561 250.614C191.561 250.637 191.555 250.66 191.545 250.681L171.466 262.232L171.188 261.748Z" fill="#455A64"/>
<path d="M171.491 259.812V278.645C171.489 278.67 171.481 278.693 171.465 278.713C171.45 278.732 171.43 278.747 171.406 278.754C171.346 278.784 171.28 278.799 171.213 278.799C171.145 278.799 171.079 278.784 171.019 278.754C170.995 278.747 170.975 278.732 170.96 278.713C170.944 278.693 170.936 278.67 170.934 278.645V259.812H171.491Z" fill="#37474F"/>
<path d="M151.594 273.118L170.947 261.917C170.968 261.903 170.993 261.896 171.019 261.896C171.045 261.896 171.07 261.903 171.092 261.917C171.148 261.955 171.195 262.005 171.229 262.064C171.262 262.122 171.282 262.188 171.285 262.256C171.287 262.281 171.282 262.307 171.271 262.33C171.261 262.353 171.245 262.373 171.225 262.389L151.872 273.589L151.594 273.118Z" fill="#455A64"/>
<path d="M191.726 248.165V266.998C191.726 266.998 191.726 267.07 191.642 267.107C191.581 267.137 191.515 267.152 191.448 267.152C191.381 267.152 191.315 267.137 191.255 267.107C191.194 267.107 191.17 267.034 191.17 266.998V248.165H191.726Z" fill="#37474F"/>
<path d="M151.884 271.146V289.979C151.882 290.002 151.874 290.024 151.862 290.043C151.849 290.062 151.831 290.077 151.811 290.087C151.751 290.124 151.682 290.143 151.611 290.143C151.541 290.143 151.472 290.124 151.412 290.087C151.388 290.08 151.368 290.066 151.352 290.046C151.337 290.027 151.328 290.003 151.327 289.979V271.146H151.884Z" fill="#37474F"/>
<path d="M190.541 248.116L151.606 270.578L141.034 264.651C140.999 264.631 140.96 264.62 140.919 264.62C140.879 264.62 140.839 264.631 140.804 264.651C140.673 264.754 140.567 264.886 140.496 265.038C140.425 265.189 140.389 265.355 140.393 265.522C140.387 265.595 140.397 265.668 140.422 265.737C140.447 265.806 140.487 265.869 140.538 265.921L151.279 271.969C151.382 272.03 151.498 272.063 151.618 272.065C151.737 272.061 151.853 272.028 151.956 271.969L192.21 248.697C192.315 248.638 192.402 248.551 192.462 248.447C192.521 248.343 192.551 248.224 192.549 248.104" fill="#455A64"/>
<g opacity="0.15">
<path opacity="0.15" d="M182.074 200.919L140.599 224.892V215.482L182.074 191.508V200.919Z" fill="black"/>
</g>
<path d="M140.599 215.482L182.074 191.508L193.106 197.883L151.63 221.844L140.599 215.482Z" fill="#FAFAFA"/>
<path d="M140.599 215.482V217.067L151.63 223.441V221.844L140.599 215.482Z" fill="#E0E0E0"/>
<path d="M151.63 221.844L193.105 197.883V199.468L151.63 223.441V221.844Z" fill="#F0F0F0"/>
<path d="M175.156 149.114V195.512L147.143 211.684L147.131 165.298L175.156 149.114Z" fill="#263238"/>
<path d="M172.943 194.024L176.099 196.044L147.131 212.772L147.143 208.926L172.943 194.024Z" fill="#263238"/>
<g opacity="0.8">
<path opacity="0.8" d="M172.943 194.024L176.099 196.044L147.131 212.772L147.143 208.926L172.943 194.024Z" fill="white"/>
</g>
<path d="M172.943 194.024L147.143 208.926L147.131 165.298L172.943 150.396V194.024Z" fill="#263238"/>
<g opacity="0.95">
<path opacity="0.95" d="M172.943 194.024L147.131 208.926V165.298L172.943 150.396V194.024Z" fill="white"/>
</g>
<g opacity="0.1">
<path opacity="0.1" d="M172.943 150.396V154.714L147.131 169.616V165.298L172.943 150.396Z" fill="black"/>
</g>
<path d="M162.117 156.637L161.149 157.193V203.58L162.117 203.036V156.637Z" fill="#263238"/>
<g opacity="0.2">
<path opacity="0.2" d="M162.117 156.637L161.149 157.193V203.58L162.117 203.036V156.637Z" fill="black"/>
</g>
<path d="M161.149 157.193V203.58L160.169 203.023V157.762L161.149 157.193Z" fill="#263238"/>
<g opacity="0.4">
<path opacity="0.4" d="M161.149 157.193V203.58L160.169 203.023V157.762L161.149 157.193Z" fill="black"/>
</g>
<path d="M175.156 195.512L176.1 196.044V148.569L175.156 149.114V195.512Z" fill="#263238"/>
<g opacity="0.4">
<path opacity="0.4" d="M175.156 195.512L176.1 196.044V148.569L175.156 149.114V195.512Z" fill="white"/>
</g>
<g opacity="0.1">
<path opacity="0.1" d="M175.156 195.512L176.1 196.044V148.569L175.156 149.114V195.512Z" fill="black"/>
</g>
<path d="M176.1 196.044L179.837 193.891V142.098L143.393 163.132V214.938L147.131 212.772V165.297L176.1 148.569V196.044Z" fill="#263238"/>
<g opacity="0.7">
<path opacity="0.7" d="M176.1 196.044L179.837 193.891V142.098L143.393 163.132V214.938L147.131 212.772V165.297L176.1 148.569V196.044Z" fill="white"/>
</g>
<path d="M179.837 142.098L143.393 163.132L142.462 162.6L178.918 141.554L179.837 142.098Z" fill="#263238"/>
<g opacity="0.85">
<path opacity="0.85" d="M179.837 142.098L143.393 163.132L142.462 162.6L178.918 141.554L179.837 142.098Z" fill="white"/>
</g>
<path d="M143.393 214.937V163.132L142.462 162.6V214.393L143.393 214.937Z" fill="#263238"/>
<g opacity="0.6">
<path opacity="0.6" d="M142.462 162.6V214.393L143.393 214.937V163.132" fill="white"/>
</g>
<path d="M192.597 178.772C192.597 178.651 192.565 178.532 192.503 178.428C192.441 178.324 192.353 178.238 192.247 178.18L191.92 177.998L181.336 171.95C181.3 171.928 181.258 171.916 181.215 171.916C181.173 171.916 181.131 171.928 181.095 171.95C180.966 172.053 180.863 172.184 180.794 172.333C180.725 172.482 180.691 172.645 180.695 172.809C180.686 172.882 180.694 172.957 180.719 173.026C180.744 173.096 180.786 173.158 180.841 173.208L181.167 173.39L190.541 178.688" fill="#455A64"/>
<path d="M191.593 180.622L180.974 174.514C180.953 174.503 180.93 174.496 180.907 174.496C180.884 174.496 180.861 174.503 180.841 174.514C180.784 174.552 180.737 174.602 180.704 174.661C180.67 174.719 180.651 174.785 180.647 174.853C180.647 174.925 180.647 174.962 180.647 174.986L191.533 181.276L191.593 180.622Z" fill="#455A64"/>
<g opacity="0.2">
<path opacity="0.2" d="M191.593 182.909L180.647 176.571V190.275L191.593 196.625V182.909Z" fill="black"/>
</g>
<g opacity="0.2">
<path opacity="0.2" d="M151.412 206.095L191.594 182.908V196.625L151.412 219.812V206.095Z" fill="black"/>
</g>
<g opacity="0.2">
<path opacity="0.2" d="M151.823 206.095L140.393 199.479V213.183L151.823 219.812V206.095Z" fill="black"/>
</g>
<path d="M151.642 203.713L140.756 197.423C140.735 197.409 140.709 197.402 140.684 197.402C140.658 197.402 140.633 197.409 140.611 197.423C140.555 197.461 140.508 197.511 140.474 197.57C140.441 197.629 140.421 197.694 140.418 197.762C140.407 197.783 140.401 197.805 140.401 197.829C140.401 197.852 140.407 197.874 140.418 197.895L151.304 204.185L151.642 203.713Z" fill="#455A64"/>
<path d="M171.2 192.392L191.219 180.852C191.238 180.838 191.261 180.83 191.285 180.83C191.309 180.83 191.333 180.838 191.352 180.852C191.41 180.889 191.458 180.939 191.494 180.998C191.53 181.057 191.551 181.123 191.557 181.191C191.559 181.217 191.554 181.242 191.543 181.265C191.533 181.288 191.517 181.309 191.497 181.324L171.479 192.863L171.2 192.392Z" fill="#455A64"/>
<path d="M171.503 190.468V209.289C171.503 209.289 171.503 209.373 171.418 209.41C171.356 209.44 171.288 209.455 171.219 209.455C171.149 209.455 171.081 209.44 171.019 209.41C171.019 209.41 170.934 209.337 170.934 209.289V190.468H171.503Z" fill="#37474F"/>
<path d="M151.594 203.713L171.007 192.5C171.028 192.491 171.051 192.487 171.074 192.487C171.096 192.487 171.119 192.491 171.14 192.5C171.198 192.54 171.247 192.592 171.283 192.652C171.318 192.713 171.34 192.781 171.346 192.851C171.349 192.875 171.345 192.899 171.334 192.921C171.323 192.942 171.306 192.96 171.285 192.972L151.932 204.184L151.594 203.713Z" fill="#455A64"/>
<path d="M191.739 178.772V197.604C191.739 197.604 191.739 197.689 191.654 197.725C191.592 197.755 191.524 197.771 191.455 197.771C191.386 197.771 191.317 197.755 191.255 197.725C191.255 197.725 191.17 197.653 191.17 197.604V178.772H191.739Z" fill="#37474F"/>
<path d="M151.896 201.753V220.623C151.895 220.647 151.886 220.671 151.871 220.69C151.856 220.71 151.835 220.724 151.811 220.731C151.749 220.761 151.681 220.777 151.612 220.777C151.543 220.777 151.474 220.761 151.412 220.731C151.392 220.721 151.374 220.706 151.362 220.687C151.349 220.667 151.341 220.645 151.34 220.623V201.753H151.896Z" fill="#37474F"/>
<path d="M190.554 178.772L151.618 201.233L141.034 195.185C140.997 195.168 140.955 195.159 140.914 195.159C140.872 195.159 140.831 195.168 140.793 195.185C140.665 195.292 140.564 195.425 140.494 195.576C140.425 195.726 140.391 195.891 140.393 196.056C140.384 196.128 140.392 196.201 140.417 196.268C140.442 196.336 140.484 196.396 140.539 196.443L151.279 202.491C151.379 202.549 151.491 202.578 151.606 202.576C151.725 202.579 151.842 202.55 151.945 202.491L192.211 179.328C192.314 179.27 192.399 179.186 192.459 179.084C192.518 178.982 192.55 178.866 192.549 178.748" fill="#455A64"/>
<g opacity="0.15">
<path opacity="0.15" d="M27.9768 254.466L93.3895 292.289V282.878L27.9768 245.055V254.466Z" fill="black"/>
</g>
<path d="M93.3894 282.854L27.4203 244.705L16.3892 251.079L82.3583 289.217L93.3894 282.854Z" fill="#FAFAFA"/>
<path d="M93.3897 282.854V284.451L82.3585 290.813V289.217L93.3897 282.854Z" fill="#E0E0E0"/>
<path d="M82.3582 289.217L16.3892 251.079V252.664L82.3582 290.813V289.217Z" fill="#F0F0F0"/>
<path d="M46.8459 209.555V255.954L74.8713 272.126V225.739L46.8459 209.555Z" fill="#263238"/>
<path d="M49.0598 254.466L45.9028 256.486L74.8717 273.214V269.368L49.0598 254.466Z" fill="#263238"/>
<g opacity="0.8">
<path opacity="0.8" d="M49.0598 254.466L45.9028 256.486L74.8717 273.214V269.368L49.0598 254.466Z" fill="white"/>
</g>
<path d="M49.0593 254.466L74.8712 269.368V225.739L49.0593 210.838V254.466Z" fill="#263238"/>
<g opacity="0.95">
<path opacity="0.95" d="M49.0593 254.466L74.8712 269.368V225.739L49.0593 210.838V254.466Z" fill="white"/>
</g>
<g opacity="0.1">
<path opacity="0.1" d="M49.0593 210.838V215.156L74.8712 230.057V225.739L49.0593 210.838Z" fill="black"/>
</g>
<path d="M59.8849 217.079L60.8525 217.647V264.034L59.8849 263.477V217.079Z" fill="#263238"/>
<g opacity="0.2">
<path opacity="0.2" d="M59.8849 217.079L60.8525 217.647V264.034L59.8849 263.477V217.079Z" fill="black"/>
</g>
<path d="M60.8525 217.647V264.034L61.8323 263.465V218.204L60.8525 217.647Z" fill="#263238"/>
<g opacity="0.4">
<path opacity="0.4" d="M60.8525 217.647V264.034L61.8323 263.465V218.204L60.8525 217.647Z" fill="black"/>
</g>
<path d="M46.8463 255.954L45.9028 256.486V209.011L46.8463 209.555V255.954Z" fill="#263238"/>
<g opacity="0.4">
<path opacity="0.4" d="M46.8463 255.954L45.9028 256.486V209.011L46.8463 209.555V255.954Z" fill="white"/>
</g>
<g opacity="0.1">
<path opacity="0.1" d="M46.8463 255.954L45.9028 256.486V209.011L46.8463 209.555V255.954Z" fill="black"/>
</g>
<path d="M45.9027 256.486L42.1652 254.333V202.54L78.609 223.586V275.379L74.8715 273.214V225.739L45.9027 209.011V256.486Z" fill="#263238"/>
<g opacity="0.7">
<path opacity="0.7" d="M45.9027 256.486L42.1652 254.333V202.54L78.609 223.586V275.379L74.8715 273.214V225.739L45.9027 209.011V256.486Z" fill="white"/>
</g>
<path d="M42.1652 202.54L78.609 223.586L79.5404 223.042L43.0844 201.996L42.1652 202.54Z" fill="#263238"/>
<g opacity="0.85">
<path opacity="0.85" d="M42.1652 202.54L78.609 223.586L79.5404 223.042L43.0844 201.996L42.1652 202.54Z" fill="white"/>
</g>
<path d="M78.6089 275.38V223.587L79.5402 223.042V274.847L78.6089 275.38Z" fill="#263238"/>
<g opacity="0.6">
<path opacity="0.6" d="M79.5402 223.042V274.847L78.6089 275.38V223.587" fill="white"/>
</g>
<path d="M16.8246 231.908C16.8256 231.79 16.8574 231.675 16.9168 231.573C16.9762 231.471 17.0612 231.387 17.1633 231.328L17.4898 231.134L28.0734 225.086C28.1106 225.066 28.1522 225.056 28.1944 225.056C28.2366 225.056 28.2782 225.066 28.3153 225.086C28.4468 225.19 28.5524 225.322 28.6238 225.473C28.6952 225.624 28.7304 225.79 28.7266 225.957C28.7349 226.03 28.7249 226.103 28.6974 226.171C28.6699 226.238 28.6259 226.298 28.5694 226.344L28.2549 226.526L18.8808 231.836" fill="#455A64"/>
<path d="M17.8412 233.795L28.4611 227.687C28.4801 227.672 28.5035 227.664 28.5276 227.664C28.5517 227.664 28.5751 227.672 28.5941 227.687C28.6521 227.724 28.7008 227.774 28.7365 227.832C28.7721 227.891 28.7938 227.957 28.7998 228.026C28.8012 228.051 28.7964 228.076 28.7859 228.1C28.7754 228.123 28.7594 228.143 28.7393 228.159L17.8533 234.436L17.8412 233.795Z" fill="#455A64"/>
<g opacity="0.2">
<path opacity="0.2" d="M17.8412 236.081L28.7998 229.731V243.435L17.8412 249.786V236.081Z" fill="black"/>
</g>
<g opacity="0.2">
<path opacity="0.2" d="M82.5886 273.48L17.8412 236.081V249.785L82.5886 287.184V273.48Z" fill="black"/>
</g>
<g opacity="0.2">
<path opacity="0.2" d="M82.1768 273.48L93.607 266.852V280.556L82.1768 287.185V273.48Z" fill="black"/>
</g>
<path d="M82.358 271.086L93.244 264.796C93.244 264.796 93.3287 264.796 93.3892 264.796C93.4472 264.835 93.495 264.887 93.5287 264.948C93.5623 265.009 93.5809 265.077 93.5827 265.147C93.5923 265.165 93.5972 265.186 93.5972 265.207C93.5972 265.228 93.5923 265.249 93.5827 265.268L82.6967 271.557L82.358 271.086Z" fill="#455A64"/>
<path d="M50.8136 252.833L18.2161 234.013C18.2161 234.013 18.1314 234.013 18.0831 234.013C18.0251 234.051 17.9772 234.103 17.9436 234.164C17.9099 234.225 17.8914 234.294 17.8895 234.363C17.88 234.382 17.875 234.403 17.875 234.424C17.875 234.445 17.88 234.466 17.8895 234.484L50.5475 253.305L50.8136 252.833Z" fill="#455A64"/>
<path d="M50.5107 250.898V269.731C50.5107 269.731 50.5107 269.816 50.5954 269.852C50.6556 269.882 50.7218 269.897 50.7889 269.897C50.8561 269.897 50.9223 269.882 50.9825 269.852C51.0429 269.852 51.0671 269.779 51.0671 269.731V250.898H50.5107Z" fill="#37474F"/>
<path d="M82.4066 271.085L50.9582 252.942C50.9366 252.928 50.9114 252.92 50.8856 252.92C50.8599 252.92 50.8347 252.928 50.8131 252.942C50.7567 252.979 50.7099 253.03 50.6763 253.088C50.6427 253.147 50.6232 253.213 50.6195 253.281C50.6089 253.301 50.6034 253.324 50.6034 253.347C50.6034 253.37 50.6089 253.393 50.6195 253.414L82.0679 271.557L82.4066 271.085Z" fill="#455A64"/>
<path d="M17.7079 231.993V250.826C17.7096 250.849 17.7172 250.871 17.7299 250.89C17.7426 250.909 17.76 250.924 17.7805 250.935C17.8427 250.965 17.9109 250.98 17.98 250.98C18.0491 250.98 18.1174 250.965 18.1796 250.935C18.2031 250.927 18.2238 250.913 18.239 250.893C18.2541 250.874 18.2629 250.85 18.2643 250.826V231.993H17.7079Z" fill="#37474F"/>
<path d="M82.1409 269.162V287.995C82.1409 287.995 82.1409 288.08 82.2255 288.116C82.2857 288.146 82.3519 288.161 82.4191 288.161C82.4862 288.161 82.5524 288.146 82.6126 288.116C82.6126 288.116 82.6973 288.043 82.6973 287.995V269.162H82.1409Z" fill="#37474F"/>
<path d="M18.8933 231.92L82.3828 268.594L92.9664 262.606C93.0013 262.586 93.0409 262.575 93.0813 262.575C93.1216 262.575 93.1612 262.586 93.1962 262.606C93.3276 262.71 93.4332 262.842 93.5046 262.993C93.576 263.144 93.6112 263.31 93.6074 263.477C93.6135 263.55 93.6036 263.624 93.5786 263.693C93.5535 263.762 93.5138 263.824 93.4623 263.876L82.7214 269.924C82.6233 269.985 82.5105 270.019 82.3949 270.021C82.2716 270.019 82.1509 269.986 82.0441 269.924L17.1999 232.428C17.0952 232.369 17.0084 232.283 16.9487 232.178C16.8891 232.074 16.8589 231.955 16.8612 231.835" fill="#455A64"/>
<g opacity="0.15">
<path opacity="0.15" d="M27.2513 184.687L93.3898 222.921V213.498L27.2513 175.252V184.687Z" fill="black"/>
</g>
<path d="M93.3894 213.498L27.4203 175.349L16.3892 181.723L82.3583 219.873L93.3894 213.498Z" fill="#FAFAFA"/>
<path d="M93.3897 213.498V215.095L82.3585 221.457V219.873L93.3897 213.498Z" fill="#E0E0E0"/>
<path d="M82.3582 219.873L16.3892 181.723V183.308L82.3582 221.457V219.873Z" fill="#F0F0F0"/>
<path d="M46.8459 140.199V186.598L74.8713 202.782V156.395L46.8459 140.199Z" fill="#263238"/>
<path d="M49.0598 185.11L45.9028 187.142L74.8717 203.87V200.012L49.0598 185.11Z" fill="#263238"/>
<g opacity="0.8">
<path opacity="0.8" d="M49.0598 185.11L45.9028 187.142L74.8717 203.87V200.012L49.0598 185.11Z" fill="white"/>
</g>
<path d="M49.0593 185.11L74.8712 200.012V156.395L49.0593 141.493V185.11Z" fill="#263238"/>
<g opacity="0.95">
<path opacity="0.95" d="M49.0593 185.11L74.8712 200.012V156.395L49.0593 141.493V185.11Z" fill="white"/>
</g>
<g opacity="0.1">
<path opacity="0.1" d="M49.0593 141.493V145.799L74.8712 160.701V156.395L49.0593 141.493Z" fill="black"/>
</g>
<path d="M59.8849 147.735L60.8525 148.291V194.677L59.8849 194.121V147.735Z" fill="#263238"/>
<g opacity="0.2">
<path opacity="0.2" d="M59.8849 147.735L60.8525 148.291V194.677L59.8849 194.121V147.735Z" fill="black"/>
</g>
<path d="M60.8525 148.291V194.677L61.8323 194.121V148.847L60.8525 148.291Z" fill="#263238"/>
<g opacity="0.4">
<path opacity="0.4" d="M60.8525 148.291V194.677L61.8323 194.121V148.847L60.8525 148.291Z" fill="black"/>
</g>
<path d="M46.8463 186.598L45.9028 187.142V139.655L46.8463 140.199V186.598Z" fill="#263238"/>
<g opacity="0.4">
<path opacity="0.4" d="M46.8463 186.598L45.9028 187.142V139.655L46.8463 140.199V186.598Z" fill="white"/>
</g>
<g opacity="0.1">
<path opacity="0.1" d="M46.8463 186.598L45.9028 187.142V139.655L46.8463 140.199V186.598Z" fill="black"/>
</g>
<path d="M45.9027 187.142L42.1652 184.977V133.184L78.609 154.23V206.023L74.8715 203.87V156.395L45.9027 139.655V187.142Z" fill="#263238"/>
<g opacity="0.7">
<path opacity="0.7" d="M45.9027 187.142L42.1652 184.977V133.184L78.609 154.23V206.023L74.8715 203.87V156.395L45.9027 139.655V187.142Z" fill="white"/>
</g>
<path d="M42.1652 133.184L78.609 154.23L79.5404 153.686L43.0844 132.652L42.1652 133.184Z" fill="#263238"/>
<g opacity="0.85">
<path opacity="0.85" d="M42.1652 133.184L78.609 154.23L79.5404 153.686L43.0844 132.652L42.1652 133.184Z" fill="white"/>
</g>
<path d="M78.6089 206.023V154.23L79.5402 153.686V205.491L78.6089 206.023Z" fill="#263238"/>
<g opacity="0.6">
<path opacity="0.6" d="M79.5402 153.686V205.491L78.6089 206.023V154.23" fill="white"/>
</g>
<path d="M16.8246 162.564C16.8259 162.445 16.8577 162.327 16.917 162.224C16.9762 162.12 17.061 162.033 17.1633 161.971L17.4898 161.79L28.0976 155.791C28.1356 155.773 28.1768 155.764 28.2186 155.764C28.2603 155.764 28.3016 155.773 28.3395 155.791C28.4694 155.893 28.574 156.023 28.6453 156.172C28.7166 156.321 28.7527 156.484 28.7508 156.649C28.7601 156.724 28.7506 156.799 28.7231 156.869C28.6956 156.939 28.6511 157 28.5936 157.048L28.2791 157.23L18.905 162.54" fill="#455A64"/>
<path d="M17.8412 164.451L28.4611 158.331C28.4821 158.322 28.5047 158.317 28.5276 158.317C28.5505 158.317 28.5731 158.322 28.5941 158.331C28.6524 158.37 28.7011 158.422 28.7367 158.483C28.7722 158.543 28.7938 158.611 28.7998 158.681C28.8029 158.705 28.7988 158.73 28.788 158.751C28.7772 158.773 28.7603 158.791 28.7393 158.802L17.8533 165.092L17.8412 164.451Z" fill="#455A64"/>
<g opacity="0.2">
<path opacity="0.2" d="M17.8412 166.737L28.7998 160.387V174.091L17.8412 180.441V166.737Z" fill="black"/>
</g>
<g opacity="0.2">
<path opacity="0.2" d="M82.5886 204.136L17.8412 166.737V180.441L82.5886 217.84V204.136Z" fill="black"/>
</g>
<g opacity="0.2">
<path opacity="0.2" d="M82.1768 204.136L93.607 197.507V211.212L82.1768 217.84V204.136Z" fill="black"/>
</g>
<path d="M82.358 201.753L93.244 195.464C93.2656 195.45 93.2908 195.442 93.3166 195.442C93.3424 195.442 93.3676 195.45 93.3892 195.464C93.4455 195.501 93.4924 195.551 93.526 195.61C93.5596 195.669 93.579 195.735 93.5827 195.802C93.5933 195.823 93.5988 195.846 93.5988 195.869C93.5988 195.892 93.5933 195.915 93.5827 195.935L82.6967 202.225L82.358 201.753Z" fill="#455A64"/>
<path d="M50.8126 183.489L18.2151 164.668C18.1961 164.654 18.1727 164.646 18.1486 164.646C18.1245 164.646 18.1011 164.654 18.0821 164.668C18.0257 164.706 17.9789 164.756 17.9453 164.815C17.9117 164.874 17.8923 164.939 17.8885 165.007C17.8885 165.08 17.8885 165.116 17.8885 165.14L50.5465 183.961L50.8126 183.489Z" fill="#455A64"/>
<path d="M50.5107 181.554V200.386C50.5121 200.411 50.5209 200.435 50.536 200.454C50.5512 200.473 50.5719 200.488 50.5954 200.495C50.6538 200.53 50.7207 200.549 50.7889 200.549C50.8571 200.549 50.9241 200.53 50.9825 200.495C51.006 200.488 51.0267 200.473 51.0418 200.454C51.057 200.435 51.0658 200.411 51.0671 200.386V181.554H50.5107Z" fill="#37474F"/>
<path d="M82.4068 201.753L50.9584 183.61C50.9368 183.596 50.9116 183.588 50.8858 183.588C50.8601 183.588 50.8349 183.596 50.8133 183.61C50.7569 183.647 50.7101 183.698 50.6765 183.756C50.6429 183.815 50.6234 183.881 50.6197 183.949C50.61 183.969 50.605 183.992 50.605 184.015C50.605 184.038 50.61 184.061 50.6197 184.082L82.0682 202.225L82.4068 201.753Z" fill="#455A64"/>
<path d="M17.7079 162.624V181.457C17.7106 181.479 17.7186 181.501 17.7312 181.52C17.7438 181.539 17.7607 181.554 17.7805 181.566C17.8427 181.596 17.9109 181.611 17.98 181.611C18.0491 181.611 18.1174 181.596 18.1796 181.566C18.1796 181.566 18.2643 181.493 18.2643 181.457V162.624H17.7079Z" fill="#37474F"/>
<path d="M82.1409 199.818V218.687C82.1422 218.711 82.151 218.735 82.1662 218.754C82.1813 218.774 82.202 218.788 82.2255 218.796C82.284 218.831 82.3509 218.849 82.4191 218.849C82.4873 218.849 82.5542 218.831 82.6126 218.796C82.6361 218.788 82.6568 218.774 82.672 218.754C82.6871 218.735 82.6959 218.711 82.6973 218.687V199.818H82.1409Z" fill="#37474F"/>
<path d="M18.8933 162.576L82.3828 199.25L92.9664 193.202C93.0013 193.182 93.0409 193.171 93.0813 193.171C93.1216 193.171 93.1612 193.182 93.1962 193.202C93.3276 193.305 93.4332 193.438 93.5046 193.589C93.576 193.74 93.6112 193.906 93.6074 194.073C93.6135 194.146 93.6036 194.219 93.5786 194.288C93.5535 194.357 93.5138 194.42 93.4623 194.472L82.7214 200.52C82.6223 200.577 82.5094 200.606 82.3949 200.604C82.2726 200.607 82.1518 200.577 82.0441 200.52L17.1999 163.023C17.0952 162.964 17.0084 162.878 16.9487 162.774C16.8891 162.67 16.8589 162.551 16.8612 162.431" fill="#455A64"/>
<path d="M276.347 68.2914L158.294 0L0.604614 91.1278L118.669 159.298L276.347 68.2914Z" fill="#263238"/>
<g opacity="0.8">
<g opacity="0.8">
<path opacity="0.8" d="M276.347 68.2914L158.294 0L0.604614 91.1278L118.669 159.298L276.347 68.2914Z" fill="white"/>
</g>
</g>
<path d="M158.234 6.60413V11.1641L261.119 70.5653L265.074 68.2793L158.234 6.60413Z" fill="#263238"/>
<g opacity="0.15">
<path opacity="0.15" d="M158.234 6.60413V11.1641L261.119 70.5653L265.074 68.2793L158.234 6.60413Z" fill="black"/>
</g>
<path d="M158.234 6.60413L11.8173 91.1278L15.7725 93.4138L158.234 11.1641V6.60413Z" fill="#263238"/>
<path d="M261.119 70.5653L158.234 11.1641L15.7726 93.4138L118.657 152.815L261.119 70.5653Z" fill="#263238"/>
<g opacity="0.3">
<path opacity="0.3" d="M261.119 70.5653L158.234 11.1641L15.7726 93.4138L118.657 152.815L261.119 70.5653Z" fill="black"/>
</g>
<g opacity="0.1">
<path opacity="0.1" d="M45.2732 77.399L18.0099 93.1353L37.1813 104.203L64.4447 88.4786L45.2732 77.399Z" fill="black"/>
</g>
<path d="M45.4552 73.8551L35.561 79.5642L49.4104 87.5594L59.3046 81.8503L45.4552 73.8551Z" fill="#FAFAFA"/>
<path d="M35.561 79.564V85.2731L49.4104 93.2682V87.5591L35.561 79.564Z" fill="#E0E0E0"/>
<path d="M59.3044 81.8502V87.5593L49.4103 93.2684V87.5593L59.3044 81.8502Z" fill="#F0F0F0"/>
<path d="M42.2255 77.6894C40.4354 78.7296 40.4354 80.4109 42.2255 81.439C43.2334 81.9521 44.3483 82.2195 45.4792 82.2195C46.6102 82.2195 47.7251 81.9521 48.7329 81.439C50.5231 80.4109 50.5231 78.7296 48.7329 77.6894C47.7251 77.1764 46.6102 76.909 45.4792 76.909C44.3483 76.909 43.2334 77.1764 42.2255 77.6894Z" fill="#E0E0E0"/>
<path d="M43.9316 78.7538C43.097 79.2013 43.097 79.9633 43.9316 80.3746C44.4093 80.5956 44.9293 80.7101 45.4556 80.7101C45.982 80.7101 46.502 80.5956 46.9797 80.3746C47.8143 79.927 47.8143 79.165 46.9797 78.7538C46.502 78.5327 45.982 78.4182 45.4556 78.4182C44.9293 78.4182 44.4093 78.5327 43.9316 78.7538Z" fill="#FAFAFA"/>
<path d="M54.4539 93.1352C54.3904 93.1352 54.3275 93.1227 54.2688 93.0984C54.2101 93.0741 54.1567 93.0385 54.1118 92.9935C54.0669 92.9486 54.0312 92.8953 54.0069 92.8366C53.9826 92.7779 53.9701 92.715 53.9701 92.6514V89.5066L52.2283 88.5027C52.1177 88.437 52.0369 88.3309 52.0031 88.2067C51.9692 88.0826 51.9849 87.9502 52.0469 87.8374C52.0783 87.7814 52.1205 87.7323 52.1711 87.6928C52.2217 87.6533 52.2796 87.6243 52.3415 87.6074C52.4034 87.5905 52.4681 87.5861 52.5317 87.5944C52.5954 87.6028 52.6567 87.6237 52.7122 87.656L54.6958 88.793C54.7677 88.8384 54.8273 88.9007 54.8695 88.9745C54.9116 89.0483 54.9351 89.1313 54.9377 89.2163V92.6514C54.9377 92.715 54.9252 92.7779 54.9009 92.8366C54.8766 92.8953 54.841 92.9486 54.796 92.9935C54.7511 93.0385 54.6978 93.0741 54.6391 93.0984C54.5804 93.1227 54.5174 93.1352 54.4539 93.1352Z" fill="#263238"/>
<path d="M57.3211 91.4783C57.2576 91.4783 57.1947 91.4658 57.136 91.4414C57.0773 91.4171 57.0239 91.3815 56.979 91.3366C56.9341 91.2916 56.8984 91.2383 56.8741 91.1796C56.8498 91.1209 56.8373 91.058 56.8373 90.9944V87.8496L55.1076 86.8457C55.052 86.8139 55.0032 86.7715 54.964 86.7209C54.9248 86.6703 54.896 86.6124 54.8791 86.5506C54.8623 86.4889 54.8578 86.4244 54.8658 86.3609C54.8739 86.2973 54.8944 86.236 54.9262 86.1804C54.958 86.1248 55.0004 86.076 55.051 86.0368C55.1016 85.9976 55.1595 85.9688 55.2212 85.9519C55.283 85.9351 55.3475 85.9306 55.411 85.9386C55.4745 85.9467 55.5358 85.9672 55.5914 85.999L57.5751 87.136C57.647 87.1814 57.7066 87.2437 57.7487 87.3175C57.7909 87.3913 57.8144 87.4744 57.817 87.5593V90.9944C57.817 91.059 57.8041 91.1229 57.7791 91.1824C57.754 91.2419 57.7173 91.2958 57.6711 91.3409C57.6248 91.386 57.5701 91.4214 57.51 91.445C57.4499 91.4686 57.3857 91.4799 57.3211 91.4783Z" fill="#263238"/>
<path d="M31.6058 81.8502L21.7117 87.5593L35.5611 95.5545L45.4552 89.8454L31.6058 81.8502Z" fill="#FAFAFA"/>
<path d="M21.7117 87.5596V93.2687L35.5611 101.276V95.5548L21.7117 87.5596Z" fill="#E0E0E0"/>
<path d="M45.4552 89.8454V95.5545L35.561 101.276V95.5545L45.4552 89.8454Z" fill="#F0F0F0"/>
<path d="M28.3518 85.6362C26.5616 86.6764 26.5616 88.3577 28.3518 89.3858C29.3596 89.8988 30.4745 90.1662 31.6055 90.1662C32.7364 90.1662 33.8513 89.8988 34.8592 89.3858C36.6493 88.3577 36.6493 86.6764 34.8592 85.6362C33.8513 85.1231 32.7364 84.8557 31.6055 84.8557C30.4745 84.8557 29.3596 85.1231 28.3518 85.6362Z" fill="#E0E0E0"/>
<path d="M30.1302 86.7493C29.2956 87.1968 29.2956 87.9588 30.1302 88.3701C30.6079 88.5911 31.1279 88.7056 31.6543 88.7056C32.1806 88.7056 32.7006 88.5911 33.1783 88.3701C34.0129 87.9225 34.0129 87.1605 33.1783 86.7493C32.6989 86.5344 32.1796 86.4233 31.6543 86.4233C31.1289 86.4233 30.6096 86.5344 30.1302 86.7493Z" fill="#FAFAFA"/>
<path d="M40.6047 101.131C40.5401 101.132 40.4759 101.121 40.4158 101.097C40.3557 101.074 40.3009 101.038 40.2547 100.993C40.2085 100.948 40.1718 100.894 40.1467 100.835C40.1216 100.775 40.1087 100.711 40.1088 100.647V97.502L38.3791 96.5223C38.2685 96.4566 38.1877 96.3505 38.1538 96.2264C38.12 96.1022 38.1357 95.9698 38.1977 95.8571C38.2291 95.8011 38.2713 95.7519 38.3219 95.7124C38.3724 95.673 38.4304 95.6439 38.4923 95.627C38.5542 95.6101 38.6189 95.6058 38.6825 95.6141C38.7461 95.6224 38.8074 95.6434 38.8629 95.6756L40.8466 96.8126C40.9184 96.858 40.978 96.9204 41.0202 96.9942C41.0624 97.068 41.0858 97.151 41.0885 97.2359V100.671C41.0823 100.795 41.0286 100.912 40.9385 100.998C40.8484 101.083 40.7289 101.131 40.6047 101.131Z" fill="#263238"/>
<path d="M43.4347 99.4735C43.3712 99.4735 43.3083 99.4609 43.2496 99.4366C43.1909 99.4123 43.1376 99.3767 43.0926 99.3317C43.0477 99.2868 43.0121 99.2335 42.9877 99.1748C42.9634 99.1161 42.9509 99.0532 42.9509 98.9896V95.8448L41.2213 94.8409C41.1657 94.8091 41.1169 94.7667 41.0777 94.7161C41.0385 94.6654 41.0096 94.6076 40.9928 94.5458C40.9759 94.484 40.9714 94.4196 40.9795 94.356C40.9876 94.2925 41.0081 94.2312 41.0398 94.1756C41.0716 94.12 41.114 94.0712 41.1646 94.032C41.2152 93.9928 41.2731 93.964 41.3349 93.9471C41.3966 93.9303 41.4611 93.9257 41.5247 93.9338C41.5882 93.9419 41.6495 93.9624 41.7051 93.9942L43.6767 95.1312C43.7515 95.1743 43.8141 95.2358 43.8585 95.3099C43.903 95.384 43.9278 95.4682 43.9307 95.5545V98.9412C43.9376 99.0098 43.9298 99.079 43.9078 99.1442C43.8858 99.2095 43.8502 99.2693 43.8033 99.3197C43.7563 99.3701 43.6992 99.4098 43.6356 99.4364C43.5721 99.4629 43.5036 99.4755 43.4347 99.4735Z" fill="#263238"/>
<g opacity="0.1">
<path opacity="0.1" d="M158.234 6.60413L153.057 14.1517L255.942 73.5529L265.074 68.2793L158.234 6.60413Z" fill="black"/>
</g>
<path d="M118.669 159.299L0.604614 91.1281V98.1072L118.657 166.278L118.669 159.299Z" fill="#263238"/>
<g opacity="0.4">
<path opacity="0.4" d="M118.669 159.299L0.604614 91.1281V98.1072L118.657 166.278L118.669 159.299Z" fill="white"/>
</g>
<path d="M276.347 68.2915V75.2706L118.657 166.277L118.67 159.298L276.347 68.2915Z" fill="#263238"/>
<g opacity="0.6">
<path opacity="0.6" d="M276.347 68.2915V75.2706L118.657 166.277L118.67 159.298L276.347 68.2915Z" fill="white"/>
</g>
</svg>
