<svg width="65" height="62" viewBox="0 0 65 62" fill="none" xmlns="http://www.w3.org/2000/svg">
<path d="M18.2212 30.7734C19.6942 30.7734 20.7499 30.7038 20.8447 30.6975L20.6424 27.7896C20.5792 27.7896 13.9036 28.2258 10.471 26.8414C7.74008 25.7288 4.72468 18.0481 3.39083 11.265C2.54374 6.96636 3.00523 5.61353 3.35923 5.18367C3.43509 5.09517 3.63737 4.84863 4.40861 4.84863H7.06999C7.84122 7.16864 9.07393 9.5013 10.9325 9.5013H16.2995V6.5997H11.1474C10.7049 6.15719 9.97791 4.52623 9.55436 3.00905L9.25725 1.94703H4.40861C3.78754 1.91013 3.16638 2.01765 2.59385 2.26114C2.02131 2.50463 1.51298 2.87747 1.10875 3.35042C-0.155567 4.87392 -0.326242 7.49104 0.533491 11.8403C1.22558 15.3415 2.25664 18.767 3.61209 22.0686C5.36317 26.1902 7.30388 28.7125 9.37736 29.5533C11.9313 30.5774 15.7053 30.7734 18.2212 30.7734Z" fill="#FFC727"/>
<path opacity="0.2" d="M12.0388 6.58716H16.3059V9.5014H12.6963L12.0388 6.58716Z" fill="black"/>
<path opacity="0.2" d="M20.8447 30.6975C20.7309 30.6975 19.6942 30.7734 18.2213 30.7734C17.9747 30.7734 17.7219 30.7734 17.4564 30.7734L16.8242 27.8528C18.9419 27.916 20.6172 27.8086 20.6677 27.8022L20.8447 30.6975Z" fill="black"/>
<path d="M46.1498 30.7735C44.6769 30.7735 43.6212 30.7039 43.5264 30.6976L43.7224 27.7897C43.7919 27.7897 50.4675 28.2259 53.8938 26.8414C56.631 25.7288 59.6401 18.0481 60.9802 11.2651C61.821 6.96643 61.3595 5.61361 60.9802 5.18374C60.9044 5.09524 60.7021 4.8487 59.9308 4.8487H57.2695C56.4982 7.16871 55.2592 9.50137 53.407 9.50137H48.0336V6.59977H53.1857C53.9295 5.50829 54.4712 4.2921 54.7851 3.00912L55.0822 1.9471H59.9308C60.5518 1.91069 61.1729 2.01843 61.7453 2.26189C62.3178 2.50535 62.8262 2.87792 63.2307 3.35049C64.495 4.87399 64.6594 7.49111 63.806 11.8403C63.1118 15.3418 62.0786 18.7673 60.721 22.0686C58.9763 26.1903 57.0356 28.7126 54.9621 29.5534C52.4335 30.5775 48.6595 30.7735 46.1498 30.7735Z" fill="#FFC727"/>
<path opacity="0.2" d="M52.3322 6.58716H48.0652V9.5014H51.6748L52.3322 6.58716Z" fill="black"/>
<path opacity="0.2" d="M43.5264 30.6975C43.6402 30.6975 44.6769 30.7734 46.1498 30.7734C46.3964 30.7734 46.6492 30.7734 46.9147 30.7734L47.5469 27.8528C45.4292 27.916 43.754 27.8086 43.7034 27.8022L43.5264 30.6975Z" fill="black"/>
<path d="M16.9885 59.8337V61.4646H47.3763V59.8337H44.7718L42.8374 57.0522L33.9935 53.5311V36.2732H30.3776V53.5311L21.5337 57.0522L19.593 59.8337H16.9885Z" fill="#FFC727"/>
<path d="M29.3789 38.5742H34.9924V36.7599H29.3789V38.5742Z" fill="#FFC727"/>
<path opacity="0.2" d="M29.3789 37.9166L34.9925 37.6701V36.7598H29.3789V37.9166Z" fill="black"/>
<path d="M13.5874 0C13.5874 0 15.0098 23.5099 18.7142 30.0085C22.4186 36.5071 30.3269 37.057 32.1728 37.057C34.0187 37.057 41.9207 36.5007 45.6251 30.0085C49.3295 23.5162 50.7519 0 50.7519 0H13.5874Z" fill="#FFC727"/>
<path opacity="0.3" d="M29.3915 36.7915C26.2307 36.2542 21.4074 34.6485 18.7586 30.0085C15.0542 23.5099 13.6318 0 13.6318 0H17.1277C17.6081 4.93714 18.55 23.7944 21.2304 29.2815C23.544 34.0796 28.9869 36.6525 29.3915 36.7915Z" fill="white"/>
<path opacity="0.2" d="M44.7718 59.8338H19.593L20.2884 58.835L43.4633 57.9563L44.7718 59.8338Z" fill="black"/>
<path opacity="0.1" d="M32.1855 7.42163L34.1831 11.4738L38.6461 12.1186L35.4158 15.2667L36.1807 19.7171L32.1855 17.6183L28.1902 19.7171L28.9551 15.2667L25.7185 12.1186L30.1878 11.4738L32.1855 7.42163Z" fill="black"/>
</svg>
