<svg width="370" height="435" viewBox="0 0 370 435" fill="none" xmlns="http://www.w3.org/2000/svg">
<path d="M123.925 91.0243L119.359 76.7093C125.854 66.125 128.171 53.4838 125.856 41.2706C123.541 29.0574 116.761 18.1555 106.848 10.7081C96.9354 3.26062 84.6073 -0.193753 72.2872 1.02399C59.9671 2.24174 48.5461 8.04352 40.2693 17.2889C31.9925 26.5342 27.4586 38.5544 27.5588 50.9865C27.659 63.4187 32.386 75.3636 40.8107 84.4732C49.2355 93.5827 60.7485 99.1981 73.0866 100.215C85.4248 101.233 97.6956 97.5784 107.487 89.9708L123.925 91.0243Z" fill="#FFFAFA"/>
<path d="M123.926 91.0247H122.889L119.754 90.8636L107.413 90.1819C107.394 90.182 107.375 90.1781 107.358 90.1705C107.341 90.1629 107.325 90.1517 107.312 90.1377C107.3 90.1237 107.29 90.1072 107.284 90.0892C107.278 90.0712 107.276 90.0521 107.277 90.0332C107.272 90.0087 107.272 89.9833 107.277 89.9588L107.475 90.1571C98.8993 96.884 88.3541 100.583 77.4732 100.68C74.7252 100.665 71.982 100.445 69.2663 100.023C56.6479 98.0392 45.2826 91.2309 37.5494 81.0228C33.2424 75.2762 30.2086 68.6714 28.6513 61.651C26.9591 54.1866 27.0267 46.4284 28.8488 38.9948C29.0833 38.0529 29.3301 37.0986 29.5769 36.1566C29.8238 35.2147 30.231 34.2975 30.5519 33.368C30.8646 32.4279 31.2271 31.5053 31.6379 30.6041C32.0575 29.7118 32.4895 28.8194 32.872 27.9146C33.2967 27.0102 33.7833 26.1364 34.3283 25.2995L35.8956 22.7216L37.6975 20.2428L38.6107 19.0034C38.9192 18.6068 39.2771 18.2473 39.6103 17.8631C44.9473 11.7007 51.7175 6.95793 59.3193 4.05626C66.5561 1.28702 74.3271 0.214519 82.0395 0.920585C89.2864 1.6442 96.2853 3.96318 102.538 7.71248C113.65 14.3404 121.756 25.054 125.135 37.5819C125.849 40.2661 126.36 43.0005 126.665 45.7619C126.863 48.3432 126.908 50.9339 126.801 53.5206C126.328 61.7639 123.808 69.7572 119.47 76.7716V76.6601C120.927 81.3202 122.037 84.9145 122.803 87.3685C123.173 88.6079 123.444 89.4631 123.642 90.0951L123.913 91.0123C123.913 91.0123 123.79 90.6777 123.58 90.058L122.679 87.3189C121.889 84.8401 120.717 81.345 119.211 76.7468C119.198 76.7108 119.198 76.6713 119.211 76.6353C123.467 69.6367 125.923 61.6847 126.357 53.4958C126.451 50.9332 126.394 48.3672 126.184 45.8115C125.876 43.0742 125.36 40.3644 124.641 37.7059C121.994 28.0617 116.504 19.4473 108.892 12.9948C101.279 6.54229 91.9014 2.55354 81.9901 1.55268C74.3749 0.852771 66.7011 1.90829 59.5538 4.63877C52.0675 7.51566 45.4007 12.1976 40.141 18.2721C39.8201 18.6563 39.4622 19.0034 39.1537 19.4L38.2528 20.6394L36.4757 23.0314L34.9454 25.5846C34.4024 26.4184 33.9159 27.2879 33.4891 28.1873C33.0695 29.0673 32.6499 29.9596 32.255 30.8396C31.8524 31.7286 31.4981 32.6388 31.1936 33.5663C30.8728 34.4834 30.4902 35.3882 30.2187 36.3177C29.9472 37.2473 29.7374 38.1892 29.5029 39.1188C27.7134 46.438 27.6374 54.0742 29.2807 61.4279C31.4192 71.0848 36.3967 79.8739 43.5681 86.656C50.7395 93.4382 59.7741 97.9006 69.5008 99.465C72.1918 99.8894 74.9098 100.117 77.6336 100.147C80.1762 100.136 82.7139 99.9245 85.2235 99.5146C93.3096 98.1915 100.942 94.8741 107.438 89.8597C107.45 89.8462 107.466 89.8354 107.483 89.8281C107.5 89.8207 107.518 89.8169 107.536 89.8169C107.555 89.8169 107.573 89.8207 107.59 89.8281C107.607 89.8354 107.622 89.8462 107.635 89.8597C107.653 89.8849 107.663 89.9153 107.663 89.9464C107.663 89.9776 107.653 90.0079 107.635 90.0332L107.536 89.8101L119.73 90.6529L122.889 90.876L123.926 91.0247Z" fill="#35323D"/>
<path d="M63.2561 50.6698C63.2561 51.6675 62.9615 52.6428 62.4096 53.4723C61.8577 54.3019 61.0732 54.9484 60.1554 55.3302C59.2376 55.712 58.2276 55.8119 57.2533 55.6173C56.2789 55.4226 55.384 54.9422 54.6815 54.2367C53.979 53.5313 53.5007 52.6324 53.3068 51.6539C53.113 50.6754 53.2125 49.6612 53.5927 48.7394C53.9728 47.8177 54.6166 47.0299 55.4426 46.4756C56.2686 45.9213 57.2398 45.6255 58.2332 45.6255C59.5644 45.6288 60.8401 46.1613 61.7813 47.1066C62.7226 48.0518 63.2528 49.333 63.2561 50.6698Z" fill="#35323D"/>
<path d="M83.3724 50.6698C83.3724 51.6675 83.0778 52.6428 82.5259 53.4723C81.974 54.3019 81.1895 54.9484 80.2717 55.3302C79.3539 55.712 78.344 55.8119 77.3696 55.6173C76.3953 55.4226 75.5003 54.9422 74.7978 54.2367C74.0954 53.5313 73.617 52.6324 73.4232 51.6539C73.2294 50.6754 73.3288 49.6612 73.709 48.7394C74.0892 47.8177 74.733 47.0299 75.559 46.4756C76.385 45.9213 77.3561 45.6255 78.3495 45.6255C79.6807 45.6288 80.9564 46.1613 81.8976 47.1066C82.8389 48.0518 83.3692 49.333 83.3724 50.6698Z" fill="#35323D"/>
<path d="M103.439 48.1539C103.934 49.018 104.164 50.01 104.098 51.0047C104.032 51.9994 103.674 52.9523 103.069 53.7429C102.465 54.5336 101.64 55.1266 100.7 55.447C99.7603 55.7674 98.7468 55.801 97.7879 55.5433C96.8289 55.2857 95.9674 54.7485 95.3123 53.9995C94.6571 53.2505 94.2376 52.3234 94.1068 51.3352C93.976 50.3469 94.1397 49.3419 94.5772 48.447C95.0147 47.5522 95.7065 46.8076 96.5651 46.3072C97.1369 45.974 97.7685 45.7575 98.4239 45.67C99.0792 45.5825 99.7452 45.6258 100.384 45.7973C101.023 45.9689 101.621 46.2654 102.145 46.6698C102.67 47.0742 103.109 47.5785 103.439 48.1539Z" fill="#35323D"/>
<path d="M105.438 273.588L53.4572 268.184L31.4405 218.001L14.3356 222.475C14.3356 222.475 26.973 275.509 41.116 283.726C55.2591 291.943 103.575 293.418 103.575 293.418L105.438 273.588Z" fill="#FD391E"/>
<path d="M133.073 299.112C141.531 289.555 140.673 274.921 131.156 266.427C121.64 257.933 107.068 258.794 98.6101 268.352C90.1519 277.909 91.01 292.542 100.527 301.037C110.043 309.531 124.614 308.669 133.073 299.112Z" fill="#FFFAFA"/>
<path d="M115.842 306.903C110.5 306.903 105.323 305.042 101.194 301.639C97.0642 298.235 94.2376 293.499 93.1954 288.237C92.1532 282.976 92.96 277.514 95.4783 272.782C97.9965 268.051 102.07 264.343 107.006 262.29C111.941 260.237 117.433 259.966 122.545 261.523C127.657 263.08 132.073 266.37 135.041 270.83C138.009 275.291 139.345 280.647 138.821 285.987C138.298 291.326 135.947 296.317 132.17 300.111C130.03 302.271 127.486 303.983 124.683 305.149C121.881 306.315 118.876 306.911 115.842 306.903ZM115.842 260.599C110.514 260.593 105.35 262.443 101.228 265.833C97.1057 269.223 94.2817 273.944 93.2369 279.19C92.192 284.437 92.9909 289.885 95.4974 294.606C98.0039 299.328 102.063 303.03 106.983 305.083C111.903 307.136 117.379 307.412 122.479 305.864C127.579 304.317 131.987 301.041 134.952 296.596C137.917 292.15 139.255 286.81 138.739 281.484C138.222 276.159 135.883 271.178 132.12 267.391C129.989 265.234 127.453 263.523 124.659 262.357C121.864 261.191 118.868 260.594 115.842 260.599Z" fill="#FFFAFA"/>
<path d="M48.7975 287.691C58.0827 285.452 63.8027 276.078 61.5735 266.753C59.3444 257.428 50.0101 251.684 40.7249 253.922C31.4397 256.161 25.7197 265.535 27.9489 274.86C30.1781 284.185 39.5123 289.929 48.7975 287.691Z" fill="#FFFAFA"/>
<path d="M31.6316 222.058C37.15 216.516 37.15 207.531 31.6316 201.989C26.1132 196.447 17.1662 196.447 11.6478 201.989C6.12942 207.531 6.12941 216.516 11.6478 222.058C17.1662 227.6 26.1132 227.6 31.6316 222.058Z" fill="#FFFAFA"/>
<path d="M43.6644 204.344L32.029 214.211L27.8328 209.221L39.4682 199.353C40.0808 198.834 40.8739 198.58 41.673 198.648C42.4721 198.715 43.2117 199.099 43.7291 199.714L44.0157 200.055C44.2738 200.36 44.4695 200.712 44.5916 201.093C44.7136 201.473 44.7596 201.874 44.727 202.273C44.6944 202.671 44.5837 203.059 44.4013 203.415C44.219 203.77 43.9685 204.086 43.6644 204.344Z" fill="#FFFAFA"/>
<path d="M28.8857 186.272V201.145C28.8857 201.26 28.8402 201.371 28.7592 201.452C28.6782 201.533 28.5684 201.579 28.4538 201.579H22.8262C22.7117 201.579 22.6018 201.533 22.5208 201.452C22.4398 201.371 22.3943 201.26 22.3943 201.145V186.272C22.3943 185.467 22.7128 184.695 23.2799 184.125C23.8469 183.556 24.616 183.236 25.4179 183.236H25.8621C26.6641 183.236 27.4331 183.556 28.0002 184.125C28.5672 184.695 28.8857 185.467 28.8857 186.272Z" fill="#FFFAFA"/>
<path d="M18.4068 186.329L21.6399 200.843C21.6649 200.955 21.6445 201.072 21.5831 201.17C21.5218 201.267 21.4245 201.335 21.3127 201.361L15.8208 202.594C15.709 202.619 15.5919 202.599 15.4951 202.537C15.3984 202.476 15.33 202.378 15.305 202.266L12.0719 187.752C11.8968 186.966 12.0398 186.142 12.4694 185.462C12.8989 184.782 13.5799 184.301 14.3625 184.126L14.796 184.028C15.5786 183.852 16.3987 183.996 17.0758 184.427C17.753 184.859 18.2317 185.543 18.4068 186.329Z" fill="#FFFAFA"/>
<path d="M7.13363 189.966L14.5384 202.846C14.5956 202.945 14.6111 203.064 14.5815 203.175C14.5518 203.286 14.4795 203.381 14.3803 203.438L9.50661 206.264C9.4074 206.322 9.2895 206.337 9.17885 206.308C9.0682 206.278 8.97384 206.205 8.91656 206.105L1.51183 193.225C1.11087 192.528 1.00222 191.699 1.20977 190.921C1.41732 190.143 1.92408 189.48 2.61855 189.077L3.00332 188.854C3.69779 188.452 4.52309 188.342 5.29768 188.551C6.07226 188.759 6.73267 189.268 7.13363 189.966Z" fill="#FFFAFA"/>
<path d="M331.355 403.588L346.914 396.943L302.018 290.93L286.46 297.576L331.355 403.588Z" fill="#FD391E"/>
<path d="M304.249 301.061C312.479 291.305 311.275 276.696 301.56 268.431C291.846 260.166 277.299 261.374 269.069 271.131C260.839 280.887 262.043 295.496 271.757 303.761C281.472 312.026 296.019 310.817 304.249 301.061Z" fill="#FFFAFA"/>
<path d="M286.706 309.332C283.089 309.334 279.523 308.483 276.293 306.848C273.064 305.212 270.262 302.838 268.113 299.917C265.964 296.995 264.528 293.608 263.92 290.027C263.313 286.447 263.551 282.773 264.615 279.302C265.878 275.207 268.246 271.544 271.456 268.72C274.667 265.897 278.594 264.022 282.802 263.305C287.01 262.588 291.333 263.057 295.291 264.66C299.249 266.263 302.688 268.937 305.224 272.384C307.76 275.831 309.294 279.917 309.656 284.188C310.018 288.459 309.194 292.747 307.276 296.575C305.357 300.404 302.419 303.623 298.787 305.875C295.156 308.127 290.974 309.324 286.706 309.332ZM286.706 263.003C282.446 263.008 278.27 264.199 274.643 266.445C271.016 268.691 268.081 271.903 266.164 275.724C264.247 279.545 263.423 283.826 263.784 288.089C264.144 292.353 265.676 296.432 268.208 299.873C270.74 303.315 274.172 305.984 278.125 307.582C282.077 309.181 286.393 309.648 290.593 308.93C294.793 308.212 298.713 306.338 301.916 303.516C305.119 300.695 307.48 297.036 308.735 292.947C310.528 287.088 309.933 280.754 307.08 275.335C304.227 269.916 299.35 265.856 293.519 264.045C291.288 263.351 288.967 263 286.632 263.003H286.706Z" fill="#FFFAFA"/>
<path d="M333.336 355.318C335.893 346.078 330.507 336.507 321.307 333.939C312.106 331.371 302.575 336.78 300.018 346.02C297.462 355.26 302.848 364.831 312.048 367.399C321.248 369.967 330.779 364.558 333.336 355.318Z" fill="#FFFAFA"/>
<path d="M342.748 418.907C350.552 418.907 356.878 412.553 356.878 404.716C356.878 396.878 350.552 390.525 342.748 390.525C334.943 390.525 328.617 396.878 328.617 404.716C328.617 412.553 334.943 418.907 342.748 418.907Z" fill="#FFFAFA"/>
<path d="M324.266 419.007L332.179 405.969L337.732 409.368L329.82 422.407C329.402 423.094 328.73 423.587 327.951 423.777C327.171 423.967 326.349 423.838 325.664 423.419L325.285 423.187C324.944 422.98 324.647 422.708 324.411 422.386C324.176 422.064 324.006 421.698 323.911 421.31C323.816 420.921 323.799 420.518 323.86 420.123C323.921 419.728 324.059 419.349 324.266 419.007Z" fill="#FFFAFA"/>
<path d="M343.967 431.443L339.278 417.336C339.242 417.226 339.25 417.107 339.301 417.004C339.352 416.902 339.442 416.823 339.551 416.787L344.889 414.997C344.997 414.961 345.116 414.969 345.219 415.021C345.321 415.072 345.399 415.162 345.435 415.271L350.125 429.379C350.246 429.759 350.291 430.159 350.258 430.556C350.226 430.954 350.115 431.341 349.933 431.695C349.752 432.05 349.502 432.365 349.199 432.623C348.896 432.88 348.545 433.076 348.167 433.197L347.746 433.338C346.994 433.58 346.178 433.517 345.472 433.163C344.766 432.809 344.226 432.192 343.967 431.443Z" fill="#FFFAFA"/>
<path d="M353.9 428.062L346.257 415.323C346.228 415.274 346.208 415.22 346.2 415.164C346.191 415.107 346.194 415.05 346.208 414.995C346.221 414.939 346.246 414.887 346.279 414.841C346.313 414.796 346.356 414.757 346.404 414.727L351.224 411.811C351.273 411.781 351.327 411.762 351.383 411.753C351.439 411.745 351.496 411.748 351.551 411.761C351.606 411.775 351.658 411.799 351.704 411.833C351.749 411.867 351.788 411.91 351.817 411.958L359.46 424.697C359.874 425.387 359.998 426.214 359.805 426.996C359.612 427.777 359.118 428.45 358.431 428.865L358.05 429.096C357.363 429.511 356.54 429.636 355.762 429.442C354.984 429.248 354.314 428.752 353.9 428.062Z" fill="#FFFAFA"/>
<path d="M363.44 421.038L352.355 411.175C352.27 411.099 352.218 410.992 352.211 410.877C352.204 410.762 352.243 410.649 352.319 410.563L356.042 406.342C356.118 406.256 356.225 406.204 356.34 406.197C356.454 406.19 356.566 406.229 356.652 406.305L367.737 416.168C368.337 416.702 368.701 417.453 368.75 418.257C368.798 419.061 368.527 419.851 367.995 420.454L367.7 420.788C367.167 421.387 366.42 421.75 365.622 421.797C364.823 421.843 364.039 421.571 363.44 421.038Z" fill="#FFFAFA"/>
<path d="M108.993 259.632C108.993 259.632 110.659 422.167 201.478 425.339C292.297 428.512 296.11 260.797 296.11 259.632C296.11 259.632 285.386 235.402 202.551 236.344C119.717 237.286 108.993 259.632 108.993 259.632Z" fill="#FD391E"/>
<path d="M159.987 231.027H236.749C241.759 231.027 245.82 226.949 245.82 221.918V220.591C245.82 215.56 241.759 211.482 236.749 211.482H159.987C154.977 211.482 150.916 215.56 150.916 220.591V221.918C150.916 226.949 154.977 231.027 159.987 231.027Z" fill="#FFFAFA"/>
<path d="M195.06 86.501H201.688V52.8514H195.06V86.501Z" fill="#FFFAFA"/>
<path d="M299.707 186.678C310.171 184.18 316.637 173.636 314.15 163.128C311.663 152.619 301.164 146.125 290.701 148.623C280.237 151.12 273.77 161.664 276.257 172.173C278.744 182.681 289.243 189.175 299.707 186.678Z" fill="#FD391E"/>
<path d="M102.929 185.407C113.418 183.018 119.992 172.542 117.613 162.008C115.234 151.474 104.802 144.872 94.3128 147.261C83.8238 149.65 77.2495 160.127 79.6287 170.661C82.0079 181.194 92.4396 187.797 102.929 185.407Z" fill="#FD391E"/>
<path d="M194.517 79.201C194.517 79.201 115.336 78.2467 102.822 147.17C90.3081 216.092 157.247 217.332 176.512 218.633C185.237 219.228 203.921 219.29 220.409 218.993C256.915 218.36 282.708 211.271 291.482 177.262C292.527 173.274 293.185 169.194 293.445 165.079C295.752 127.748 270.663 77.3667 194.517 79.201Z" fill="#FD391E"/>
<path d="M251.953 184.103L136.921 185.9C134.051 185.951 131.199 185.433 128.528 184.376C125.858 183.318 123.421 181.743 121.358 179.738C119.294 177.734 117.645 175.341 116.503 172.696C115.362 170.05 114.752 167.205 114.707 164.323C114.658 161.44 115.175 158.575 116.229 155.893C117.283 153.211 118.854 150.764 120.85 148.692C122.847 146.62 125.231 144.964 127.866 143.818C130.5 142.672 133.334 142.059 136.205 142.013L251.238 140.216C254.108 140.164 256.961 140.681 259.632 141.737C262.303 142.794 264.741 144.37 266.804 146.375C268.868 148.379 270.517 150.773 271.658 153.419C272.799 156.065 273.408 158.911 273.452 161.794C273.502 164.678 272.986 167.543 271.932 170.226C270.879 172.908 269.308 175.356 267.311 177.428C265.314 179.501 262.93 181.157 260.295 182.302C257.659 183.448 254.825 184.06 251.953 184.103Z" fill="#FFFAFA"/>
<path d="M160.826 161.931C160.558 163.297 159.893 164.552 158.915 165.539C157.937 166.525 156.69 167.199 155.331 167.473C153.972 167.748 152.562 167.612 151.28 167.082C149.998 166.552 148.902 165.653 148.129 164.497C147.356 163.341 146.941 161.982 146.938 160.589C146.935 159.197 147.342 157.835 148.109 156.676C148.877 155.516 149.969 154.611 151.248 154.075C152.528 153.539 153.937 153.396 155.297 153.664C156.201 153.842 157.06 154.197 157.827 154.709C158.594 155.221 159.253 155.879 159.767 156.647C160.28 157.415 160.638 158.276 160.82 159.183C161.002 160.09 161.004 161.023 160.826 161.931Z" fill="#35323D"/>
<path d="M241.155 160.642C240.89 162.009 240.226 163.266 239.249 164.254C238.272 165.243 237.025 165.918 235.666 166.195C234.307 166.471 232.896 166.336 231.613 165.808C230.33 165.279 229.232 164.38 228.458 163.224C227.684 162.068 227.269 160.708 227.265 159.315C227.261 157.923 227.668 156.56 228.435 155.4C229.203 154.24 230.296 153.334 231.576 152.798C232.856 152.262 234.265 152.119 235.626 152.387C237.448 152.747 239.054 153.818 240.091 155.366C241.127 156.913 241.51 158.811 241.155 160.642Z" fill="#35323D"/>
<path d="M229.591 324.18C229.14 330.382 226.868 336.311 223.063 341.217C219.257 346.122 214.088 349.784 208.21 351.739C202.332 353.695 196.008 353.856 190.039 352.202C184.07 350.549 178.723 347.155 174.674 342.449C170.625 337.744 168.057 331.938 167.294 325.767C166.53 319.596 167.606 313.336 170.386 307.779C173.165 302.222 177.522 297.617 182.907 294.547C188.292 291.476 194.463 290.079 200.639 290.531C208.92 291.14 216.622 295.026 222.051 301.336C227.481 307.646 230.193 315.863 229.591 324.18Z" fill="#FFFAFA"/>
<path d="M221.113 323.56C220.783 328.081 219.127 332.402 216.352 335.976C213.577 339.551 209.809 342.219 205.525 343.644C201.24 345.068 196.631 345.184 192.281 343.978C187.93 342.771 184.034 340.296 181.084 336.866C178.134 333.435 176.264 329.204 175.709 324.705C175.154 320.207 175.94 315.645 177.967 311.595C179.994 307.546 183.171 304.191 187.097 301.955C191.022 299.718 195.52 298.702 200.022 299.033C203.011 299.251 205.927 300.059 208.606 301.41C211.284 302.761 213.67 304.629 215.629 306.907C217.588 309.185 219.08 311.828 220.021 314.685C220.962 317.543 221.333 320.559 221.113 323.56Z" fill="#35323D"/>
<path d="M206.104 59.9256C210.369 55.642 210.369 48.6971 206.104 44.4135C201.839 40.13 194.923 40.13 190.658 44.4136C186.393 48.6971 186.393 55.642 190.658 59.9256C194.923 64.2091 201.839 64.2091 206.104 59.9256Z" fill="#FD391E"/>
<path d="M180.93 158.683C181.448 158.745 181.189 161.162 182.719 164.471C183.586 166.371 184.849 168.061 186.421 169.429C188.265 171.058 190.56 172.083 192.999 172.366C195.451 172.525 197.894 171.938 200.009 170.681C201.799 169.635 203.347 168.22 204.551 166.529C206.649 163.591 206.834 161.125 207.352 161.162C207.562 161.162 207.772 161.782 207.772 162.947C207.725 164.607 207.303 166.234 206.538 167.706C205.388 169.931 203.688 171.822 201.601 173.197C199.021 175.022 195.879 175.867 192.736 175.578C189.593 175.29 186.655 173.888 184.447 171.623C182.645 169.892 181.318 167.723 180.596 165.327C180.082 163.727 179.947 162.03 180.201 160.369C180.411 159.216 180.732 158.646 180.93 158.683Z" fill="#35323D"/>
<path d="M286.361 190.796C286.237 190.796 287.656 188.565 289.026 184.661C290.73 179.548 291.807 174.246 292.235 168.871C292.729 163.516 292.853 158.132 292.605 152.759C292.519 150.689 292.42 149.041 292.321 147.801C292.238 147.202 292.217 146.596 292.26 145.992C292.418 146.576 292.521 147.173 292.568 147.777C292.741 148.929 292.914 150.603 293.062 152.734C293.449 158.15 293.387 163.589 292.877 168.995C292.442 174.42 291.293 179.763 289.458 184.884C288.877 186.429 288.176 187.925 287.36 189.358C287.069 189.866 286.734 190.347 286.361 190.796Z" fill="#FFFAFA"/>
<path d="M102.97 144.864C102.9 145.466 102.772 146.059 102.588 146.636C102.427 147.194 102.254 147.876 102.094 148.694C101.933 149.512 101.687 150.404 101.539 151.433C101.106 153.822 100.817 156.235 100.675 158.658C100.509 161.624 100.55 164.598 100.798 167.557C101.074 170.512 101.552 173.444 102.23 176.332C102.796 178.695 103.505 181.021 104.352 183.298C104.686 184.277 105.068 185.132 105.377 185.9C105.685 186.669 105.981 187.313 106.228 187.834C106.51 188.369 106.741 188.929 106.919 189.507C106.568 189.016 106.262 188.493 106.006 187.945C105.657 187.326 105.34 186.689 105.056 186.037C104.71 185.293 104.291 184.438 103.933 183.459C103.016 181.188 102.258 178.857 101.662 176.481C100.94 173.565 100.436 170.599 100.156 167.607C99.9048 164.618 99.8801 161.614 100.082 158.621C100.254 156.176 100.593 153.745 101.094 151.346C101.279 150.317 101.539 149.413 101.748 148.607C101.958 147.801 102.156 147.12 102.341 146.562C102.504 145.98 102.715 145.412 102.97 144.864Z" fill="#FFFAFA"/>
<path d="M108.573 259.496L109.042 259.632L110.424 260.103L115.682 261.962L119.483 263.326C120.877 263.797 122.42 264.243 124.061 264.751C127.356 265.73 131.071 267.007 135.292 267.998L141.87 269.696C144.165 270.279 146.584 270.712 149.077 271.258C154.013 272.398 159.431 273.179 165.121 274.096C177.424 275.791 189.824 276.681 202.243 276.761C214.662 276.687 227.062 275.797 239.365 274.096C245.018 273.179 250.398 272.41 255.409 271.258C257.877 270.725 260.345 270.291 262.616 269.708L269.206 268.01C273.415 267.019 277.13 265.742 280.425 264.763C282.066 264.255 283.609 263.809 285.003 263.338L288.804 261.975L294.062 260.116L295.444 259.645C295.599 259.583 295.761 259.537 295.925 259.508L295.469 259.707L294.111 260.239L288.891 262.21L285.003 263.673C283.621 264.156 282.078 264.615 280.437 265.147C277.142 266.164 273.44 267.465 269.219 268.494L262.629 270.229C260.345 270.824 257.914 271.27 255.421 271.828C250.485 272.993 245.055 273.786 239.378 274.728C227.049 276.465 214.618 277.372 202.169 277.442C189.724 277.363 177.297 276.452 164.973 274.716C159.308 273.786 153.865 272.98 148.929 271.815C146.461 271.258 143.992 270.812 141.722 270.217L135.131 268.481C130.911 267.453 127.208 266.151 123.913 265.135C122.272 264.602 120.742 264.144 119.347 263.66L115.558 262.235L110.338 260.264L108.98 259.731C108.837 259.666 108.701 259.587 108.573 259.496Z" fill="#FFFAFA"/>
<g opacity="0.3">
<path opacity="0.3" d="M108.993 259.632C108.993 259.632 119.717 237.323 202.551 236.344C285.386 235.365 296.11 259.632 296.11 259.632C296.11 259.632 212.511 301.016 108.993 259.632Z" fill="#35323D"/>
</g>
<path d="M184.484 84.3568C184.389 84.3658 184.294 84.3658 184.2 84.3568L183.373 84.4436C182.633 84.5179 181.547 84.5427 180.152 84.7039C176.217 85.0874 172.313 85.7375 168.465 86.6497C148.564 91.2269 131.011 102.941 119.1 119.593C113.346 127.595 108.989 136.522 106.216 145.992C105.784 147.331 105.549 148.396 105.34 149.103L105.105 149.921C105.083 150.015 105.05 150.107 105.006 150.194C104.99 150.099 104.99 150.003 105.006 149.909C105.006 149.685 105.105 149.413 105.179 149.078C105.352 148.359 105.537 147.281 105.932 145.918C106.962 142.067 108.282 138.301 109.881 134.652C115.156 122.524 123.187 111.806 133.33 103.357C143.515 94.9712 155.514 89.0967 168.366 86.2035C172.236 85.3204 176.168 84.7362 180.127 84.456C181.534 84.332 182.596 84.3444 183.361 84.3073H184.2C184.397 84.332 184.484 84.3444 184.484 84.3568Z" fill="#35323D"/>
<path d="M107.018 179.765C106.524 178.998 106.141 178.163 105.883 177.287C104.419 173.145 103.737 168.765 103.871 164.372C103.836 163.46 103.944 162.548 104.192 161.67C104.389 161.67 104.118 165.81 104.908 170.817C105.698 175.824 107.203 179.691 107.018 179.765Z" fill="#35323D"/>
<path d="M86.2479 173.358C86.2479 173.358 85.964 173.159 85.5814 172.688C85.0361 172.021 84.5682 171.293 84.1869 170.52C82.869 167.957 82.3647 165.051 82.742 162.193C83.1194 159.334 84.3602 156.66 86.2972 154.531C86.8646 153.879 87.5067 153.297 88.2101 152.796C88.4517 152.592 88.7275 152.432 89.0246 152.325C89.0987 152.424 87.988 153.18 86.6428 154.804C84.8773 156.927 83.7477 159.51 83.3851 162.252C83.0224 164.995 83.4417 167.784 84.5941 170.296C85.458 172.267 86.3343 173.283 86.2479 173.358Z" fill="#35323D"/>
<path d="M199.084 44.5226C198.121 44.4162 197.15 44.3954 196.184 44.4606C195.033 44.5621 193.92 44.9269 192.931 45.5273C191.942 46.1276 191.103 46.9474 190.479 47.9238C189.855 48.9002 189.461 50.0073 189.329 51.1601C189.197 52.3129 189.33 53.4808 189.717 54.5741C190.05 55.4809 190.463 56.3561 190.951 57.1892C190.951 57.1892 190.704 57.0405 190.358 56.6439C189.884 56.0702 189.509 55.4209 189.248 54.7228C188.777 53.5655 188.591 52.3113 188.705 51.0663C188.819 49.8213 189.23 48.6223 189.903 47.5706C190.576 46.5189 191.491 45.6455 192.572 45.0243C193.652 44.4032 194.866 44.0525 196.11 44.0021C196.848 43.9506 197.59 44.0218 198.306 44.2128C198.862 44.2995 199.084 44.4854 199.084 44.5226Z" fill="#35323D"/>
<path d="M306.65 158.324C306.514 158.473 304.601 156.626 301.713 155.238C298.825 153.85 296.197 153.441 296.221 153.242C298.233 153.192 300.222 153.68 301.985 154.655C303.84 155.435 305.452 156.702 306.65 158.324Z" fill="#35323D"/>
<path d="M137.377 375.305C137.321 375.231 137.272 375.152 137.229 375.07L136.822 374.338C136.452 373.632 135.958 372.69 135.316 371.488C134.996 370.868 134.65 370.174 134.255 369.43L133.095 366.952C132.256 365.154 131.318 363.109 130.392 360.755C129.923 359.602 129.43 358.387 128.911 357.136C128.393 355.884 127.949 354.52 127.443 353.145C126.381 350.406 125.48 347.394 124.431 344.271C122.494 337.95 120.593 330.947 118.927 323.511C117.261 316.074 116.052 308.898 115.064 302.367C114.077 295.835 113.435 289.973 113.041 284.941C112.806 282.462 112.658 280.206 112.535 278.223C112.411 276.24 112.3 274.505 112.263 273.142C112.226 271.778 112.189 270.725 112.152 269.932V269.101C112.139 269.007 112.139 268.911 112.152 268.816C112.166 268.911 112.166 269.007 112.152 269.101L112.226 269.932C112.226 270.712 112.362 271.791 112.448 273.129C112.535 274.468 112.658 276.228 112.831 278.198C113.004 280.169 113.164 282.425 113.435 284.904C113.88 289.861 114.67 295.761 115.595 302.255C116.521 308.75 117.866 315.888 119.495 323.325C121.124 330.761 123.037 337.751 124.925 344.06C125.974 347.183 126.85 350.183 127.887 352.922C128.381 354.31 128.85 355.636 129.319 356.912L130.75 360.556C131.639 362.874 132.552 364.931 133.367 366.753L134.477 369.232C134.835 369.988 135.181 370.682 135.489 371.314L136.871 374.214L137.217 374.97C137.292 375.07 137.346 375.184 137.377 375.305Z" fill="#35323D"/>
<path d="M89.0863 274.257C86.0753 274.371 83.0601 274.264 80.0648 273.935C77.0555 273.829 74.0574 273.51 71.0928 272.981C74.1037 272.866 77.119 272.974 80.1142 273.303C83.1236 273.408 86.1218 273.727 89.0863 274.257Z" fill="#35323D"/>
<path d="M42.6586 247.796C40.9082 245.235 39.3371 242.556 37.9566 239.777C36.3919 237.1 35.0146 234.317 33.8346 231.448C35.5796 234.014 37.1465 236.697 38.5243 239.48C40.0969 242.15 41.4785 244.929 42.6586 247.796Z" fill="#35323D"/>
<path d="M181.189 414.383C180.703 414.374 180.219 414.316 179.745 414.21C178.439 413.976 177.149 413.662 175.882 413.268C174 412.692 172.161 411.984 170.378 411.148C168.206 410.097 166.119 408.879 164.133 407.504C162.17 406.096 160.322 404.534 158.604 402.832C157.214 401.433 155.927 399.933 154.754 398.345C153.95 397.286 153.221 396.172 152.57 395.011C152.303 394.604 152.084 394.167 151.916 393.71C152.014 393.648 153.051 395.445 155.112 398.073C156.323 399.6 157.63 401.049 159.024 402.411C162.44 405.743 166.36 408.513 170.637 410.615C172.385 411.463 174.181 412.204 176.018 412.834C179.177 413.9 181.214 414.259 181.189 414.383Z" fill="#35323D"/>
<path d="M200.12 357.049C199.835 357.099 199.546 357.128 199.256 357.136C198.436 357.205 197.612 357.23 196.788 357.21C193.719 357.142 190.675 356.646 187.742 355.735C185.716 355.101 183.743 354.305 181.843 353.355C179.664 352.23 177.598 350.898 175.672 349.377C171.211 345.935 167.695 341.411 165.454 336.229C163.213 331.047 162.321 325.379 162.862 319.755C163.063 317.315 163.497 314.899 164.158 312.542C164.749 310.498 165.513 308.507 166.441 306.593C167.78 303.817 169.5 301.242 171.55 298.946C172.1 298.318 172.685 297.722 173.303 297.161C173.507 296.956 173.726 296.765 173.957 296.591C173.957 296.591 173.142 297.471 171.735 299.07C169.761 301.402 168.101 303.986 166.799 306.754C164.858 310.834 163.702 315.245 163.393 319.755C162.893 325.279 163.783 330.84 165.983 335.927C168.183 341.015 171.621 345.465 175.981 348.869C177.85 350.38 179.858 351.708 181.979 352.835C183.837 353.819 185.773 354.648 187.767 355.314C190.656 356.255 193.656 356.809 196.689 356.962C198.923 357.049 200.12 356.974 200.12 357.049Z" fill="#35323D"/>
<path d="M50.7051 259.446C50.7051 259.545 49.7548 259.087 48.2369 258.727C46.2056 258.281 44.1001 258.302 42.0781 258.789C40.0562 259.277 38.1704 260.217 36.5621 261.541C35.3279 262.57 34.7356 263.388 34.6492 263.326C34.9878 262.505 35.5117 261.776 36.1795 261.194C37.7812 259.718 39.7315 258.677 41.8458 258.169C43.9601 257.662 46.1683 257.705 48.2615 258.294C49.1535 258.484 49.9898 258.878 50.7051 259.446Z" fill="#35323D"/>
<path d="M232.948 136.213C232.948 136.387 217.793 136.535 199.108 136.535C180.424 136.535 165.256 136.387 165.256 136.213C165.256 136.04 180.411 135.891 199.108 135.891C217.805 135.891 232.948 136.015 232.948 136.213Z" fill="#35323D"/>
<path d="M175.191 213.713C175.006 213.765 174.815 213.794 174.623 213.799L172.97 213.948C172.254 214.01 171.377 214.06 170.353 214.084C169.329 214.109 168.169 214.159 166.885 214.084C164.306 214.084 161.245 213.899 157.852 213.539C154.179 213.11 150.533 212.477 146.93 211.643C143.335 210.777 139.792 209.709 136.316 208.445C133.484 207.404 130.708 206.217 127.998 204.888C126.764 204.343 125.814 203.773 124.913 203.289C124.012 202.806 123.247 202.372 122.63 202.05L121.21 201.182C121.042 201.089 120.885 200.976 120.741 200.848C120.741 200.848 120.939 200.848 121.272 201.071L122.753 201.827C123.382 202.174 124.16 202.583 125.073 203.066C125.986 203.55 127.023 204.045 128.196 204.566C130.516 205.657 133.342 206.822 136.526 207.974C143.446 210.466 150.625 212.162 157.926 213.031C161.282 213.428 164.331 213.651 166.885 213.713C168.119 213.787 169.354 213.713 170.353 213.713C171.353 213.713 172.241 213.713 172.957 213.713H174.611C174.803 213.68 174.999 213.68 175.191 213.713Z" fill="#35323D"/>
<path d="M273.711 269.56C273.62 269.62 273.52 269.666 273.415 269.696L272.526 270.031L269.095 271.27C267.602 271.816 265.776 272.448 263.616 273.08C261.456 273.712 259.025 274.53 256.273 275.224L251.978 276.364C250.485 276.748 248.905 277.071 247.288 277.455C244.055 278.236 240.55 278.855 236.873 279.562C220.854 282.364 204.574 283.365 188.334 282.549C184.632 282.313 181.041 282.127 177.733 281.743C176.08 281.57 174.475 281.446 172.945 281.235L168.539 280.628C165.725 280.293 163.208 279.785 160.999 279.388C158.79 278.992 156.877 278.62 155.334 278.26L151.78 277.467L150.854 277.244C150.747 277.226 150.643 277.193 150.546 277.145C150.657 277.136 150.768 277.136 150.879 277.145L151.804 277.306L155.383 277.988C156.938 278.298 158.839 278.657 161.06 278.992C163.282 279.326 165.787 279.81 168.601 280.119L172.994 280.677C174.525 280.876 176.129 280.987 177.783 281.148C181.078 281.508 184.632 281.669 188.359 281.892C195.826 282.202 204.033 282.214 212.647 281.706C221.261 281.198 229.394 280.119 236.761 278.905C240.464 278.223 243.944 277.665 247.177 276.872C248.794 276.5 250.374 276.191 251.867 275.819L256.162 274.716C258.914 274.059 261.345 273.29 263.505 272.671C265.665 272.051 267.516 271.431 269.009 270.973L272.477 269.857L273.39 269.585L273.711 269.56Z" fill="#35323D"/>
</svg>
